STARTFONT 2.1
FONT -Adobe-Times-Medium-R-Normal--20-140-100-100-P-96-ISO10646-1
SIZE 14 100 100
FONTBOUNDINGBOX 22 29 -3 -7
COMMENT $XFree86$
COMMENT ISO10646-1 extension by Markus Kuhn <mkuhn@acm.org>, 2001-03-20
COMMENT 
COMMENT +
COMMENT  Copyright 1984-1989, 1994 Adobe Systems Incorporated.
COMMENT  Copyright 1988, 1994 Digital Equipment Corporation.
COMMENT
COMMENT  Adobe is a trademark of Adobe Systems Incorporated which may be
COMMENT  registered in certain jurisdictions.
COMMENT  Permission to use these trademarks is hereby granted only in
COMMENT  association with the images described in this file.
COMMENT
COMMENT  Permission to use, copy, modify, distribute and sell this software
COMMENT  and its documentation for any purpose and without fee is hereby
COMMENT  granted, provided that the above copyright notices appear in all
COMMENT  copies and that both those copyright notices and this permission
COMMENT  notice appear in supporting documentation, and that the names of
COMMENT  Adobe Systems and Digital Equipment Corporation not be used in
COMMENT  advertising or publicity pertaining to distribution of the software
COMMENT  without specific, written prior permission.  Adobe Systems and
COMMENT  Digital Equipment Corporation make no representations about the
COMMENT  suitability of this software for any purpose.  It is provided "as
COMMENT  is" without express or implied warranty.
COMMENT -
STARTPROPERTIES 26
FOUNDRY "Adobe"
FAMILY_NAME "Times"
WEIGHT_NAME "Medium"
SLANT "R"
SETWIDTH_NAME "Normal"
ADD_STYLE_NAME ""
PIXEL_SIZE 20
POINT_SIZE 140
RESOLUTION_X 100
RESOLUTION_Y 100
SPACING "P"
AVERAGE_WIDTH 96
CHARSET_REGISTRY "ISO10646"
CHARSET_ENCODING "1"
CAP_HEIGHT 13
X_HEIGHT 9
FONT_ASCENT 16
FONT_DESCENT 4
FACE_NAME "Times Roman"
COPYRIGHT "Copyright (c) 1984, 1987 Adobe Systems Incorporated. All Rights Reserved. Copyright (c) 1988, 1991 Digital Equipment Corporation. All Rights Reserved."

STARTCHAR char0
ENCODING 0
SWIDTH 722 0
DWIDTH 14 0
BBX 11 13 1 0
BITMAP
AAA0
0000
8020
0000
8020
0000
8020
0000
8020
0000
8020
0000
AAA0
ENDCHAR
STARTCHAR space
ENCODING 32
SWIDTH 250 0
DWIDTH 5 0
BBX 1 1 0 0
BITMAP
00
ENDCHAR
STARTCHAR exclam
ENCODING 33
SWIDTH 333 0
DWIDTH 4 0
BBX 2 13 1 0
BITMAP
C0
C0
C0
C0
C0
C0
40
40
40
00
00
C0
C0
ENDCHAR
STARTCHAR quotedbl
ENCODING 34
SWIDTH 408 0
DWIDTH 8 0
BBX 6 4 1 9
BITMAP
CC
CC
CC
88
ENDCHAR
STARTCHAR numbersign
ENCODING 35
SWIDTH 500 0
DWIDTH 10 0
BBX 12 11 -1 1
BITMAP
0CC0
0CC0
0CC0
7FF0
1980
1980
1980
FFE0
3300
3300
3300
ENDCHAR
STARTCHAR dollar
ENCODING 36
SWIDTH 500 0
DWIDTH 9 0
BBX 7 16 1 -2
BITMAP
10
7C
D6
D2
D0
F0
78
3C
1C
16
16
96
D6
7C
10
10
ENDCHAR
STARTCHAR percent
ENCODING 37
SWIDTH 833 0
DWIDTH 15 0
BBX 13 13 1 0
BITMAP
3830
6FE0
C440
C480
CD80
FB00
7270
06D8
0D88
0988
1998
31F0
20E0
ENDCHAR
STARTCHAR ampersand
ENCODING 38
SWIDTH 778 0
DWIDTH 14 0
BBX 12 13 1 0
BITMAP
1C00
3200
3200
3200
3400
19E0
38C0
6D80
CF00
C700
C780
EDF0
78E0
ENDCHAR
STARTCHAR quotesingle
ENCODING 39
SWIDTH 180 0
DWIDTH 4 0
BBX 2 4 1 9
BITMAP
C0
C0
C0
80
ENDCHAR
STARTCHAR parenleft
ENCODING 40
SWIDTH 333 0
DWIDTH 7 0
BBX 5 17 1 -4
BITMAP
18
30
60
60
40
C0
C0
C0
C0
C0
C0
C0
40
60
60
30
18
ENDCHAR
STARTCHAR parenright
ENCODING 41
SWIDTH 333 0
DWIDTH 7 0
BBX 5 17 1 -4
BITMAP
C0
60
30
30
10
18
18
18
18
18
18
18
10
30
30
60
C0
ENDCHAR
STARTCHAR asterisk
ENCODING 42
SWIDTH 500 0
DWIDTH 9 0
BBX 7 7 1 6
BITMAP
10
D6
54
38
D6
92
10
ENDCHAR
STARTCHAR plus
ENCODING 43
SWIDTH 564 0
DWIDTH 10 0
BBX 8 8 1 1
BITMAP
18
18
18
FF
FF
18
18
18
ENDCHAR
STARTCHAR comma
ENCODING 44
SWIDTH 250 0
DWIDTH 4 0
BBX 3 5 0 -3
BITMAP
60
60
20
60
C0
ENDCHAR
STARTCHAR hyphen
ENCODING 45
SWIDTH 333 0
DWIDTH 6 0
BBX 5 2 0 3
BITMAP
F8
F8
ENDCHAR
STARTCHAR period
ENCODING 46
SWIDTH 250 0
DWIDTH 4 0
BBX 2 2 1 0
BITMAP
C0
C0
ENDCHAR
STARTCHAR slash
ENCODING 47
SWIDTH 278 0
DWIDTH 5 0
BBX 7 17 -1 -4
BITMAP
02
02
06
04
0C
0C
08
18
18
10
30
30
20
60
60
40
C0
ENDCHAR
STARTCHAR zero
ENCODING 48
SWIDTH 500 0
DWIDTH 9 0
BBX 8 13 1 0
BITMAP
3C
66
66
C3
C3
C3
C3
C3
C3
C3
66
66
3C
ENDCHAR
STARTCHAR one
ENCODING 49
SWIDTH 500 0
DWIDTH 9 0
BBX 6 13 2 0
BITMAP
30
70
F0
30
30
30
30
30
30
30
30
78
FC
ENDCHAR
STARTCHAR two
ENCODING 50
SWIDTH 500 0
DWIDTH 9 0
BBX 7 13 1 0
BITMAP
3C
7E
CE
86
06
06
0C
0C
18
30
62
FE
FE
ENDCHAR
STARTCHAR three
ENCODING 51
SWIDTH 500 0
DWIDTH 9 0
BBX 7 13 1 0
BITMAP
7C
CE
86
06
0C
38
3C
0E
06
06
06
CC
F8
ENDCHAR
STARTCHAR four
ENCODING 52
SWIDTH 500 0
DWIDTH 9 0
BBX 8 13 0 0
BITMAP
02
06
0E
0E
16
26
46
46
FF
FF
06
06
06
ENDCHAR
STARTCHAR five
ENCODING 53
SWIDTH 500 0
DWIDTH 9 0
BBX 7 13 1 0
BITMAP
7E
7C
C0
C0
F0
3C
0C
0E
06
06
0C
DC
F0
ENDCHAR
STARTCHAR six
ENCODING 54
SWIDTH 500 0
DWIDTH 9 0
BBX 8 13 1 0
BITMAP
07
1C
30
60
60
FC
C6
C3
C3
C3
E3
76
3C
ENDCHAR
STARTCHAR seven
ENCODING 55
SWIDTH 500 0
DWIDTH 9 0
BBX 8 13 1 0
BITMAP
7F
FF
82
06
04
0C
0C
08
18
18
10
30
30
ENDCHAR
STARTCHAR eight
ENCODING 56
SWIDTH 500 0
DWIDTH 9 0
BBX 8 13 1 0
BITMAP
3C
66
C2
E6
7C
38
3C
6E
C7
C3
C3
66
3C
ENDCHAR
STARTCHAR nine
ENCODING 57
SWIDTH 500 0
DWIDTH 9 0
BBX 8 13 1 0
BITMAP
3C
6E
C6
C3
C3
C3
E3
7F
36
06
0C
38
E0
ENDCHAR
STARTCHAR colon
ENCODING 58
SWIDTH 278 0
DWIDTH 5 0
BBX 2 9 1 0
BITMAP
C0
C0
00
00
00
00
00
C0
C0
ENDCHAR
STARTCHAR semicolon
ENCODING 59
SWIDTH 278 0
DWIDTH 5 0
BBX 3 12 0 -3
BITMAP
60
60
00
00
00
00
00
60
60
20
60
C0
ENDCHAR
STARTCHAR less
ENCODING 60
SWIDTH 564 0
DWIDTH 11 0
BBX 9 9 1 0
BITMAP
0180
0700
1C00
7000
C000
7000
1C00
0700
0180
ENDCHAR
STARTCHAR equal
ENCODING 61
SWIDTH 564 0
DWIDTH 11 0
BBX 9 5 1 2
BITMAP
FF80
FF80
0000
FF80
FF80
ENDCHAR
STARTCHAR greater
ENCODING 62
SWIDTH 564 0
DWIDTH 11 0
BBX 9 9 1 0
BITMAP
C000
7000
1C00
0700
0180
0700
1C00
7000
C000
ENDCHAR
STARTCHAR question
ENCODING 63
SWIDTH 444 0
DWIDTH 8 0
BBX 6 13 1 0
BITMAP
78
8C
C4
CC
0C
18
18
30
20
20
00
30
30
ENDCHAR
STARTCHAR at
ENCODING 64
SWIDTH 921 0
DWIDTH 17 0
BBX 14 16 1 -3
BITMAP
07E0
0E30
3818
3008
63EC
67E4
C664
CC64
CCCC
CCC8
CDD8
6770
6000
3000
1C30
07E0
ENDCHAR
STARTCHAR A
ENCODING 65
SWIDTH 722 0
DWIDTH 14 0
BBX 13 13 1 0
BITMAP
0200
0700
0700
0500
0D80
0980
19C0
10C0
1FC0
30E0
2060
6070
F0F8
ENDCHAR
STARTCHAR B
ENCODING 66
SWIDTH 667 0
DWIDTH 13 0
BBX 10 13 2 0
BITMAP
FF00
6380
6180
6180
6180
6300
7F80
61C0
60C0
60C0
60C0
6180
FF00
ENDCHAR
STARTCHAR C
ENCODING 67
SWIDTH 667 0
DWIDTH 13 0
BBX 11 13 1 0
BITMAP
0F20
30E0
6060
6020
C000
C000
C000
C000
C000
6000
6060
38C0
0F00
ENDCHAR
STARTCHAR D
ENCODING 68
SWIDTH 722 0
DWIDTH 14 0
BBX 11 13 2 0
BITMAP
FF00
6380
60C0
60C0
6060
6060
6060
6060
6060
60C0
60C0
6380
FF00
ENDCHAR
STARTCHAR E
ENCODING 69
SWIDTH 611 0
DWIDTH 12 0
BBX 9 13 1 0
BITMAP
FF80
6180
6080
6000
6000
6100
7F00
6100
6000
6000
6080
6180
FF80
ENDCHAR
STARTCHAR F
ENCODING 70
SWIDTH 556 0
DWIDTH 11 0
BBX 9 13 1 0
BITMAP
FF80
6180
6080
6000
6000
6100
7F00
6100
6000
6000
6000
6000
F000
ENDCHAR
STARTCHAR G
ENCODING 71
SWIDTH 722 0
DWIDTH 14 0
BBX 12 13 1 0
BITMAP
0F20
30E0
6060
6020
C000
C000
C0F0
C060
C060
6060
6060
39C0
0F00
ENDCHAR
STARTCHAR H
ENCODING 72
SWIDTH 722 0
DWIDTH 14 0
BBX 12 13 1 0
BITMAP
F0F0
6060
6060
6060
6060
6060
7FE0
6060
6060
6060
6060
6060
F0F0
ENDCHAR
STARTCHAR I
ENCODING 73
SWIDTH 333 0
DWIDTH 6 0
BBX 4 13 1 0
BITMAP
F0
60
60
60
60
60
60
60
60
60
60
60
F0
ENDCHAR
STARTCHAR J
ENCODING 74
SWIDTH 389 0
DWIDTH 7 0
BBX 6 13 0 0
BITMAP
3C
18
18
18
18
18
18
18
18
18
18
D8
F0
ENDCHAR
STARTCHAR K
ENCODING 75
SWIDTH 722 0
DWIDTH 14 0
BBX 12 13 1 0
BITMAP
F3E0
6180
6300
6600
6C00
7800
7800
7C00
6E00
6700
6380
61C0
F0F0
ENDCHAR
STARTCHAR L
ENCODING 76
SWIDTH 611 0
DWIDTH 12 0
BBX 10 13 1 0
BITMAP
F000
6000
6000
6000
6000
6000
6000
6000
6000
6000
6040
60C0
FFC0
ENDCHAR
STARTCHAR M
ENCODING 77
SWIDTH 889 0
DWIDTH 17 0
BBX 14 13 1 0
BITMAP
E01C
7038
7038
7878
5858
58D8
5CD8
4C98
4D98
4718
4718
4218
E23C
ENDCHAR
STARTCHAR N
ENCODING 78
SWIDTH 722 0
DWIDTH 14 0
BBX 12 13 1 0
BITMAP
E070
6020
7020
7820
5C20
4C20
4E20
4720
43A0
41E0
40E0
4060
E020
ENDCHAR
STARTCHAR O
ENCODING 79
SWIDTH 722 0
DWIDTH 14 0
BBX 12 13 1 0
BITMAP
0F00
30C0
6060
6060
C030
C030
C030
C030
C030
6060
6060
30C0
0F00
ENDCHAR
STARTCHAR P
ENCODING 80
SWIDTH 556 0
DWIDTH 11 0
BBX 9 13 1 0
BITMAP
FF00
6380
6180
6180
6180
6300
7E00
6000
6000
6000
6000
6000
F000
ENDCHAR
STARTCHAR Q
ENCODING 81
SWIDTH 722 0
DWIDTH 14 0
BBX 12 17 1 -4
BITMAP
0F00
30C0
6060
6060
C030
C030
C030
C030
C030
6060
6060
30C0
0F00
0600
0300
01C0
00F0
ENDCHAR
STARTCHAR R
ENCODING 82
SWIDTH 667 0
DWIDTH 13 0
BBX 11 13 1 0
BITMAP
FF00
6380
6180
6180
6180
6300
7E00
6E00
6600
6300
6180
60C0
F0E0
ENDCHAR
STARTCHAR S
ENCODING 83
SWIDTH 556 0
DWIDTH 11 0
BBX 8 13 2 0
BITMAP
3A
46
C2
C0
E0
78
3C
0E
07
03
83
C6
B8
ENDCHAR
STARTCHAR T
ENCODING 84
SWIDTH 611 0
DWIDTH 12 0
BBX 10 13 1 0
BITMAP
FFC0
CCC0
8C40
0C00
0C00
0C00
0C00
0C00
0C00
0C00
0C00
0C00
1E00
ENDCHAR
STARTCHAR U
ENCODING 85
SWIDTH 722 0
DWIDTH 14 0
BBX 11 13 2 0
BITMAP
F0E0
6040
6040
6040
6040
6040
6040
6040
6040
6040
70C0
3980
1F00
ENDCHAR
STARTCHAR V
ENCODING 86
SWIDTH 722 0
DWIDTH 14 0
BBX 13 13 0 0
BITMAP
F878
7030
3020
3820
1860
1840
1C40
0CC0
0E80
0680
0780
0300
0300
ENDCHAR
STARTCHAR W
ENCODING 87
SWIDTH 944 0
DWIDTH 18 0
BBX 18 13 0 0
BITMAP
F9E3C0
70C180
30C100
38E100
186300
18E200
18E200
1DA600
0D3400
0F3C00
0E3800
061800
061800
ENDCHAR
STARTCHAR X
ENCODING 88
SWIDTH 722 0
DWIDTH 14 0
BBX 12 13 1 0
BITMAP
F070
7060
38C0
1980
0D00
0E00
0600
0F00
1B00
1180
31C0
60E0
F0F0
ENDCHAR
STARTCHAR Y
ENCODING 89
SWIDTH 722 0
DWIDTH 14 0
BBX 12 13 1 0
BITMAP
F0F0
7060
30C0
1880
1900
0F00
0600
0600
0600
0600
0600
0600
0F00
ENDCHAR
STARTCHAR Z
ENCODING 90
SWIDTH 611 0
DWIDTH 12 0
BBX 10 13 1 0
BITMAP
7FC0
61C0
4180
0380
0700
0600
0E00
1C00
3800
3000
7040
E0C0
FFC0
ENDCHAR
STARTCHAR bracketleft
ENCODING 91
SWIDTH 333 0
DWIDTH 6 0
BBX 4 16 2 -3
BITMAP
F0
C0
C0
C0
C0
C0
C0
C0
C0
C0
C0
C0
C0
C0
C0
F0
ENDCHAR
STARTCHAR backslash
ENCODING 92
SWIDTH 278 0
DWIDTH 5 0
BBX 5 13 0 0
BITMAP
80
80
C0
40
60
60
20
30
30
10
18
08
08
ENDCHAR
STARTCHAR bracketright
ENCODING 93
SWIDTH 333 0
DWIDTH 6 0
BBX 4 16 0 -3
BITMAP
F0
30
30
30
30
30
30
30
30
30
30
30
30
30
30
F0
ENDCHAR
STARTCHAR asciicircum
ENCODING 94
SWIDTH 469 0
DWIDTH 9 0
BBX 7 7 1 6
BITMAP
10
38
28
6C
44
C6
82
ENDCHAR
STARTCHAR underscore
ENCODING 95
SWIDTH 500 0
DWIDTH 9 0
BBX 9 2 0 -4
BITMAP
FF80
FF80
ENDCHAR
STARTCHAR grave
ENCODING 96
SWIDTH 333 0
DWIDTH 4 0
BBX 4 3 0 10
BITMAP
C0
60
10
ENDCHAR
STARTCHAR a
ENCODING 97
SWIDTH 444 0
DWIDTH 9 0
BBX 7 9 1 0
BITMAP
78
C8
CC
1C
6C
CC
CC
FC
66
ENDCHAR
STARTCHAR b
ENCODING 98
SWIDTH 500 0
DWIDTH 9 0
BBX 8 13 0 0
BITMAP
60
E0
60
60
6E
77
63
63
63
63
63
66
5C
ENDCHAR
STARTCHAR c
ENCODING 99
SWIDTH 444 0
DWIDTH 8 0
BBX 7 9 0 0
BITMAP
3C
66
C0
C0
C0
C0
C0
66
3C
ENDCHAR
STARTCHAR d
ENCODING 100
SWIDTH 500 0
DWIDTH 9 0
BBX 8 13 0 0
BITMAP
06
0E
06
06
3E
66
C6
C6
C6
C6
C6
66
3F
ENDCHAR
STARTCHAR e
ENCODING 101
SWIDTH 444 0
DWIDTH 8 0
BBX 7 9 0 0
BITMAP
3C
66
C2
FE
C0
C0
C0
66
3C
ENDCHAR
STARTCHAR f
ENCODING 102
SWIDTH 333 0
DWIDTH 6 0
BBX 6 13 0 0
BITMAP
1C
34
20
60
F8
60
60
60
60
60
60
60
F0
ENDCHAR
STARTCHAR g
ENCODING 103
SWIDTH 500 0
DWIDTH 9 0
BBX 8 13 0 -4
BITMAP
3E
CC
C4
C4
CC
78
40
7C
7F
83
C1
E2
7C
ENDCHAR
STARTCHAR h
ENCODING 104
SWIDTH 500 0
DWIDTH 10 0
BBX 9 13 0 0
BITMAP
6000
E000
6000
6000
6600
6F00
7300
6300
6300
6300
6300
6300
F380
ENDCHAR
STARTCHAR i
ENCODING 105
SWIDTH 278 0
DWIDTH 5 0
BBX 4 13 0 0
BITMAP
60
60
00
00
60
E0
60
60
60
60
60
60
F0
ENDCHAR
STARTCHAR j
ENCODING 106
SWIDTH 278 0
DWIDTH 5 0
BBX 4 17 -1 -4
BITMAP
30
30
00
00
30
70
30
30
30
30
30
30
30
30
30
E0
C0
ENDCHAR
STARTCHAR k
ENCODING 107
SWIDTH 500 0
DWIDTH 9 0
BBX 10 13 0 0
BITMAP
6000
E000
6000
6000
6700
6200
6400
6800
7800
6C00
6E00
6700
E3C0
ENDCHAR
STARTCHAR l
ENCODING 108
SWIDTH 278 0
DWIDTH 5 0
BBX 4 13 0 0
BITMAP
60
E0
60
60
60
60
60
60
60
60
60
60
F0
ENDCHAR
STARTCHAR m
ENCODING 109
SWIDTH 778 0
DWIDTH 15 0
BBX 14 9 0 0
BITMAP
6630
EF78
7398
6318
6318
6318
6318
6318
F7BC
ENDCHAR
STARTCHAR n
ENCODING 110
SWIDTH 500 0
DWIDTH 10 0
BBX 9 9 0 0
BITMAP
6600
EF00
7300
6300
6300
6300
6300
6300
F380
ENDCHAR
STARTCHAR o
ENCODING 111
SWIDTH 500 0
DWIDTH 9 0
BBX 8 9 0 0
BITMAP
3C
66
C3
C3
C3
C3
C3
66
3C
ENDCHAR
STARTCHAR p
ENCODING 112
SWIDTH 500 0
DWIDTH 9 0
BBX 8 13 0 -4
BITMAP
6E
F7
63
63
63
63
63
76
7C
60
60
60
F0
ENDCHAR
STARTCHAR q
ENCODING 113
SWIDTH 500 0
DWIDTH 9 0
BBX 8 13 0 -4
BITMAP
3E
66
C6
C6
C6
C6
C6
66
3E
06
06
06
0F
ENDCHAR
STARTCHAR r
ENCODING 114
SWIDTH 333 0
DWIDTH 7 0
BBX 6 9 0 0
BITMAP
6C
EC
70
60
60
60
60
60
F0
ENDCHAR
STARTCHAR s
ENCODING 115
SWIDTH 389 0
DWIDTH 7 0
BBX 5 9 1 0
BITMAP
68
98
C8
E0
70
38
98
C8
B0
ENDCHAR
STARTCHAR t
ENCODING 116
SWIDTH 278 0
DWIDTH 6 0
BBX 6 11 0 0
BITMAP
20
60
F8
60
60
60
60
60
60
74
38
ENDCHAR
STARTCHAR u
ENCODING 117
SWIDTH 500 0
DWIDTH 10 0
BBX 9 9 0 0
BITMAP
E700
6300
6300
6300
6300
6300
6300
7700
3B80
ENDCHAR
STARTCHAR v
ENCODING 118
SWIDTH 500 0
DWIDTH 9 0
BBX 9 9 -1 0
BITMAP
F380
6300
6200
3200
3600
1400
1C00
0800
0800
ENDCHAR
STARTCHAR w
ENCODING 119
SWIDTH 722 0
DWIDTH 14 0
BBX 13 9 0 0
BITMAP
E738
6630
6260
3660
3760
1D40
1DC0
0880
0880
ENDCHAR
STARTCHAR x
ENCODING 120
SWIDTH 500 0
DWIDTH 9 0
BBX 9 9 0 0
BITMAP
E180
6300
3600
1C00
1C00
1C00
3600
6300
C380
ENDCHAR
STARTCHAR y
ENCODING 121
SWIDTH 500 0
DWIDTH 9 0
BBX 8 13 0 -4
BITMAP
F3
63
72
32
36
1C
1C
0C
08
18
10
F0
E0
ENDCHAR
STARTCHAR z
ENCODING 122
SWIDTH 444 0
DWIDTH 8 0
BBX 7 9 0 0
BITMAP
FE
CE
8C
18
30
30
62
E6
FE
ENDCHAR
STARTCHAR braceleft
ENCODING 123
SWIDTH 480 0
DWIDTH 9 0
BBX 7 17 1 -4
BITMAP
0E
18
30
30
30
30
30
60
C0
60
30
30
30
30
30
18
0E
ENDCHAR
STARTCHAR bar
ENCODING 124
SWIDTH 200 0
DWIDTH 3 0
BBX 1 13 1 0
BITMAP
80
80
80
80
80
80
80
80
80
80
80
80
80
ENDCHAR
STARTCHAR braceright
ENCODING 125
SWIDTH 480 0
DWIDTH 9 0
BBX 7 17 1 -4
BITMAP
E0
30
18
18
18
18
18
0C
06
0C
18
18
18
18
18
30
E0
ENDCHAR
STARTCHAR asciitilde
ENCODING 126
SWIDTH 541 0
DWIDTH 11 0
BBX 9 4 1 3
BITMAP
3000
7980
CF00
0600
ENDCHAR
STARTCHAR space
ENCODING 160
SWIDTH 250 0
DWIDTH 5 0
BBX 1 1 0 0
BITMAP
00
ENDCHAR
STARTCHAR exclamdown
ENCODING 161
SWIDTH 333 0
DWIDTH 4 0
BBX 2 13 1 -4
BITMAP
C0
C0
00
00
80
80
80
C0
C0
C0
C0
C0
C0
ENDCHAR
STARTCHAR cent
ENCODING 162
SWIDTH 500 0
DWIDTH 9 0
BBX 7 14 1 -3
BITMAP
06
04
3C
6E
C8
D8
D0
D0
F0
72
7C
40
C0
80
ENDCHAR
STARTCHAR sterling
ENCODING 163
SWIDTH 500 0
DWIDTH 11 0
BBX 10 13 0 0
BITMAP
0F00
1980
1980
1800
1800
1800
7E00
1800
1800
1000
7840
BFC0
E780
ENDCHAR
STARTCHAR currency
ENCODING 164
SWIDTH 500 0
DWIDTH 11 0
BBX 9 7 1 3
BITMAP
DD80
F780
6300
4100
6300
F780
DD80
ENDCHAR
STARTCHAR yen
ENCODING 165
SWIDTH 500 0
DWIDTH 9 0
BBX 8 13 0 0
BITMAP
F7
62
62
76
34
34
7E
18
7E
18
18
18
7E
ENDCHAR
STARTCHAR brokenbar
ENCODING 166
SWIDTH 200 0
DWIDTH 3 0
BBX 1 13 1 0
BITMAP
80
80
80
80
80
00
00
00
80
80
80
80
80
ENDCHAR
STARTCHAR section
ENCODING 167
SWIDTH 500 0
DWIDTH 10 0
BBX 8 16 1 -3
BITMAP
3C
66
66
70
38
7C
8E
C7
E3
71
3E
1C
0E
66
66
3C
ENDCHAR
STARTCHAR dieresis
ENCODING 168
SWIDTH 333 0
DWIDTH 5 0
BBX 5 2 0 10
BITMAP
D8
D8
ENDCHAR
STARTCHAR copyright
ENCODING 169
SWIDTH 760 0
DWIDTH 15 0
BBX 13 13 1 0
BITMAP
0F80
3060
4010
4790
8888
9008
9008
9008
8888
4710
4010
3060
0F80
ENDCHAR
STARTCHAR ordfeminine
ENCODING 170
SWIDTH 276 0
DWIDTH 5 0
BBX 5 8 0 5
BITMAP
60
90
10
70
90
E8
00
F8
ENDCHAR
STARTCHAR guillemotleft
ENCODING 171
SWIDTH 500 0
DWIDTH 10 0
BBX 8 7 1 1
BITMAP
11
33
66
CC
66
33
11
ENDCHAR
STARTCHAR logicalnot
ENCODING 172
SWIDTH 564 0
DWIDTH 11 0
BBX 9 5 1 2
BITMAP
FF80
FF80
0180
0180
0180
ENDCHAR
STARTCHAR hyphen
ENCODING 173
SWIDTH 333 0
DWIDTH 6 0
BBX 5 2 0 3
BITMAP
F8
F8
ENDCHAR
STARTCHAR registered
ENCODING 174
SWIDTH 760 0
DWIDTH 15 0
BBX 13 13 1 0
BITMAP
0F80
3060
4010
5F10
8888
8888
8F08
8908
8888
5CD0
4010
3060
0F80
ENDCHAR
STARTCHAR macron
ENCODING 175
SWIDTH 333 0
DWIDTH 5 0
BBX 5 2 0 10
BITMAP
F8
F8
ENDCHAR
STARTCHAR degree
ENCODING 176
SWIDTH 400 0
DWIDTH 7 0
BBX 5 5 1 8
BITMAP
70
88
88
88
70
ENDCHAR
STARTCHAR plusminus
ENCODING 177
SWIDTH 564 0
DWIDTH 10 0
BBX 8 11 1 0
BITMAP
18
18
18
FF
FF
18
18
18
00
FF
FF
ENDCHAR
STARTCHAR twosuperior
ENCODING 178
SWIDTH 300 0
DWIDTH 6 0
BBX 5 8 0 5
BITMAP
70
98
18
10
20
20
40
F8
ENDCHAR
STARTCHAR threesuperior
ENCODING 179
SWIDTH 300 0
DWIDTH 6 0
BBX 5 8 0 5
BITMAP
70
88
18
70
18
08
88
70
ENDCHAR
STARTCHAR acute
ENCODING 180
SWIDTH 333 0
DWIDTH 4 0
BBX 4 3 0 10
BITMAP
30
60
80
ENDCHAR
STARTCHAR mu
ENCODING 181
SWIDTH 500 0
DWIDTH 9 0
BBX 9 13 -1 -4
BITMAP
E700
6300
6300
6300
6300
6300
6300
7700
7B80
4000
4000
6000
6000
ENDCHAR
STARTCHAR paragraph
ENCODING 182
SWIDTH 453 0
DWIDTH 8 0
BBX 7 17 1 -4
BITMAP
3E
74
F4
F4
F4
F4
F4
74
14
14
14
14
14
14
14
14
14
ENDCHAR
STARTCHAR periodcentered
ENCODING 183
SWIDTH 250 0
DWIDTH 4 0
BBX 2 2 1 4
BITMAP
C0
C0
ENDCHAR
STARTCHAR cedilla
ENCODING 184
SWIDTH 333 0
DWIDTH 6 0
BBX 4 5 1 -4
BITMAP
20
20
10
B0
70
ENDCHAR
STARTCHAR onesuperior
ENCODING 185
SWIDTH 300 0
DWIDTH 6 0
BBX 3 8 1 5
BITMAP
40
C0
40
40
40
40
40
E0
ENDCHAR
STARTCHAR ordmasculine
ENCODING 186
SWIDTH 310 0
DWIDTH 6 0
BBX 5 8 0 5
BITMAP
70
D8
88
88
D8
70
00
F8
ENDCHAR
STARTCHAR guillemotright
ENCODING 187
SWIDTH 500 0
DWIDTH 10 0
BBX 8 7 1 1
BITMAP
88
CC
66
33
66
CC
88
ENDCHAR
STARTCHAR onequarter
ENCODING 188
SWIDTH 750 0
DWIDTH 13 0
BBX 11 13 1 0
BITMAP
4080
C180
4100
4300
4600
4440
4CC0
E940
1B40
3240
27E0
6040
4040
ENDCHAR
STARTCHAR onehalf
ENCODING 189
SWIDTH 750 0
DWIDTH 13 0
BBX 11 13 1 0
BITMAP
4080
C180
4100
4300
4600
45C0
4E60
E860
1840
3080
2080
6100
43E0
ENDCHAR
STARTCHAR threequarters
ENCODING 190
SWIDTH 750 0
DWIDTH 13 0
BBX 13 13 -1 0
BITMAP
7020
8860
1840
70C0
1980
0910
8B30
7250
06D0
0C90
09F8
1810
1010
ENDCHAR
STARTCHAR questiondown
ENCODING 191
SWIDTH 444 0
DWIDTH 8 0
BBX 6 13 1 -4
BITMAP
30
30
00
10
10
30
60
60
C0
CC
8C
C4
78
ENDCHAR
STARTCHAR Agrave
ENCODING 192
SWIDTH 722 0
DWIDTH 14 0
BBX 13 17 1 0
BITMAP
1800
0C00
0200
0000
0200
0700
0700
0500
0D80
0980
19C0
10C0
1FC0
30E0
2060
6070
F0F8
ENDCHAR
STARTCHAR Aacute
ENCODING 193
SWIDTH 722 0
DWIDTH 14 0
BBX 13 17 1 0
BITMAP
00C0
0180
0200
0000
0200
0700
0700
0500
0D80
0980
19C0
10C0
1FC0
30E0
2060
6070
F0F8
ENDCHAR
STARTCHAR Acircumflex
ENCODING 194
SWIDTH 722 0
DWIDTH 14 0
BBX 13 17 1 0
BITMAP
0200
0700
0D80
0000
0200
0700
0700
0500
0D80
0980
19C0
10C0
1FC0
30E0
2060
6070
F0F8
ENDCHAR
STARTCHAR Atilde
ENCODING 195
SWIDTH 722 0
DWIDTH 14 0
BBX 13 17 1 0
BITMAP
0C80
1F80
1300
0000
0200
0700
0700
0500
0D80
0980
19C0
10C0
1FC0
30E0
2060
6070
F0F8
ENDCHAR
STARTCHAR Adieresis
ENCODING 196
SWIDTH 722 0
DWIDTH 14 0
BBX 13 16 1 0
BITMAP
0D80
0D80
0000
0200
0700
0700
0500
0D80
0980
19C0
10C0
1FC0
30E0
2060
6070
F0F8
ENDCHAR
STARTCHAR Aring
ENCODING 197
SWIDTH 722 0
DWIDTH 14 0
BBX 13 18 1 0
BITMAP
0600
0900
0900
0600
0000
0200
0700
0700
0500
0D80
0980
19C0
10C0
1FC0
30E0
2060
6070
F0F8
ENDCHAR
STARTCHAR AE
ENCODING 198
SWIDTH 889 0
DWIDTH 17 0
BBX 15 13 1 0
BITMAP
0FFC
078C
0584
0580
0D80
0988
19F8
1F88
1180
3180
2182
6186
F7FE
ENDCHAR
STARTCHAR Ccedilla
ENCODING 199
SWIDTH 667 0
DWIDTH 13 0
BBX 11 17 1 -4
BITMAP
0F20
30E0
6060
6020
C000
C000
C000
C000
C000
6000
6060
38C0
0F00
0400
0200
1600
0E00
ENDCHAR
STARTCHAR Egrave
ENCODING 200
SWIDTH 611 0
DWIDTH 12 0
BBX 9 17 1 0
BITMAP
3000
1800
0400
0000
FF80
6180
6080
6000
6000
6100
7F00
6100
6000
6000
6080
6180
FF80
ENDCHAR
STARTCHAR Eacute
ENCODING 201
SWIDTH 611 0
DWIDTH 12 0
BBX 9 17 1 0
BITMAP
0300
0600
0800
0000
FF80
6180
6080
6000
6000
6100
7F00
6100
6000
6000
6080
6180
FF80
ENDCHAR
STARTCHAR Ecircumflex
ENCODING 202
SWIDTH 611 0
DWIDTH 12 0
BBX 9 17 1 0
BITMAP
0800
1C00
3600
0000
FF80
6180
6080
6000
6000
6100
7F00
6100
6000
6000
6080
6180
FF80
ENDCHAR
STARTCHAR Edieresis
ENCODING 203
SWIDTH 611 0
DWIDTH 12 0
BBX 9 16 1 0
BITMAP
3600
3600
0000
FF80
6180
6080
6000
6000
6100
7F00
6100
6000
6000
6080
6180
FF80
ENDCHAR
STARTCHAR Igrave
ENCODING 204
SWIDTH 333 0
DWIDTH 6 0
BBX 6 17 -1 0
BITMAP
C0
60
10
00
3C
18
18
18
18
18
18
18
18
18
18
18
3C
ENDCHAR
STARTCHAR Iacute
ENCODING 205
SWIDTH 333 0
DWIDTH 6 0
BBX 6 17 1 0
BITMAP
0C
18
20
00
F0
60
60
60
60
60
60
60
60
60
60
60
F0
ENDCHAR
STARTCHAR Icircumflex
ENCODING 206
SWIDTH 333 0
DWIDTH 6 0
BBX 5 17 1 0
BITMAP
20
70
D8
00
F0
60
60
60
60
60
60
60
60
60
60
60
F0
ENDCHAR
STARTCHAR Idieresis
ENCODING 207
SWIDTH 333 0
DWIDTH 6 0
BBX 5 16 1 0
BITMAP
D8
D8
00
F0
60
60
60
60
60
60
60
60
60
60
60
F0
ENDCHAR
STARTCHAR Eth
ENCODING 208
SWIDTH 722 0
DWIDTH 13 0
BBX 12 13 0 0
BITMAP
7F80
31C0
3060
3060
3030
3030
FC30
3030
3030
3060
3060
31C0
7F80
ENDCHAR
STARTCHAR Ntilde
ENCODING 209
SWIDTH 722 0
DWIDTH 14 0
BBX 12 17 1 0
BITMAP
0C80
1F80
1300
0000
E070
6020
7020
7820
5C20
4C20
4E20
4720
43A0
41E0
40E0
4060
E020
ENDCHAR
STARTCHAR Ograve
ENCODING 210
SWIDTH 722 0
DWIDTH 14 0
BBX 12 17 1 0
BITMAP
3000
1800
0400
0000
0F00
30C0
6060
6060
C030
C030
C030
C030
C030
6060
6060
30C0
0F00
ENDCHAR
STARTCHAR Oacute
ENCODING 211
SWIDTH 722 0
DWIDTH 14 0
BBX 12 17 1 0
BITMAP
00C0
0180
0200
0000
0F00
30C0
6060
6060
C030
C030
C030
C030
C030
6060
6060
30C0
0F00
ENDCHAR
STARTCHAR Ocircumflex
ENCODING 212
SWIDTH 722 0
DWIDTH 14 0
BBX 12 17 1 0
BITMAP
0400
0E00
1B00
0000
0F00
30C0
6060
6060
C030
C030
C030
C030
C030
6060
6060
30C0
0F00
ENDCHAR
STARTCHAR Otilde
ENCODING 213
SWIDTH 722 0
DWIDTH 14 0
BBX 12 17 1 0
BITMAP
0C80
1F80
1300
0000
0F00
30C0
6060
6060
C030
C030
C030
C030
C030
6060
6060
30C0
0F00
ENDCHAR
STARTCHAR Odieresis
ENCODING 214
SWIDTH 722 0
DWIDTH 14 0
BBX 12 16 1 0
BITMAP
1B00
1B00
0000
0F00
30C0
6060
6060
C030
C030
C030
C030
C030
6060
6060
30C0
0F00
ENDCHAR
STARTCHAR multiply
ENCODING 215
SWIDTH 564 0
DWIDTH 10 0
BBX 8 7 1 1
BITMAP
C3
66
3C
18
3C
66
C3
ENDCHAR
STARTCHAR Oslash
ENCODING 216
SWIDTH 722 0
DWIDTH 14 0
BBX 12 15 1 -1
BITMAP
0030
0F60
30C0
60E0
61A0
C330
C330
C630
CC30
CC30
5860
7060
30C0
6F00
C000
ENDCHAR
STARTCHAR Ugrave
ENCODING 217
SWIDTH 722 0
DWIDTH 14 0
BBX 11 17 2 0
BITMAP
3000
1800
0400
0000
F0E0
6040
6040
6040
6040
6040
6040
6040
6040
6040
70C0
3980
1F00
ENDCHAR
STARTCHAR Uacute
ENCODING 218
SWIDTH 722 0
DWIDTH 14 0
BBX 11 17 2 0
BITMAP
00C0
0180
0200
0000
F0E0
6040
6040
6040
6040
6040
6040
6040
6040
6040
70C0
3980
1F00
ENDCHAR
STARTCHAR Ucircumflex
ENCODING 219
SWIDTH 722 0
DWIDTH 14 0
BBX 11 17 2 0
BITMAP
0400
0E00
1B00
0000
F0E0
6040
6040
6040
6040
6040
6040
6040
6040
6040
70C0
3980
1F00
ENDCHAR
STARTCHAR Udieresis
ENCODING 220
SWIDTH 722 0
DWIDTH 14 0
BBX 11 16 2 0
BITMAP
1B00
1B00
0000
F0E0
6040
6040
6040
6040
6040
6040
6040
6040
6040
70C0
3980
1F00
ENDCHAR
STARTCHAR Yacute
ENCODING 221
SWIDTH 722 0
DWIDTH 14 0
BBX 12 17 1 0
BITMAP
00C0
0180
0200
0000
F0F0
7060
30C0
1880
1900
0F00
0600
0600
0600
0600
0600
0600
0F00
ENDCHAR
STARTCHAR Thorn
ENCODING 222
SWIDTH 556 0
DWIDTH 10 0
BBX 9 13 1 0
BITMAP
F000
6000
6000
7F00
6380
6180
6180
6180
6300
7E00
6000
6000
F000
ENDCHAR
STARTCHAR germandbls
ENCODING 223
SWIDTH 500 0
DWIDTH 9 0
BBX 8 13 0 0
BITMAP
1C
32
63
63
66
6E
7C
66
63
63
6B
6F
EE
ENDCHAR
STARTCHAR agrave
ENCODING 224
SWIDTH 444 0
DWIDTH 9 0
BBX 7 13 1 0
BITMAP
C0
60
10
00
78
C8
CC
1C
6C
CC
CC
FC
66
ENDCHAR
STARTCHAR aacute
ENCODING 225
SWIDTH 444 0
DWIDTH 9 0
BBX 7 13 1 0
BITMAP
0C
18
20
00
78
C8
CC
1C
6C
CC
CC
FC
66
ENDCHAR
STARTCHAR acircumflex
ENCODING 226
SWIDTH 444 0
DWIDTH 9 0
BBX 7 13 1 0
BITMAP
10
38
6C
00
78
C8
CC
1C
6C
CC
CC
FC
66
ENDCHAR
STARTCHAR atilde
ENCODING 227
SWIDTH 444 0
DWIDTH 9 0
BBX 7 13 1 0
BITMAP
64
FC
98
00
78
C8
CC
1C
6C
CC
CC
FC
66
ENDCHAR
STARTCHAR adieresis
ENCODING 228
SWIDTH 444 0
DWIDTH 9 0
BBX 7 12 1 0
BITMAP
6C
6C
00
78
C8
CC
1C
6C
CC
CC
FC
66
ENDCHAR
STARTCHAR aring
ENCODING 229
SWIDTH 444 0
DWIDTH 9 0
BBX 7 14 1 0
BITMAP
30
48
48
30
00
78
C8
CC
1C
6C
CC
CC
FC
66
ENDCHAR
STARTCHAR ae
ENCODING 230
SWIDTH 667 0
DWIDTH 12 0
BBX 11 9 0 0
BITMAP
7BC0
CE60
CC20
1FE0
6C00
CC00
CC00
FE60
63C0
ENDCHAR
STARTCHAR ccedilla
ENCODING 231
SWIDTH 444 0
DWIDTH 8 0
BBX 7 13 0 -4
BITMAP
3C
66
C0
C0
C0
C0
C0
66
3C
10
08
58
38
ENDCHAR
STARTCHAR egrave
ENCODING 232
SWIDTH 444 0
DWIDTH 8 0
BBX 7 13 0 0
BITMAP
C0
60
10
00
3C
66
C2
FE
C0
C0
C0
66
3C
ENDCHAR
STARTCHAR eacute
ENCODING 233
SWIDTH 444 0
DWIDTH 8 0
BBX 7 13 0 0
BITMAP
06
0C
10
00
3C
66
C2
FE
C0
C0
C0
66
3C
ENDCHAR
STARTCHAR ecircumflex
ENCODING 234
SWIDTH 444 0
DWIDTH 8 0
BBX 7 13 0 0
BITMAP
10
38
6C
00
3C
66
C2
FE
C0
C0
C0
66
3C
ENDCHAR
STARTCHAR edieresis
ENCODING 235
SWIDTH 444 0
DWIDTH 8 0
BBX 7 12 0 0
BITMAP
6C
6C
00
3C
66
C2
FE
C0
C0
C0
66
3C
ENDCHAR
STARTCHAR igrave
ENCODING 236
SWIDTH 278 0
DWIDTH 5 0
BBX 6 13 -2 0
BITMAP
C0
60
10
00
18
38
18
18
18
18
18
18
3C
ENDCHAR
STARTCHAR iacute
ENCODING 237
SWIDTH 278 0
DWIDTH 5 0
BBX 6 13 0 0
BITMAP
0C
18
20
00
60
E0
60
60
60
60
60
60
F0
ENDCHAR
STARTCHAR icircumflex
ENCODING 238
SWIDTH 278 0
DWIDTH 5 0
BBX 5 13 0 0
BITMAP
20
70
D8
00
60
E0
60
60
60
60
60
60
F0
ENDCHAR
STARTCHAR idieresis
ENCODING 239
SWIDTH 278 0
DWIDTH 5 0
BBX 5 12 0 0
BITMAP
D8
D8
00
60
E0
60
60
60
60
60
60
F0
ENDCHAR
STARTCHAR eth
ENCODING 240
SWIDTH 500 0
DWIDTH 9 0
BBX 8 13 0 0
BITMAP
60
36
38
4C
3E
66
C3
C3
C3
C3
C3
66
3C
ENDCHAR
STARTCHAR ntilde
ENCODING 241
SWIDTH 500 0
DWIDTH 10 0
BBX 9 13 0 0
BITMAP
3200
7E00
4C00
0000
6600
EF00
7300
6300
6300
6300
6300
6300
F380
ENDCHAR
STARTCHAR ograve
ENCODING 242
SWIDTH 500 0
DWIDTH 9 0
BBX 8 13 0 0
BITMAP
30
18
04
00
3C
66
C3
C3
C3
C3
C3
66
3C
ENDCHAR
STARTCHAR oacute
ENCODING 243
SWIDTH 500 0
DWIDTH 9 0
BBX 8 13 0 0
BITMAP
06
0C
10
00
3C
66
C3
C3
C3
C3
C3
66
3C
ENDCHAR
STARTCHAR ocircumflex
ENCODING 244
SWIDTH 500 0
DWIDTH 9 0
BBX 8 13 0 0
BITMAP
10
38
6C
00
3C
66
C3
C3
C3
C3
C3
66
3C
ENDCHAR
STARTCHAR otilde
ENCODING 245
SWIDTH 500 0
DWIDTH 9 0
BBX 8 13 0 0
BITMAP
32
7E
4C
00
3C
66
C3
C3
C3
C3
C3
66
3C
ENDCHAR
STARTCHAR odieresis
ENCODING 246
SWIDTH 500 0
DWIDTH 9 0
BBX 8 12 0 0
BITMAP
6C
6C
00
3C
66
C3
C3
C3
C3
C3
66
3C
ENDCHAR
STARTCHAR divide
ENCODING 247
SWIDTH 564 0
DWIDTH 10 0
BBX 8 8 1 1
BITMAP
18
18
00
FF
FF
00
18
18
ENDCHAR
STARTCHAR oslash
ENCODING 248
SWIDTH 500 0
DWIDTH 9 0
BBX 8 11 0 -1
BITMAP
01
3F
66
CF
CB
DB
D3
F3
66
7C
C0
ENDCHAR
STARTCHAR ugrave
ENCODING 249
SWIDTH 500 0
DWIDTH 10 0
BBX 9 13 0 0
BITMAP
6000
3000
0800
0000
E700
6300
6300
6300
6300
6300
6300
7700
3B80
ENDCHAR
STARTCHAR uacute
ENCODING 250
SWIDTH 500 0
DWIDTH 10 0
BBX 9 13 0 0
BITMAP
0600
0C00
1000
0000
E700
6300
6300
6300
6300
6300
6300
7700
3B80
ENDCHAR
STARTCHAR ucircumflex
ENCODING 251
SWIDTH 500 0
DWIDTH 10 0
BBX 9 13 0 0
BITMAP
0800
1C00
3600
0000
E700
6300
6300
6300
6300
6300
6300
7700
3B80
ENDCHAR
STARTCHAR udieresis
ENCODING 252
SWIDTH 500 0
DWIDTH 10 0
BBX 9 12 0 0
BITMAP
3600
3600
0000
E700
6300
6300
6300
6300
6300
6300
7700
3B80
ENDCHAR
STARTCHAR yacute
ENCODING 253
SWIDTH 500 0
DWIDTH 8 0
BBX 8 17 -1 -4
BITMAP
03
06
08
00
F3
63
72
32
36
1C
1C
0C
08
18
10
F0
E0
ENDCHAR
STARTCHAR thorn
ENCODING 254
SWIDTH 500 0
DWIDTH 9 0
BBX 8 17 0 -4
BITMAP
60
E0
60
60
6E
77
63
63
63
63
63
76
7C
60
60
60
F0
ENDCHAR
STARTCHAR ydieresis
ENCODING 255
SWIDTH 500 0
DWIDTH 9 0
BBX 8 16 0 -4
BITMAP
36
36
00
F3
63
72
32
36
1C
1C
0C
08
18
10
F0
E0
ENDCHAR
STARTCHAR Amacron
ENCODING 256
SWIDTH 722 0
DWIDTH 14 0
BBX 13 16 1 0
BITMAP
0F80
0F80
0000
0200
0700
0700
0500
0D80
0980
19C0
10C0
1FC0
30E0
2060
6070
F0F8
ENDCHAR
STARTCHAR amacron
ENCODING 257
SWIDTH 444 0
DWIDTH 9 0
BBX 7 12 1 0
BITMAP
7C
7C
00
78
C8
CC
1C
6C
CC
CC
FC
66
ENDCHAR
STARTCHAR Abreve
ENCODING 258
SWIDTH 722 0
DWIDTH 14 0
BBX 13 17 1 0
BITMAP
0880
0D80
0700
0000
0200
0700
0700
0500
0D80
0980
19C0
10C0
1FC0
30E0
2060
6070
F0F8
ENDCHAR
STARTCHAR abreve
ENCODING 259
SWIDTH 444 0
DWIDTH 9 0
BBX 7 13 1 0
BITMAP
44
6C
38
00
78
C8
CC
1C
6C
CC
CC
FC
66
ENDCHAR
STARTCHAR Aogonek
ENCODING 260
SWIDTH 722 0
DWIDTH 14 0
BBX 13 17 1 -4
BITMAP
0200
0700
0700
0500
0D80
0980
19C0
10C0
1FC0
30E0
2060
6070
F2F8
0600
0400
0780
0300
ENDCHAR
STARTCHAR aogonek
ENCODING 261
SWIDTH 444 0
DWIDTH 9 0
BBX 7 13 1 -4
BITMAP
78
C8
CC
1C
6C
CC
CC
FC
76
30
20
3C
18
ENDCHAR
STARTCHAR Cacute
ENCODING 262
SWIDTH 667 0
DWIDTH 13 0
BBX 11 17 1 0
BITMAP
0180
0300
0400
0000
0F20
30E0
6060
6020
C000
C000
C000
C000
C000
6000
6060
38C0
0F00
ENDCHAR
STARTCHAR cacute
ENCODING 263
SWIDTH 444 0
DWIDTH 8 0
BBX 7 13 0 0
BITMAP
0C
18
20
00
3C
66
C0
C0
C0
C0
C0
66
3C
ENDCHAR
STARTCHAR Ccircumflex
ENCODING 264
SWIDTH 667 0
DWIDTH 13 0
BBX 11 17 1 0
BITMAP
0200
0700
0D80
0000
0F20
30E0
6060
6020
C000
C000
C000
C000
C000
6000
6060
38C0
0F00
ENDCHAR
STARTCHAR ccircumflex
ENCODING 265
SWIDTH 444 0
DWIDTH 8 0
BBX 7 13 0 0
BITMAP
10
38
6C
00
3C
66
C0
C0
C0
C0
C0
66
3C
ENDCHAR
STARTCHAR Cdotaccent
ENCODING 266
SWIDTH 667 0
DWIDTH 13 0
BBX 11 16 1 0
BITMAP
0600
0600
0000
0F20
30E0
6060
6020
C000
C000
C000
C000
C000
6000
6060
38C0
0F00
ENDCHAR
STARTCHAR cdotaccent
ENCODING 267
SWIDTH 444 0
DWIDTH 8 0
BBX 7 12 0 0
BITMAP
30
30
00
3C
66
C0
C0
C0
C0
C0
66
3C
ENDCHAR
STARTCHAR Ccaron
ENCODING 268
SWIDTH 667 0
DWIDTH 13 0
BBX 11 17 1 0
BITMAP
0D80
0700
0200
0000
0F20
30E0
6060
6020
C000
C000
C000
C000
C000
6000
6060
38C0
0F00
ENDCHAR
STARTCHAR ccaron
ENCODING 269
SWIDTH 444 0
DWIDTH 8 0
BBX 7 13 0 0
BITMAP
6C
38
10
00
3C
66
C0
C0
C0
C0
C0
66
3C
ENDCHAR
STARTCHAR Dcaron
ENCODING 270
SWIDTH 722 0
DWIDTH 14 0
BBX 11 17 2 0
BITMAP
1B00
0E00
0400
0000
FF00
6380
60C0
60C0
6060
6060
6060
6060
6060
60C0
60C0
6380
FF00
ENDCHAR
STARTCHAR dcaron
ENCODING 271
SWIDTH 808 0
DWIDTH 14 0
BBX 13 13 0 0
BITMAP
0630
0E38
0608
0610
3E00
6600
C600
C600
C600
C600
C600
6600
3F00
ENDCHAR
STARTCHAR Dcroat
ENCODING 272
SWIDTH 722 0
DWIDTH 13 0
BBX 12 13 0 0
BITMAP
7F80
31C0
3060
3060
3030
3030
FC30
3030
3030
3060
3060
31C0
7F80
ENDCHAR
STARTCHAR dcroat
ENCODING 273
SWIDTH 500 0
DWIDTH 9 0
BBX 8 13 0 0
BITMAP
06
0E
1E
1E
3E
66
C6
C6
C6
C6
C6
66
3F
ENDCHAR
STARTCHAR Emacron
ENCODING 274
SWIDTH 611 0
DWIDTH 12 0
BBX 9 16 1 0
BITMAP
3E00
3E00
0000
FF80
6180
6080
6000
6000
6100
7F00
6100
6000
6000
6080
6180
FF80
ENDCHAR
STARTCHAR emacron
ENCODING 275
SWIDTH 444 0
DWIDTH 8 0
BBX 7 12 0 0
BITMAP
7C
7C
00
3C
66
C2
FE
C0
C0
C0
66
3C
ENDCHAR
STARTCHAR Ebreve
ENCODING 276
SWIDTH 611 0
DWIDTH 12 0
BBX 9 17 1 0
BITMAP
2200
3600
1C00
0000
FF80
6180
6080
6000
6000
6100
7F00
6100
6000
6000
6080
6180
FF80
ENDCHAR
STARTCHAR ebreve
ENCODING 277
SWIDTH 444 0
DWIDTH 8 0
BBX 7 13 0 0
BITMAP
44
6C
38
00
3C
66
C2
FE
C0
C0
C0
66
3C
ENDCHAR
STARTCHAR Edotaccent
ENCODING 278
SWIDTH 611 0
DWIDTH 12 0
BBX 9 16 1 0
BITMAP
1800
1800
0000
FF80
6180
6080
6000
6000
6100
7F00
6100
6000
6000
6080
6180
FF80
ENDCHAR
STARTCHAR edotaccent
ENCODING 279
SWIDTH 444 0
DWIDTH 8 0
BBX 7 12 0 0
BITMAP
18
18
00
3C
66
C2
FE
C0
C0
C0
66
3C
ENDCHAR
STARTCHAR Eogonek
ENCODING 280
SWIDTH 611 0
DWIDTH 12 0
BBX 9 17 1 -4
BITMAP
FF80
6180
6080
6000
6000
6100
7F00
6100
6000
6000
6080
6180
FF80
1800
1000
1E00
0C00
ENDCHAR
STARTCHAR eogonek
ENCODING 281
SWIDTH 444 0
DWIDTH 8 0
BBX 7 13 0 -4
BITMAP
3C
66
C2
FE
C0
C0
C0
66
3C
30
20
3C
18
ENDCHAR
STARTCHAR Ecaron
ENCODING 282
SWIDTH 611 0
DWIDTH 12 0
BBX 9 17 1 0
BITMAP
3600
1C00
0800
0000
FF80
6180
6080
6000
6000
6100
7F00
6100
6000
6000
6080
6180
FF80
ENDCHAR
STARTCHAR ecaron
ENCODING 283
SWIDTH 444 0
DWIDTH 8 0
BBX 7 13 0 0
BITMAP
6C
38
10
00
3C
66
C2
FE
C0
C0
C0
66
3C
ENDCHAR
STARTCHAR Gcircumflex
ENCODING 284
SWIDTH 722 0
DWIDTH 14 0
BBX 12 17 1 0
BITMAP
0200
0700
0D80
0000
0F20
30E0
6060
6020
C000
C000
C0F0
C060
C060
6060
6060
39C0
0F00
ENDCHAR
STARTCHAR gcircumflex
ENCODING 285
SWIDTH 500 0
DWIDTH 9 0
BBX 8 17 0 -4
BITMAP
10
38
6C
00
3E
CC
C4
C4
CC
78
40
7C
7F
83
C1
E2
7C
ENDCHAR
STARTCHAR Gbreve
ENCODING 286
SWIDTH 722 0
DWIDTH 14 0
BBX 12 17 1 0
BITMAP
0880
0D80
0700
0000
0F20
30E0
6060
6020
C000
C000
C0F0
C060
C060
6060
6060
39C0
0F00
ENDCHAR
STARTCHAR gbreve
ENCODING 287
SWIDTH 500 0
DWIDTH 9 0
BBX 8 17 0 -4
BITMAP
44
6C
38
00
3E
CC
C4
C4
CC
78
40
7C
7F
83
C1
E2
7C
ENDCHAR
STARTCHAR Gdotaccent
ENCODING 288
SWIDTH 722 0
DWIDTH 14 0
BBX 12 16 1 0
BITMAP
0600
0600
0000
0F20
30E0
6060
6020
C000
C000
C0F0
C060
C060
6060
6060
39C0
0F00
ENDCHAR
STARTCHAR gdotaccent
ENCODING 289
SWIDTH 500 0
DWIDTH 9 0
BBX 8 16 0 -4
BITMAP
18
18
00
3E
CC
C4
C4
CC
78
40
7C
7F
83
C1
E2
7C
ENDCHAR
STARTCHAR Gcommaaccent
ENCODING 290
SWIDTH 722 0
DWIDTH 14 0
BBX 12 19 1 -6
BITMAP
0F20
30E0
6060
6020
C000
C000
C0F0
C060
C060
6060
6060
39C0
0F00
0000
0600
0600
0200
0600
0C00
ENDCHAR
STARTCHAR gcommaaccent
ENCODING 291
SWIDTH 500 0
DWIDTH 9 0
BBX 8 18 0 -4
BITMAP
10
20
38
18
00
3E
CC
C4
C4
CC
78
40
7C
7F
83
C1
E2
7C
ENDCHAR
STARTCHAR Hcircumflex
ENCODING 292
SWIDTH 722 0
DWIDTH 14 0
BBX 12 17 1 0
BITMAP
0200
0700
0D80
0000
F0F0
6060
6060
6060
6060
6060
7FE0
6060
6060
6060
6060
6060
F0F0
ENDCHAR
STARTCHAR hcircumflex
ENCODING 293
SWIDTH 500 0
DWIDTH 10 0
BBX 9 17 0 0
BITMAP
2000
7000
D800
0000
6000
E000
6000
6000
6600
6F00
7300
6300
6300
6300
6300
6300
F380
ENDCHAR
STARTCHAR Hbar
ENCODING 294
SWIDTH 722 0
DWIDTH 14 0
BBX 12 13 1 0
BITMAP
F0F0
6060
6060
FFF0
FFF0
6060
7FE0
6060
6060
6060
6060
6060
F0F0
ENDCHAR
STARTCHAR hbar
ENCODING 295
SWIDTH 500 0
DWIDTH 10 0
BBX 9 13 0 0
BITMAP
6000
E000
F000
F000
6600
6F00
7300
6300
6300
6300
6300
6300
F380
ENDCHAR
STARTCHAR Itilde
ENCODING 296
SWIDTH 333 0
DWIDTH 6 0
BBX 6 17 0 0
BITMAP
64
FC
98
00
78
30
30
30
30
30
30
30
30
30
30
30
78
ENDCHAR
STARTCHAR itilde
ENCODING 297
SWIDTH 278 0
DWIDTH 5 0
BBX 6 13 -1 0
BITMAP
64
FC
98
00
30
70
30
30
30
30
30
30
78
ENDCHAR
STARTCHAR Imacron
ENCODING 298
SWIDTH 333 0
DWIDTH 6 0
BBX 5 16 1 0
BITMAP
F8
F8
00
F0
60
60
60
60
60
60
60
60
60
60
60
F0
ENDCHAR
STARTCHAR imacron
ENCODING 299
SWIDTH 278 0
DWIDTH 5 0
BBX 5 12 -1 0
BITMAP
F8
F8
00
30
70
30
30
30
30
30
30
78
ENDCHAR
STARTCHAR Ibreve
ENCODING 300
SWIDTH 333 0
DWIDTH 6 0
BBX 5 17 1 0
BITMAP
88
D8
70
00
F0
60
60
60
60
60
60
60
60
60
60
60
F0
ENDCHAR
STARTCHAR ibreve
ENCODING 301
SWIDTH 278 0
DWIDTH 5 0
BBX 5 13 -1 0
BITMAP
88
D8
70
00
30
70
30
30
30
30
30
30
78
ENDCHAR
STARTCHAR Iogonek
ENCODING 302
SWIDTH 333 0
DWIDTH 6 0
BBX 5 17 1 -4
BITMAP
F0
60
60
60
60
60
60
60
60
60
60
60
F0
60
40
78
30
ENDCHAR
STARTCHAR iogonek
ENCODING 303
SWIDTH 278 0
DWIDTH 5 0
BBX 5 17 0 -4
BITMAP
60
60
00
00
60
E0
60
60
60
60
60
60
F0
60
40
78
30
ENDCHAR
STARTCHAR Idotaccent
ENCODING 304
SWIDTH 333 0
DWIDTH 6 0
BBX 4 16 1 0
BITMAP
60
60
00
F0
60
60
60
60
60
60
60
60
60
60
60
F0
ENDCHAR
STARTCHAR dotlessi
ENCODING 305
SWIDTH 278 0
DWIDTH 5 0
BBX 4 9 0 0
BITMAP
60
E0
60
60
60
60
60
60
F0
ENDCHAR
STARTCHAR IJ
ENCODING 306
SWIDTH 705 0
DWIDTH 13 0
BBX 11 13 1 0
BITMAP
F1E0
60C0
60C0
60C0
60C0
60C0
60C0
60C0
60C0
60C0
60C0
66C0
F780
ENDCHAR
STARTCHAR ij
ENCODING 307
SWIDTH 542 0
DWIDTH 10 0
BBX 8 17 0 -4
BITMAP
63
63
00
00
63
E7
63
63
63
63
63
63
F3
03
03
0E
0C
ENDCHAR
STARTCHAR Jcircumflex
ENCODING 308
SWIDTH 389 0
DWIDTH 7 0
BBX 6 17 0 0
BITMAP
10
38
6C
00
3C
18
18
18
18
18
18
18
18
18
18
D8
F0
ENDCHAR
STARTCHAR jcircumflex
ENCODING 309
SWIDTH 278 0
DWIDTH 5 0
BBX 5 17 -1 -4
BITMAP
20
70
D8
00
30
70
30
30
30
30
30
30
30
30
30
E0
C0
ENDCHAR
STARTCHAR Kcommaaccent
ENCODING 310
SWIDTH 722 0
DWIDTH 14 0
BBX 12 19 1 -6
BITMAP
F3E0
6180
6300
6600
6C00
7800
7800
7C00
6E00
6700
6380
61C0
F0F0
0000
0600
0600
0200
0600
0C00
ENDCHAR
STARTCHAR kcommaaccent
ENCODING 311
SWIDTH 500 0
DWIDTH 9 0
BBX 10 19 0 -6
BITMAP
6000
E000
6000
6000
6700
6200
6400
6800
7800
6C00
6E00
6700
E3C0
0000
0C00
0C00
0400
0C00
1800
ENDCHAR
STARTCHAR kgreenlandic
ENCODING 312
SWIDTH 500 0
DWIDTH 9 0
BBX 10 9 0 0
BITMAP
6700
6200
6400
6800
7800
6C00
6E00
6700
E3C0
ENDCHAR
STARTCHAR Lacute
ENCODING 313
SWIDTH 611 0
DWIDTH 12 0
BBX 10 17 1 0
BITMAP
0C00
1800
2000
0000
F000
6000
6000
6000
6000
6000
6000
6000
6000
6000
6040
60C0
FFC0
ENDCHAR
STARTCHAR lacute
ENCODING 314
SWIDTH 278 0
DWIDTH 5 0
BBX 5 17 0 0
BITMAP
18
30
40
00
60
E0
60
60
60
60
60
60
60
60
60
60
F0
ENDCHAR
STARTCHAR Lcommaaccent
ENCODING 315
SWIDTH 611 0
DWIDTH 12 0
BBX 10 19 1 -6
BITMAP
F000
6000
6000
6000
6000
6000
6000
6000
6000
6000
6040
60C0
FFC0
0000
0C00
0C00
0400
0C00
1800
ENDCHAR
STARTCHAR lcommaaccent
ENCODING 316
SWIDTH 278 0
DWIDTH 5 0
BBX 4 19 0 -6
BITMAP
60
E0
60
60
60
60
60
60
60
60
60
60
F0
00
60
60
20
60
C0
ENDCHAR
STARTCHAR Lcaron
ENCODING 317
SWIDTH 913 0
DWIDTH 16 0
BBX 14 13 1 0
BITMAP
F018
601C
6004
6008
6000
6000
6000
6000
6000
6000
6040
60C0
FFC0
ENDCHAR
STARTCHAR lcaron
ENCODING 318
SWIDTH 597 0
DWIDTH 10 0
BBX 9 13 0 0
BITMAP
6300
E380
6080
6100
6000
6000
6000
6000
6000
6000
6000
6000
F000
ENDCHAR
STARTCHAR Ldot
ENCODING 319
SWIDTH 830 0
DWIDTH 15 0
BBX 13 13 1 0
BITMAP
F000
6000
6000
6000
6000
6000
6000
6018
6018
6000
6040
60C0
FFC0
ENDCHAR
STARTCHAR ldot
ENCODING 320
SWIDTH 514 0
DWIDTH 9 0
BBX 8 13 0 0
BITMAP
60
E0
60
60
60
60
60
63
63
60
60
60
F0
ENDCHAR
STARTCHAR Lslash
ENCODING 321
SWIDTH 611 0
DWIDTH 11 0
BBX 11 13 0 0
BITMAP
7800
3000
3000
3400
3800
3000
7000
B000
3000
3000
3020
3060
7FE0
ENDCHAR
STARTCHAR lslash
ENCODING 322
SWIDTH 278 0
DWIDTH 5 0
BBX 6 13 -1 0
BITMAP
70
30
30
34
38
30
30
70
B0
30
30
30
78
ENDCHAR
STARTCHAR Nacute
ENCODING 323
SWIDTH 722 0
DWIDTH 14 0
BBX 12 17 1 0
BITMAP
0300
0600
0800
0000
E070
6020
7020
7820
5C20
4C20
4E20
4720
43A0
41E0
40E0
4060
E020
ENDCHAR
STARTCHAR nacute
ENCODING 324
SWIDTH 500 0
DWIDTH 10 0
BBX 9 13 0 0
BITMAP
0600
0C00
1000
0000
6600
EF00
7300
6300
6300
6300
6300
6300
F380
ENDCHAR
STARTCHAR Ncommaaccent
ENCODING 325
SWIDTH 722 0
DWIDTH 14 0
BBX 12 19 1 -6
BITMAP
E070
6020
7020
7820
5C20
4C20
4E20
4720
43A0
41E0
40E0
4060
E020
0000
0300
0300
0100
0300
0600
ENDCHAR
STARTCHAR ncommaaccent
ENCODING 326
SWIDTH 500 0
DWIDTH 10 0
BBX 9 15 0 -6
BITMAP
6600
EF00
7300
6300
6300
6300
6300
6300
F380
0000
0C00
0C00
0400
0C00
1800
ENDCHAR
STARTCHAR Ncaron
ENCODING 327
SWIDTH 722 0
DWIDTH 14 0
BBX 12 17 1 0
BITMAP
1B00
0E00
0400
0000
E070
6020
7020
7820
5C20
4C20
4E20
4720
43A0
41E0
40E0
4060
E020
ENDCHAR
STARTCHAR ncaron
ENCODING 328
SWIDTH 500 0
DWIDTH 10 0
BBX 9 13 0 0
BITMAP
3600
1C00
0800
0000
6600
EF00
7300
6300
6300
6300
6300
6300
F380
ENDCHAR
STARTCHAR napostrophe
ENCODING 329
SWIDTH 816 0
DWIDTH 15 0
BBX 13 13 1 0
BITMAP
C000
E000
2000
4000
0660
0EF0
0730
0630
0630
0630
0630
0630
0F38
ENDCHAR
STARTCHAR Eng
ENCODING 330
SWIDTH 722 0
DWIDTH 14 0
BBX 12 17 1 -4
BITMAP
E070
6020
7020
7820
5C20
4C20
4E20
4720
43A0
41E0
40E0
4060
E060
0060
0060
01C0
0180
ENDCHAR
STARTCHAR eng
ENCODING 331
SWIDTH 500 0
DWIDTH 10 0
BBX 8 13 0 -4
BITMAP
66
EF
73
63
63
63
63
63
F3
03
03
0E
0C
ENDCHAR
STARTCHAR Omacron
ENCODING 332
SWIDTH 722 0
DWIDTH 14 0
BBX 12 16 1 0
BITMAP
0F80
0F80
0000
0F00
30C0
6060
6060
C030
C030
C030
C030
C030
6060
6060
30C0
0F00
ENDCHAR
STARTCHAR omacron
ENCODING 333
SWIDTH 500 0
DWIDTH 9 0
BBX 8 12 0 0
BITMAP
3E
3E
00
3C
66
C3
C3
C3
C3
C3
66
3C
ENDCHAR
STARTCHAR Obreve
ENCODING 334
SWIDTH 722 0
DWIDTH 14 0
BBX 12 17 1 0
BITMAP
0880
0D80
0700
0000
0F00
30C0
6060
6060
C030
C030
C030
C030
C030
6060
6060
30C0
0F00
ENDCHAR
STARTCHAR obreve
ENCODING 335
SWIDTH 500 0
DWIDTH 9 0
BBX 8 13 0 0
BITMAP
22
36
1C
00
3C
66
C3
C3
C3
C3
C3
66
3C
ENDCHAR
STARTCHAR Ohungarumlaut
ENCODING 336
SWIDTH 722 0
DWIDTH 14 0
BBX 12 17 1 0
BITMAP
06C0
0480
0900
0000
0F00
30C0
6060
6060
C030
C030
C030
C030
C030
6060
6060
30C0
0F00
ENDCHAR
STARTCHAR ohungarumlaut
ENCODING 337
SWIDTH 500 0
DWIDTH 9 0
BBX 8 13 0 0
BITMAP
1B
12
24
00
3C
66
C3
C3
C3
C3
C3
66
3C
ENDCHAR
STARTCHAR OE
ENCODING 338
SWIDTH 889 0
DWIDTH 17 0
BBX 15 13 1 0
BITMAP
0FFE
3186
6182
6180
C180
C184
C1FC
C184
C180
6180
6182
3186
0FFE
ENDCHAR
STARTCHAR oe
ENCODING 339
SWIDTH 722 0
DWIDTH 13 0
BBX 12 9 0 0
BITMAP
39E0
6730
C610
C7F0
C600
C600
C600
6730
39E0
ENDCHAR
STARTCHAR Racute
ENCODING 340
SWIDTH 667 0
DWIDTH 13 0
BBX 11 17 1 0
BITMAP
0300
0600
0800
0000
FF00
6380
6180
6180
6180
6300
7E00
6E00
6600
6300
6180
60C0
F0E0
ENDCHAR
STARTCHAR racute
ENCODING 341
SWIDTH 333 0
DWIDTH 7 0
BBX 6 13 0 0
BITMAP
0C
18
20
00
6C
EC
70
60
60
60
60
60
F0
ENDCHAR
STARTCHAR Rcommaaccent
ENCODING 342
SWIDTH 667 0
DWIDTH 13 0
BBX 11 19 1 -6
BITMAP
FF00
6380
6180
6180
6180
6300
7E00
6E00
6600
6300
6180
60C0
F0E0
0000
0C00
0C00
0400
0C00
1800
ENDCHAR
STARTCHAR rcommaaccent
ENCODING 343
SWIDTH 333 0
DWIDTH 7 0
BBX 6 15 0 -6
BITMAP
6C
EC
70
60
60
60
60
60
F0
00
30
30
10
30
60
ENDCHAR
STARTCHAR Rcaron
ENCODING 344
SWIDTH 667 0
DWIDTH 13 0
BBX 11 17 1 0
BITMAP
3600
1C00
0800
0000
FF00
6380
6180
6180
6180
6300
7E00
6E00
6600
6300
6180
60C0
F0E0
ENDCHAR
STARTCHAR rcaron
ENCODING 345
SWIDTH 333 0
DWIDTH 7 0
BBX 6 13 0 0
BITMAP
6C
38
10
00
6C
EC
70
60
60
60
60
60
F0
ENDCHAR
STARTCHAR Sacute
ENCODING 346
SWIDTH 556 0
DWIDTH 11 0
BBX 8 17 2 0
BITMAP
06
0C
10
00
3A
46
C2
C0
E0
78
3C
0E
07
03
83
C6
B8
ENDCHAR
STARTCHAR sacute
ENCODING 347
SWIDTH 389 0
DWIDTH 7 0
BBX 6 13 1 0
BITMAP
0C
18
20
00
68
98
C8
E0
70
38
98
C8
B0
ENDCHAR
STARTCHAR Scircumflex
ENCODING 348
SWIDTH 556 0
DWIDTH 11 0
BBX 8 17 2 0
BITMAP
10
38
6C
00
3A
46
C2
C0
E0
78
3C
0E
07
03
83
C6
B8
ENDCHAR
STARTCHAR scircumflex
ENCODING 349
SWIDTH 389 0
DWIDTH 7 0
BBX 5 13 1 0
BITMAP
20
70
D8
00
68
98
C8
E0
70
38
98
C8
B0
ENDCHAR
STARTCHAR Scedilla
ENCODING 350
SWIDTH 556 0
DWIDTH 11 0
BBX 8 17 2 -4
BITMAP
3A
46
C2
C0
E0
78
3C
0E
07
03
83
C6
B8
08
04
2C
1C
ENDCHAR
STARTCHAR scedilla
ENCODING 351
SWIDTH 389 0
DWIDTH 7 0
BBX 5 13 1 -4
BITMAP
68
98
C8
E0
70
38
98
C8
B0
20
10
B0
70
ENDCHAR
STARTCHAR Scaron
ENCODING 352
SWIDTH 556 0
DWIDTH 11 0
BBX 8 17 2 0
BITMAP
6C
38
10
00
3A
46
C2
C0
E0
78
3C
0E
07
03
83
C6
B8
ENDCHAR
STARTCHAR scaron
ENCODING 353
SWIDTH 389 0
DWIDTH 7 0
BBX 5 13 1 0
BITMAP
D8
70
20
00
68
98
C8
E0
70
38
98
C8
B0
ENDCHAR
STARTCHAR Tcommaaccent
ENCODING 354
SWIDTH 611 0
DWIDTH 12 0
BBX 10 17 1 -4
BITMAP
FFC0
CCC0
8C40
0C00
0C00
0C00
0C00
0C00
0C00
0C00
0C00
0C00
1E00
0400
0200
1600
0E00
ENDCHAR
STARTCHAR tcommaaccent
ENCODING 355
SWIDTH 278 0
DWIDTH 6 0
BBX 6 15 0 -4
BITMAP
20
60
F8
60
60
60
60
60
60
74
38
10
08
58
38
ENDCHAR
STARTCHAR Tcaron
ENCODING 356
SWIDTH 611 0
DWIDTH 12 0
BBX 10 17 1 0
BITMAP
1B00
0E00
0400
0000
FFC0
CCC0
8C40
0C00
0C00
0C00
0C00
0C00
0C00
0C00
0C00
0C00
1E00
ENDCHAR
STARTCHAR tcaron
ENCODING 357
SWIDTH 597 0
DWIDTH 11 0
BBX 10 13 0 0
BITMAP
0180
01C0
2040
6080
F800
6000
6000
6000
6000
6000
6000
7400
3800
ENDCHAR
STARTCHAR Tbar
ENCODING 358
SWIDTH 611 0
DWIDTH 12 0
BBX 10 13 1 0
BITMAP
FFC0
CCC0
8C40
0C00
0C00
1E00
1E00
0C00
0C00
0C00
0C00
0C00
1E00
ENDCHAR
STARTCHAR tbar
ENCODING 359
SWIDTH 278 0
DWIDTH 6 0
BBX 6 11 0 0
BITMAP
20
60
F8
60
60
78
78
60
60
74
38
ENDCHAR
STARTCHAR Utilde
ENCODING 360
SWIDTH 722 0
DWIDTH 14 0
BBX 11 17 2 0
BITMAP
1900
3F00
2600
0000
F0E0
6040
6040
6040
6040
6040
6040
6040
6040
6040
70C0
3980
1F00
ENDCHAR
STARTCHAR utilde
ENCODING 361
SWIDTH 500 0
DWIDTH 10 0
BBX 9 13 0 0
BITMAP
3200
7E00
4C00
0000
E700
6300
6300
6300
6300
6300
6300
7700
3B80
ENDCHAR
STARTCHAR Umacron
ENCODING 362
SWIDTH 722 0
DWIDTH 14 0
BBX 11 16 2 0
BITMAP
1F00
1F00
0000
F0E0
6040
6040
6040
6040
6040
6040
6040
6040
6040
70C0
3980
1F00
ENDCHAR
STARTCHAR umacron
ENCODING 363
SWIDTH 500 0
DWIDTH 10 0
BBX 9 12 0 0
BITMAP
3E00
3E00
0000
E700
6300
6300
6300
6300
6300
6300
7700
3B80
ENDCHAR
STARTCHAR Ubreve
ENCODING 364
SWIDTH 722 0
DWIDTH 14 0
BBX 11 17 2 0
BITMAP
1100
1B00
0E00
0000
F0E0
6040
6040
6040
6040
6040
6040
6040
6040
6040
70C0
3980
1F00
ENDCHAR
STARTCHAR ubreve
ENCODING 365
SWIDTH 500 0
DWIDTH 10 0
BBX 9 13 0 0
BITMAP
2200
3600
1C00
0000
E700
6300
6300
6300
6300
6300
6300
7700
3B80
ENDCHAR
STARTCHAR Uring
ENCODING 366
SWIDTH 722 0
DWIDTH 14 0
BBX 11 18 2 0
BITMAP
0C00
1200
1200
0C00
0000
F0E0
6040
6040
6040
6040
6040
6040
6040
6040
6040
70C0
3980
1F00
ENDCHAR
STARTCHAR uring
ENCODING 367
SWIDTH 500 0
DWIDTH 10 0
BBX 9 14 0 0
BITMAP
1800
2400
2400
1800
0000
E700
6300
6300
6300
6300
6300
6300
7700
3B80
ENDCHAR
STARTCHAR Uhungarumlaut
ENCODING 368
SWIDTH 722 0
DWIDTH 14 0
BBX 11 17 2 0
BITMAP
0D80
0900
1200
0000
F0E0
6040
6040
6040
6040
6040
6040
6040
6040
6040
70C0
3980
1F00
ENDCHAR
STARTCHAR uhungarumlaut
ENCODING 369
SWIDTH 500 0
DWIDTH 10 0
BBX 9 13 0 0
BITMAP
1B00
1200
2400
0000
E700
6300
6300
6300
6300
6300
6300
7700
3B80
ENDCHAR
STARTCHAR Uogonek
ENCODING 370
SWIDTH 722 0
DWIDTH 14 0
BBX 11 17 2 -4
BITMAP
F0E0
6040
6040
6040
6040
6040
6040
6040
6040
6040
70C0
3980
1F00
0C00
0800
0F00
0600
ENDCHAR
STARTCHAR uogonek
ENCODING 371
SWIDTH 500 0
DWIDTH 10 0
BBX 9 13 0 -4
BITMAP
E700
6300
6300
6300
6300
6300
6300
7700
3B80
1800
1000
1E00
0C00
ENDCHAR
STARTCHAR Wcircumflex
ENCODING 372
SWIDTH 944 0
DWIDTH 18 0
BBX 18 17 0 0
BITMAP
008000
01C000
036000
000000
F9E3C0
70C180
30C100
38E100
186300
18E200
18E200
1DA600
0D3400
0F3C00
0E3800
061800
061800
ENDCHAR
STARTCHAR wcircumflex
ENCODING 373
SWIDTH 722 0
DWIDTH 14 0
BBX 13 13 0 0
BITMAP
0200
0700
0D80
0000
E738
6630
6260
3660
3760
1D40
1DC0
0880
0880
ENDCHAR
STARTCHAR Ycircumflex
ENCODING 374
SWIDTH 722 0
DWIDTH 14 0
BBX 12 17 1 0
BITMAP
0400
0E00
1B00
0000
F0F0
7060
30C0
1880
1900
0F00
0600
0600
0600
0600
0600
0600
0F00
ENDCHAR
STARTCHAR ycircumflex
ENCODING 375
SWIDTH 500 0
DWIDTH 9 0
BBX 8 17 0 -4
BITMAP
10
38
6C
00
F3
63
72
32
36
1C
1C
0C
08
18
10
F0
E0
ENDCHAR
STARTCHAR Ydieresis
ENCODING 376
SWIDTH 722 0
DWIDTH 14 0
BBX 12 16 1 0
BITMAP
1B00
1B00
0000
F0F0
7060
30C0
1880
1900
0F00
0600
0600
0600
0600
0600
0600
0F00
ENDCHAR
STARTCHAR Zacute
ENCODING 377
SWIDTH 611 0
DWIDTH 12 0
BBX 10 17 1 0
BITMAP
0180
0300
0400
0000
7FC0
61C0
4180
0380
0700
0600
0E00
1C00
3800
3000
7040
E0C0
FFC0
ENDCHAR
STARTCHAR zacute
ENCODING 378
SWIDTH 444 0
DWIDTH 8 0
BBX 7 13 0 0
BITMAP
06
0C
10
00
FE
CE
8C
18
30
30
62
E6
FE
ENDCHAR
STARTCHAR Zdotaccent
ENCODING 379
SWIDTH 611 0
DWIDTH 12 0
BBX 10 16 1 0
BITMAP
0600
0600
0000
7FC0
61C0
4180
0380
0700
0600
0E00
1C00
3800
3000
7040
E0C0
FFC0
ENDCHAR
STARTCHAR zdotaccent
ENCODING 380
SWIDTH 444 0
DWIDTH 8 0
BBX 7 12 0 0
BITMAP
18
18
00
FE
CE
8C
18
30
30
62
E6
FE
ENDCHAR
STARTCHAR Zcaron
ENCODING 381
SWIDTH 611 0
DWIDTH 12 0
BBX 10 17 1 0
BITMAP
3600
1C00
0800
0000
7FC0
61C0
4180
0380
0700
0600
0E00
1C00
3800
3000
7040
E0C0
FFC0
ENDCHAR
STARTCHAR zcaron
ENCODING 382
SWIDTH 444 0
DWIDTH 8 0
BBX 7 13 0 0
BITMAP
6C
38
10
00
FE
CE
8C
18
30
30
62
E6
FE
ENDCHAR
STARTCHAR uni0186
ENCODING 390
SWIDTH 667 0
DWIDTH 13 0
BBX 11 13 1 0
BITMAP
1E00
6380
C0C0
00C0
0060
0060
0060
0060
0060
80C0
C0C0
E180
9E00
ENDCHAR
STARTCHAR uni0189
ENCODING 393
SWIDTH 722 0
DWIDTH 13 0
BBX 12 13 0 0
BITMAP
7F80
31C0
3060
3060
3030
3030
FC30
3030
3030
3060
3060
31C0
7F80
ENDCHAR
STARTCHAR uni018E
ENCODING 398
SWIDTH 611 0
DWIDTH 12 0
BBX 9 13 1 0
BITMAP
FF80
C300
8300
0300
0300
4300
7F00
4300
0300
0300
8300
C300
FF80
ENDCHAR
STARTCHAR florin
ENCODING 402
SWIDTH 500 0
DWIDTH 9 0
BBX 9 17 0 -4
BITMAP
0380
0780
0C00
0C00
0C00
3F00
1800
1800
1800
1800
1800
1800
1800
1000
D000
F000
E000
ENDCHAR
STARTCHAR uni0197
ENCODING 407
SWIDTH 333 0
DWIDTH 6 0
BBX 4 13 1 0
BITMAP
F0
60
60
60
60
F0
F0
60
60
60
60
60
F0
ENDCHAR
STARTCHAR uni019A
ENCODING 410
SWIDTH 278 0
DWIDTH 5 0
BBX 4 13 0 0
BITMAP
60
E0
60
60
60
F0
F0
60
60
60
60
60
F0
ENDCHAR
STARTCHAR uni019D
ENCODING 413
SWIDTH 722 0
DWIDTH 14 0
BBX 13 17 0 -4
BITMAP
7038
3010
3810
3C10
2E10
2610
2710
2390
21D0
30F0
3070
3030
3010
3000
3000
E000
C000
ENDCHAR
STARTCHAR uni019F
ENCODING 415
SWIDTH 722 0
DWIDTH 14 0
BBX 12 13 1 0
BITMAP
0F00
30C0
6060
6060
C030
FFF0
FFF0
C030
C030
6060
6060
30C0
0F00
ENDCHAR
STARTCHAR Ohorn
ENCODING 416
SWIDTH 722 0
DWIDTH 14 0
BBX 14 13 1 0
BITMAP
0F18
30DC
6064
6068
C030
C030
C030
C030
C030
6060
6060
30C0
0F00
ENDCHAR
STARTCHAR ohorn
ENCODING 417
SWIDTH 500 0
DWIDTH 9 0
BBX 11 9 0 0
BITMAP
3CC0
66E0
C320
C340
C300
C300
C300
6600
3C00
ENDCHAR
STARTCHAR uni01A7
ENCODING 423
SWIDTH 556 0
DWIDTH 11 0
BBX 8 13 2 0
BITMAP
5C
62
43
03
07
1E
3C
70
E0
C0
C1
63
1D
ENDCHAR
STARTCHAR uni01A8
ENCODING 424
SWIDTH 389 0
DWIDTH 7 0
BBX 5 9 1 0
BITMAP
B0
C8
98
38
70
E0
C8
98
68
ENDCHAR
STARTCHAR uni01A9
ENCODING 425
SWIDTH 592 0
DWIDTH 11 0
BBX 10 13 0 0
BITMAP
FF80
C180
6080
3000
1800
0C00
0C00
0800
1000
2040
40C0
FF80
FF80
ENDCHAR
STARTCHAR uni01AE
ENCODING 430
SWIDTH 611 0
DWIDTH 12 0
BBX 10 17 1 -4
BITMAP
FFC0
CCC0
8C40
0C00
0C00
0C00
0C00
0C00
0C00
0C00
0C00
0C00
0C00
0C00
0C00
0700
0300
ENDCHAR
STARTCHAR Uhorn
ENCODING 431
SWIDTH 722 0
DWIDTH 14 0
BBX 13 13 2 0
BITMAP
F0F0
6078
6048
6050
6040
6040
6040
6040
6040
6040
70C0
3980
1F00
ENDCHAR
STARTCHAR uhorn
ENCODING 432
SWIDTH 500 0
DWIDTH 10 0
BBX 11 9 0 0
BITMAP
E7C0
63E0
6320
6340
6300
6300
6300
7700
3B80
ENDCHAR
STARTCHAR uni01B1
ENCODING 433
SWIDTH 768 0
DWIDTH 14 0
BBX 13 13 0 0
BITMAP
F8F8
F8F8
8888
38E0
3060
6030
6030
6030
6030
7070
3060
18C0
0700
ENDCHAR
STARTCHAR uni01B5
ENCODING 437
SWIDTH 611 0
DWIDTH 12 0
BBX 10 13 1 0
BITMAP
7FC0
61C0
4180
0380
0700
1E00
1E00
1C00
3800
3000
7040
E0C0
FFC0
ENDCHAR
STARTCHAR uni01B6
ENCODING 438
SWIDTH 444 0
DWIDTH 8 0
BBX 7 9 0 0
BITMAP
FE
CE
8C
3C
3C
30
62
E6
FE
ENDCHAR
STARTCHAR uni01BB
ENCODING 443
SWIDTH 500 0
DWIDTH 9 0
BBX 7 13 1 0
BITMAP
3C
7E
CE
86
06
FE
FE
0C
18
30
62
FE
FE
ENDCHAR
STARTCHAR uni01BC
ENCODING 444
SWIDTH 500 0
DWIDTH 9 0
BBX 7 13 1 0
BITMAP
7E
7C
C0
C0
F0
3C
0C
0E
06
06
0C
DC
F0
ENDCHAR
STARTCHAR uni01C0
ENCODING 448
SWIDTH 200 0
DWIDTH 3 0
BBX 1 13 1 0
BITMAP
80
80
80
80
80
80
80
80
80
80
80
80
80
ENDCHAR
STARTCHAR uni01C2
ENCODING 450
SWIDTH 564 0
DWIDTH 11 0
BBX 9 13 1 -2
BITMAP
0800
0800
0800
0800
FF80
FF80
0800
FF80
FF80
0800
0800
0800
0800
ENDCHAR
STARTCHAR uni01C3
ENCODING 451
SWIDTH 333 0
DWIDTH 4 0
BBX 2 13 1 0
BITMAP
C0
C0
C0
C0
C0
C0
40
40
40
00
00
C0
C0
ENDCHAR
STARTCHAR uni01CD
ENCODING 461
SWIDTH 722 0
DWIDTH 14 0
BBX 13 17 1 0
BITMAP
0D80
0700
0200
0000
0200
0700
0700
0500
0D80
0980
19C0
10C0
1FC0
30E0
2060
6070
F0F8
ENDCHAR
STARTCHAR uni01CE
ENCODING 462
SWIDTH 444 0
DWIDTH 9 0
BBX 7 13 1 0
BITMAP
6C
38
10
00
78
C8
CC
1C
6C
CC
CC
FC
66
ENDCHAR
STARTCHAR uni01CF
ENCODING 463
SWIDTH 333 0
DWIDTH 6 0
BBX 5 17 1 0
BITMAP
D8
70
20
00
F0
60
60
60
60
60
60
60
60
60
60
60
F0
ENDCHAR
STARTCHAR uni01D0
ENCODING 464
SWIDTH 278 0
DWIDTH 5 0
BBX 5 13 -1 0
BITMAP
D8
70
20
00
30
70
30
30
30
30
30
30
78
ENDCHAR
STARTCHAR uni01D1
ENCODING 465
SWIDTH 722 0
DWIDTH 14 0
BBX 12 17 1 0
BITMAP
0D80
0700
0200
0000
0F00
30C0
6060
6060
C030
C030
C030
C030
C030
6060
6060
30C0
0F00
ENDCHAR
STARTCHAR uni01D2
ENCODING 466
SWIDTH 500 0
DWIDTH 9 0
BBX 8 13 0 0
BITMAP
36
1C
08
00
3C
66
C3
C3
C3
C3
C3
66
3C
ENDCHAR
STARTCHAR uni01D3
ENCODING 467
SWIDTH 722 0
DWIDTH 14 0
BBX 11 17 2 0
BITMAP
1B00
0E00
0400
0000
F0E0
6040
6040
6040
6040
6040
6040
6040
6040
6040
70C0
3980
1F00
ENDCHAR
STARTCHAR uni01D4
ENCODING 468
SWIDTH 500 0
DWIDTH 10 0
BBX 9 13 0 0
BITMAP
3600
1C00
0800
0000
E700
6300
6300
6300
6300
6300
6300
7700
3B80
ENDCHAR
STARTCHAR uni01D5
ENCODING 469
SWIDTH 722 0
DWIDTH 14 0
BBX 11 19 2 0
BITMAP
1F00
1F00
0000
1B00
1B00
0000
F0E0
6040
6040
6040
6040
6040
6040
6040
6040
6040
70C0
3980
1F00
ENDCHAR
STARTCHAR uni01D6
ENCODING 470
SWIDTH 500 0
DWIDTH 10 0
BBX 9 15 0 0
BITMAP
3E00
3E00
0000
3600
3600
0000
E700
6300
6300
6300
6300
6300
6300
7700
3B80
ENDCHAR
STARTCHAR uni01D7
ENCODING 471
SWIDTH 722 0
DWIDTH 14 0
BBX 11 20 2 0
BITMAP
0300
0600
0800
0000
1B00
1B00
0000
F0E0
6040
6040
6040
6040
6040
6040
6040
6040
6040
70C0
3980
1F00
ENDCHAR
STARTCHAR uni01D8
ENCODING 472
SWIDTH 500 0
DWIDTH 10 0
BBX 9 16 0 0
BITMAP
0600
0C00
1000
0000
3600
3600
0000
E700
6300
6300
6300
6300
6300
6300
7700
3B80
ENDCHAR
STARTCHAR uni01D9
ENCODING 473
SWIDTH 722 0
DWIDTH 14 0
BBX 11 20 2 0
BITMAP
1B00
0E00
0400
0000
1B00
1B00
0000
F0E0
6040
6040
6040
6040
6040
6040
6040
6040
6040
70C0
3980
1F00
ENDCHAR
STARTCHAR uni01DA
ENCODING 474
SWIDTH 500 0
DWIDTH 10 0
BBX 9 16 0 0
BITMAP
3600
1C00
0800
0000
3600
3600
0000
E700
6300
6300
6300
6300
6300
6300
7700
3B80
ENDCHAR
STARTCHAR uni01DB
ENCODING 475
SWIDTH 722 0
DWIDTH 14 0
BBX 11 20 2 0
BITMAP
3000
1800
0400
0000
1B00
1B00
0000
F0E0
6040
6040
6040
6040
6040
6040
6040
6040
6040
70C0
3980
1F00
ENDCHAR
STARTCHAR uni01DC
ENCODING 476
SWIDTH 500 0
DWIDTH 10 0
BBX 9 16 0 0
BITMAP
6000
3000
0800
0000
3600
3600
0000
E700
6300
6300
6300
6300
6300
6300
7700
3B80
ENDCHAR
STARTCHAR uni01DD
ENCODING 477
SWIDTH 444 0
DWIDTH 8 0
BBX 7 9 0 0
BITMAP
78
CC
06
06
06
FE
86
CC
78
ENDCHAR
STARTCHAR uni01DE
ENCODING 478
SWIDTH 722 0
DWIDTH 14 0
BBX 13 19 1 0
BITMAP
0F80
0F80
0000
0D80
0D80
0000
0200
0700
0700
0500
0D80
0980
19C0
10C0
1FC0
30E0
2060
6070
F0F8
ENDCHAR
STARTCHAR uni01DF
ENCODING 479
SWIDTH 444 0
DWIDTH 9 0
BBX 7 15 1 0
BITMAP
7C
7C
00
6C
6C
00
78
C8
CC
1C
6C
CC
CC
FC
66
ENDCHAR
STARTCHAR uni01E0
ENCODING 480
SWIDTH 722 0
DWIDTH 14 0
BBX 13 19 1 0
BITMAP
0F80
0F80
0000
0300
0300
0000
0200
0700
0700
0500
0D80
0980
19C0
10C0
1FC0
30E0
2060
6070
F0F8
ENDCHAR
STARTCHAR uni01E1
ENCODING 481
SWIDTH 444 0
DWIDTH 9 0
BBX 7 15 1 0
BITMAP
7C
7C
00
30
30
00
78
C8
CC
1C
6C
CC
CC
FC
66
ENDCHAR
STARTCHAR uni01E2
ENCODING 482
SWIDTH 889 0
DWIDTH 17 0
BBX 15 16 1 0
BITMAP
03E0
03E0
0000
0FFC
078C
0584
0580
0D80
0988
19F8
1F88
1180
3180
2182
6186
F7FE
ENDCHAR
STARTCHAR uni01E3
ENCODING 483
SWIDTH 667 0
DWIDTH 12 0
BBX 11 12 0 0
BITMAP
1F00
1F00
0000
7BC0
CE60
CC20
1FE0
6C00
CC00
CC00
FE60
63C0
ENDCHAR
STARTCHAR uni01E4
ENCODING 484
SWIDTH 722 0
DWIDTH 14 0
BBX 12 13 1 0
BITMAP
0F20
30E0
6060
6020
C000
C000
C0F0
C060
C060
60F0
60F0
39C0
0F00
ENDCHAR
STARTCHAR uni01E5
ENCODING 485
SWIDTH 500 0
DWIDTH 9 0
BBX 8 13 0 -4
BITMAP
3E
CC
C4
C4
CC
78
40
7C
FF
FF
C1
E2
7C
ENDCHAR
STARTCHAR Gcaron
ENCODING 486
SWIDTH 722 0
DWIDTH 14 0
BBX 12 17 1 0
BITMAP
0D80
0700
0200
0000
0F20
30E0
6060
6020
C000
C000
C0F0
C060
C060
6060
6060
39C0
0F00
ENDCHAR
STARTCHAR gcaron
ENCODING 487
SWIDTH 500 0
DWIDTH 9 0
BBX 8 17 0 -4
BITMAP
6C
38
10
00
3E
CC
C4
C4
CC
78
40
7C
7F
83
C1
E2
7C
ENDCHAR
STARTCHAR uni01E8
ENCODING 488
SWIDTH 722 0
DWIDTH 14 0
BBX 12 17 1 0
BITMAP
1B00
0E00
0400
0000
F3E0
6180
6300
6600
6C00
7800
7800
7C00
6E00
6700
6380
61C0
F0F0
ENDCHAR
STARTCHAR uni01E9
ENCODING 489
SWIDTH 500 0
DWIDTH 9 0
BBX 10 17 0 0
BITMAP
D800
7000
2000
0000
6000
E000
6000
6000
6700
6200
6400
6800
7800
6C00
6E00
6700
E3C0
ENDCHAR
STARTCHAR uni01EA
ENCODING 490
SWIDTH 722 0
DWIDTH 14 0
BBX 12 17 1 -4
BITMAP
0F00
30C0
6060
6060
C030
C030
C030
C030
C030
6060
6060
30C0
0F00
0600
0400
0780
0300
ENDCHAR
STARTCHAR uni01EB
ENCODING 491
SWIDTH 500 0
DWIDTH 9 0
BBX 8 13 0 -4
BITMAP
3C
66
C3
C3
C3
C3
C3
66
3C
18
10
1E
0C
ENDCHAR
STARTCHAR uni01EC
ENCODING 492
SWIDTH 722 0
DWIDTH 14 0
BBX 12 20 1 -4
BITMAP
0F80
0F80
0000
0F00
30C0
6060
6060
C030
C030
C030
C030
C030
6060
6060
30C0
0F00
0600
0400
0780
0300
ENDCHAR
STARTCHAR uni01ED
ENCODING 493
SWIDTH 500 0
DWIDTH 9 0
BBX 8 16 0 -4
BITMAP
3E
3E
00
3C
66
C3
C3
C3
C3
C3
66
3C
18
10
1E
0C
ENDCHAR
STARTCHAR uni01F0
ENCODING 496
SWIDTH 278 0
DWIDTH 5 0
BBX 5 17 -1 -4
BITMAP
D8
70
20
00
30
70
30
30
30
30
30
30
30
30
30
E0
C0
ENDCHAR
STARTCHAR uni01F4
ENCODING 500
SWIDTH 722 0
DWIDTH 14 0
BBX 12 17 1 0
BITMAP
0180
0300
0400
0000
0F20
30E0
6060
6020
C000
C000
C0F0
C060
C060
6060
6060
39C0
0F00
ENDCHAR
STARTCHAR uni01F5
ENCODING 501
SWIDTH 500 0
DWIDTH 9 0
BBX 8 17 0 -4
BITMAP
06
0C
10
00
3E
CC
C4
C4
CC
78
40
7C
7F
83
C1
E2
7C
ENDCHAR
STARTCHAR uni01F8
ENCODING 504
SWIDTH 722 0
DWIDTH 14 0
BBX 12 17 1 0
BITMAP
3000
1800
0400
0000
E070
6020
7020
7820
5C20
4C20
4E20
4720
43A0
41E0
40E0
4060
E020
ENDCHAR
STARTCHAR uni01F9
ENCODING 505
SWIDTH 500 0
DWIDTH 10 0
BBX 9 13 0 0
BITMAP
6000
3000
0800
0000
6600
EF00
7300
6300
6300
6300
6300
6300
F380
ENDCHAR
STARTCHAR Aringacute
ENCODING 506
SWIDTH 722 0
DWIDTH 14 0
BBX 13 22 1 0
BITMAP
0180
0300
0400
0000
0600
0900
0900
0600
0000
0200
0700
0700
0500
0D80
0980
19C0
10C0
1FC0
30E0
2060
6070
F0F8
ENDCHAR
STARTCHAR aringacute
ENCODING 507
SWIDTH 444 0
DWIDTH 9 0
BBX 7 18 1 0
BITMAP
0C
18
20
00
30
48
48
30
00
78
C8
CC
1C
6C
CC
CC
FC
66
ENDCHAR
STARTCHAR AEacute
ENCODING 508
SWIDTH 889 0
DWIDTH 17 0
BBX 15 17 1 0
BITMAP
0060
00C0
0100
0000
0FFC
078C
0584
0580
0D80
0988
19F8
1F88
1180
3180
2182
6186
F7FE
ENDCHAR
STARTCHAR aeacute
ENCODING 509
SWIDTH 667 0
DWIDTH 12 0
BBX 11 13 0 0
BITMAP
0300
0600
0800
0000
7BC0
CE60
CC20
1FE0
6C00
CC00
CC00
FE60
63C0
ENDCHAR
STARTCHAR Oslashacute
ENCODING 510
SWIDTH 722 0
DWIDTH 14 0
BBX 12 19 1 -1
BITMAP
00C0
0180
0200
0000
0030
0F60
30C0
60E0
61A0
C330
C330
C630
CC30
CC30
5860
7060
30C0
6F00
C000
ENDCHAR
STARTCHAR oslashacute
ENCODING 511
SWIDTH 500 0
DWIDTH 9 0
BBX 8 15 0 -1
BITMAP
03
06
08
00
01
3F
66
CF
CB
DB
D3
F3
66
7C
C0
ENDCHAR
STARTCHAR uni0200
ENCODING 512
SWIDTH 722 0
DWIDTH 14 0
BBX 13 17 1 0
BITMAP
1B00
0900
0480
0000
0200
0700
0700
0500
0D80
0980
19C0
10C0
1FC0
30E0
2060
6070
F0F8
ENDCHAR
STARTCHAR uni0201
ENCODING 513
SWIDTH 444 0
DWIDTH 9 0
BBX 8 13 0 0
BITMAP
D8
48
24
00
3C
64
66
0E
36
66
66
7E
33
ENDCHAR
STARTCHAR uni0202
ENCODING 514
SWIDTH 722 0
DWIDTH 14 0
BBX 13 17 1 0
BITMAP
0700
0D80
0880
0000
0200
0700
0700
0500
0D80
0980
19C0
10C0
1FC0
30E0
2060
6070
F0F8
ENDCHAR
STARTCHAR uni0203
ENCODING 515
SWIDTH 444 0
DWIDTH 9 0
BBX 7 13 1 0
BITMAP
38
6C
44
00
78
C8
CC
1C
6C
CC
CC
FC
66
ENDCHAR
STARTCHAR uni0204
ENCODING 516
SWIDTH 611 0
DWIDTH 12 0
BBX 9 17 1 0
BITMAP
6C00
2400
1200
0000
FF80
6180
6080
6000
6000
6100
7F00
6100
6000
6000
6080
6180
FF80
ENDCHAR
STARTCHAR uni0205
ENCODING 517
SWIDTH 444 0
DWIDTH 8 0
BBX 7 13 0 0
BITMAP
D8
48
24
00
3C
66
C2
FE
C0
C0
C0
66
3C
ENDCHAR
STARTCHAR uni0206
ENCODING 518
SWIDTH 611 0
DWIDTH 12 0
BBX 9 17 1 0
BITMAP
1C00
3600
2200
0000
FF80
6180
6080
6000
6000
6100
7F00
6100
6000
6000
6080
6180
FF80
ENDCHAR
STARTCHAR uni0207
ENCODING 519
SWIDTH 444 0
DWIDTH 8 0
BBX 7 13 0 0
BITMAP
38
6C
44
00
3C
66
C2
FE
C0
C0
C0
66
3C
ENDCHAR
STARTCHAR uni0208
ENCODING 520
SWIDTH 333 0
DWIDTH 6 0
BBX 6 17 -1 0
BITMAP
D8
48
24
00
3C
18
18
18
18
18
18
18
18
18
18
18
3C
ENDCHAR
STARTCHAR uni0209
ENCODING 521
SWIDTH 278 0
DWIDTH 5 0
BBX 6 13 -2 0
BITMAP
D8
48
24
00
18
38
18
18
18
18
18
18
3C
ENDCHAR
STARTCHAR uni020A
ENCODING 522
SWIDTH 333 0
DWIDTH 6 0
BBX 5 17 1 0
BITMAP
70
D8
88
00
F0
60
60
60
60
60
60
60
60
60
60
60
F0
ENDCHAR
STARTCHAR uni020B
ENCODING 523
SWIDTH 278 0
DWIDTH 5 0
BBX 5 13 -1 0
BITMAP
70
D8
88
00
30
70
30
30
30
30
30
30
78
ENDCHAR
STARTCHAR uni020C
ENCODING 524
SWIDTH 722 0
DWIDTH 14 0
BBX 12 17 1 0
BITMAP
3600
1200
0900
0000
0F00
30C0
6060
6060
C030
C030
C030
C030
C030
6060
6060
30C0
0F00
ENDCHAR
STARTCHAR uni020D
ENCODING 525
SWIDTH 500 0
DWIDTH 9 0
BBX 8 13 0 0
BITMAP
D8
48
24
00
3C
66
C3
C3
C3
C3
C3
66
3C
ENDCHAR
STARTCHAR uni020E
ENCODING 526
SWIDTH 722 0
DWIDTH 14 0
BBX 12 17 1 0
BITMAP
0700
0D80
0880
0000
0F00
30C0
6060
6060
C030
C030
C030
C030
C030
6060
6060
30C0
0F00
ENDCHAR
STARTCHAR uni020F
ENCODING 527
SWIDTH 500 0
DWIDTH 9 0
BBX 8 13 0 0
BITMAP
1C
36
22
00
3C
66
C3
C3
C3
C3
C3
66
3C
ENDCHAR
STARTCHAR uni0210
ENCODING 528
SWIDTH 667 0
DWIDTH 13 0
BBX 11 17 1 0
BITMAP
6C00
2400
1200
0000
FF00
6380
6180
6180
6180
6300
7E00
6E00
6600
6300
6180
60C0
F0E0
ENDCHAR
STARTCHAR uni0211
ENCODING 529
SWIDTH 333 0
DWIDTH 7 0
BBX 7 13 -1 0
BITMAP
D8
48
24
00
36
76
38
30
30
30
30
30
78
ENDCHAR
STARTCHAR uni0212
ENCODING 530
SWIDTH 667 0
DWIDTH 13 0
BBX 11 17 1 0
BITMAP
1C00
3600
2200
0000
FF00
6380
6180
6180
6180
6300
7E00
6E00
6600
6300
6180
60C0
F0E0
ENDCHAR
STARTCHAR uni0213
ENCODING 531
SWIDTH 333 0
DWIDTH 7 0
BBX 6 13 0 0
BITMAP
38
6C
44
00
6C
EC
70
60
60
60
60
60
F0
ENDCHAR
STARTCHAR uni0214
ENCODING 532
SWIDTH 722 0
DWIDTH 14 0
BBX 11 17 2 0
BITMAP
6C00
2400
1200
0000
F0E0
6040
6040
6040
6040
6040
6040
6040
6040
6040
70C0
3980
1F00
ENDCHAR
STARTCHAR uni0215
ENCODING 533
SWIDTH 500 0
DWIDTH 10 0
BBX 9 13 0 0
BITMAP
6C00
2400
1200
0000
E700
6300
6300
6300
6300
6300
6300
7700
3B80
ENDCHAR
STARTCHAR uni0216
ENCODING 534
SWIDTH 722 0
DWIDTH 14 0
BBX 11 17 2 0
BITMAP
0E00
1B00
1100
0000
F0E0
6040
6040
6040
6040
6040
6040
6040
6040
6040
70C0
3980
1F00
ENDCHAR
STARTCHAR uni0217
ENCODING 535
SWIDTH 500 0
DWIDTH 10 0
BBX 9 13 0 0
BITMAP
1C00
3600
2200
0000
E700
6300
6300
6300
6300
6300
6300
7700
3B80
ENDCHAR
STARTCHAR Scommaaccent
ENCODING 536
SWIDTH 556 0
DWIDTH 11 0
BBX 8 19 2 -6
BITMAP
3A
46
C2
C0
E0
78
3C
0E
07
03
83
C6
B8
00
18
18
08
18
30
ENDCHAR
STARTCHAR scommaaccent
ENCODING 537
SWIDTH 389 0
DWIDTH 7 0
BBX 5 15 1 -6
BITMAP
68
98
C8
E0
70
38
98
C8
B0
00
30
30
10
30
60
ENDCHAR
STARTCHAR Tcommaaccent
ENCODING 538
SWIDTH 611 0
DWIDTH 12 0
BBX 10 19 1 -6
BITMAP
FFC0
CCC0
8C40
0C00
0C00
0C00
0C00
0C00
0C00
0C00
0C00
0C00
1E00
0000
0C00
0C00
0400
0C00
1800
ENDCHAR
STARTCHAR tcommaaccent
ENCODING 539
SWIDTH 278 0
DWIDTH 6 0
BBX 6 17 0 -6
BITMAP
20
60
F8
60
60
60
60
60
60
74
38
00
30
30
10
30
60
ENDCHAR
STARTCHAR uni021E
ENCODING 542
SWIDTH 722 0
DWIDTH 14 0
BBX 12 17 1 0
BITMAP
0D80
0700
0200
0000
F0F0
6060
6060
6060
6060
6060
7FE0
6060
6060
6060
6060
6060
F0F0
ENDCHAR
STARTCHAR uni021F
ENCODING 543
SWIDTH 500 0
DWIDTH 10 0
BBX 9 17 0 0
BITMAP
D800
7000
2000
0000
6000
E000
6000
6000
6600
6F00
7300
6300
6300
6300
6300
6300
F380
ENDCHAR
STARTCHAR uni0226
ENCODING 550
SWIDTH 722 0
DWIDTH 14 0
BBX 13 16 1 0
BITMAP
0300
0300
0000
0200
0700
0700
0500
0D80
0980
19C0
10C0
1FC0
30E0
2060
6070
F0F8
ENDCHAR
STARTCHAR uni0227
ENCODING 551
SWIDTH 444 0
DWIDTH 9 0
BBX 7 12 1 0
BITMAP
30
30
00
78
C8
CC
1C
6C
CC
CC
FC
66
ENDCHAR
STARTCHAR uni0228
ENCODING 552
SWIDTH 611 0
DWIDTH 12 0
BBX 9 17 1 -4
BITMAP
FF80
6180
6080
6000
6000
6100
7F00
6100
6000
6000
6080
6180
FF80
0800
0400
2C00
1C00
ENDCHAR
STARTCHAR uni0229
ENCODING 553
SWIDTH 444 0
DWIDTH 8 0
BBX 7 13 0 -4
BITMAP
3C
66
C2
FE
C0
C0
C0
66
3C
10
08
58
38
ENDCHAR
STARTCHAR uni022A
ENCODING 554
SWIDTH 722 0
DWIDTH 14 0
BBX 12 19 1 0
BITMAP
1F00
1F00
0000
1B00
1B00
0000
0F00
30C0
6060
6060
C030
C030
C030
C030
C030
6060
6060
30C0
0F00
ENDCHAR
STARTCHAR uni022B
ENCODING 555
SWIDTH 500 0
DWIDTH 9 0
BBX 8 15 0 0
BITMAP
7C
7C
00
6C
6C
00
3C
66
C3
C3
C3
C3
C3
66
3C
ENDCHAR
STARTCHAR uni022C
ENCODING 556
SWIDTH 722 0
DWIDTH 14 0
BBX 12 20 1 0
BITMAP
0F80
0F80
0000
0C80
1F80
1300
0000
0F00
30C0
6060
6060
C030
C030
C030
C030
C030
6060
6060
30C0
0F00
ENDCHAR
STARTCHAR uni022D
ENCODING 557
SWIDTH 500 0
DWIDTH 9 0
BBX 8 16 0 0
BITMAP
3E
3E
00
32
7E
4C
00
3C
66
C3
C3
C3
C3
C3
66
3C
ENDCHAR
STARTCHAR uni022E
ENCODING 558
SWIDTH 722 0
DWIDTH 14 0
BBX 12 16 1 0
BITMAP
0600
0600
0000
0F00
30C0
6060
6060
C030
C030
C030
C030
C030
6060
6060
30C0
0F00
ENDCHAR
STARTCHAR uni022F
ENCODING 559
SWIDTH 500 0
DWIDTH 9 0
BBX 8 12 0 0
BITMAP
18
18
00
3C
66
C3
C3
C3
C3
C3
66
3C
ENDCHAR
STARTCHAR uni0230
ENCODING 560
SWIDTH 722 0
DWIDTH 14 0
BBX 12 19 1 0
BITMAP
0F80
0F80
0000
0600
0600
0000
0F00
30C0
6060
6060
C030
C030
C030
C030
C030
6060
6060
30C0
0F00
ENDCHAR
STARTCHAR uni0231
ENCODING 561
SWIDTH 500 0
DWIDTH 9 0
BBX 8 15 0 0
BITMAP
3E
3E
00
18
18
00
3C
66
C3
C3
C3
C3
C3
66
3C
ENDCHAR
STARTCHAR uni0232
ENCODING 562
SWIDTH 722 0
DWIDTH 14 0
BBX 12 16 1 0
BITMAP
1F00
1F00
0000
F0F0
7060
30C0
1880
1900
0F00
0600
0600
0600
0600
0600
0600
0F00
ENDCHAR
STARTCHAR uni0233
ENCODING 563
SWIDTH 500 0
DWIDTH 9 0
BBX 8 16 0 -4
BITMAP
7C
7C
00
F3
63
72
32
36
1C
1C
0C
08
18
10
F0
E0
ENDCHAR
STARTCHAR uni0250
ENCODING 592
SWIDTH 444 0
DWIDTH 9 0
BBX 7 9 1 0
BITMAP
CC
7E
66
66
6C
70
66
26
3C
ENDCHAR
STARTCHAR uni0254
ENCODING 596
SWIDTH 444 0
DWIDTH 8 0
BBX 7 9 0 0
BITMAP
78
CC
06
06
06
06
06
CC
78
ENDCHAR
STARTCHAR uni0258
ENCODING 600
SWIDTH 444 0
DWIDTH 8 0
BBX 7 9 0 0
BITMAP
78
CC
86
FE
06
06
06
CC
78
ENDCHAR
STARTCHAR uni0259
ENCODING 601
SWIDTH 444 0
DWIDTH 8 0
BBX 7 9 0 0
BITMAP
78
CC
06
06
06
FE
86
CC
78
ENDCHAR
STARTCHAR uni025F
ENCODING 607
SWIDTH 333 0
DWIDTH 6 0
BBX 6 13 0 -4
BITMAP
3C
18
18
18
18
18
18
18
7C
18
10
B0
E0
ENDCHAR
STARTCHAR uni0265
ENCODING 613
SWIDTH 500 0
DWIDTH 10 0
BBX 9 13 0 -4
BITMAP
E780
6300
6300
6300
6300
6300
6700
7B00
3300
0300
0300
0380
0300
ENDCHAR
STARTCHAR uni0275
ENCODING 629
SWIDTH 500 0
DWIDTH 9 0
BBX 8 9 0 0
BITMAP
3C
66
C3
FF
FF
C3
C3
66
3C
ENDCHAR
STARTCHAR uni0279
ENCODING 633
SWIDTH 333 0
DWIDTH 7 0
BBX 6 9 0 0
BITMAP
3C
18
18
18
18
18
38
DC
D8
ENDCHAR
STARTCHAR uni0287
ENCODING 647
SWIDTH 278 0
DWIDTH 6 0
BBX 6 11 0 0
BITMAP
70
B8
18
18
18
18
18
18
7C
18
10
ENDCHAR
STARTCHAR uni0288
ENCODING 648
SWIDTH 278 0
DWIDTH 6 0
BBX 5 15 0 -4
BITMAP
20
60
F8
60
60
60
60
60
60
60
60
60
60
38
18
ENDCHAR
STARTCHAR uni0289
ENCODING 649
SWIDTH 500 0
DWIDTH 10 0
BBX 9 9 0 0
BITMAP
E700
6300
6300
FF80
FF80
6300
6300
7700
3B80
ENDCHAR
STARTCHAR uni028C
ENCODING 652
SWIDTH 500 0
DWIDTH 9 0
BBX 9 9 -1 0
BITMAP
0800
0800
1C00
1400
3600
2600
2300
6300
E780
ENDCHAR
STARTCHAR uni028D
ENCODING 653
SWIDTH 722 0
DWIDTH 14 0
BBX 13 9 0 0
BITMAP
0880
0880
1DC0
15C0
3760
3360
3230
6330
E738
ENDCHAR
STARTCHAR uni028E
ENCODING 654
SWIDTH 500 0
DWIDTH 9 0
BBX 8 13 0 0
BITMAP
07
0F
08
18
10
30
38
38
6C
4C
4E
C6
CF
ENDCHAR
STARTCHAR uni029E
ENCODING 670
SWIDTH 500 0
DWIDTH 9 0
BBX 10 13 0 -4
BITMAP
F1C0
3980
1D80
0D80
0780
0580
0980
1180
3980
0180
0180
01C0
0180
ENDCHAR
STARTCHAR uni02B9
ENCODING 697
SWIDTH 247 0
DWIDTH 5 0
BBX 4 5 1 9
BITMAP
30
70
60
C0
80
ENDCHAR
STARTCHAR uni02BA
ENCODING 698
SWIDTH 411 0
DWIDTH 8 0
BBX 8 5 0 9
BITMAP
33
77
66
CC
88
ENDCHAR
STARTCHAR uni02BB
ENCODING 699
SWIDTH 333 0
DWIDTH 5 0
BBX 3 4 1 9
BITMAP
40
80
E0
60
ENDCHAR
STARTCHAR afii57929
ENCODING 700
SWIDTH 333 0
DWIDTH 5 0
BBX 3 4 1 9
BITMAP
C0
E0
20
40
ENDCHAR
STARTCHAR afii64937
ENCODING 701
SWIDTH 333 0
DWIDTH 5 0
BBX 3 4 1 9
BITMAP
60
E0
80
40
ENDCHAR
STARTCHAR circumflex
ENCODING 710
SWIDTH 333 0
DWIDTH 5 0
BBX 5 3 0 10
BITMAP
20
70
D8
ENDCHAR
STARTCHAR caron
ENCODING 711
SWIDTH 333 0
DWIDTH 6 0
BBX 5 3 0 10
BITMAP
D8
70
20
ENDCHAR
STARTCHAR uni02C8
ENCODING 712
SWIDTH 180 0
DWIDTH 4 0
BBX 2 4 1 9
BITMAP
C0
C0
C0
80
ENDCHAR
STARTCHAR macron
ENCODING 713
SWIDTH 333 0
DWIDTH 5 0
BBX 5 2 0 10
BITMAP
F8
F8
ENDCHAR
STARTCHAR uni02CA
ENCODING 714
SWIDTH 333 0
DWIDTH 4 0
BBX 4 3 0 10
BITMAP
30
60
80
ENDCHAR
STARTCHAR uni02CB
ENCODING 715
SWIDTH 333 0
DWIDTH 4 0
BBX 4 3 0 10
BITMAP
C0
60
10
ENDCHAR
STARTCHAR uni02CD
ENCODING 717
SWIDTH 333 0
DWIDTH 5 0
BBX 5 2 0 -3
BITMAP
F8
F8
ENDCHAR
STARTCHAR uni02CE
ENCODING 718
SWIDTH 333 0
DWIDTH 4 0
BBX 4 3 0 -4
BITMAP
C0
60
10
ENDCHAR
STARTCHAR uni02CF
ENCODING 719
SWIDTH 333 0
DWIDTH 4 0
BBX 4 3 0 -4
BITMAP
30
60
80
ENDCHAR
STARTCHAR breve
ENCODING 728
SWIDTH 333 0
DWIDTH 6 0
BBX 5 3 0 10
BITMAP
88
D8
70
ENDCHAR
STARTCHAR dotaccent
ENCODING 729
SWIDTH 333 0
DWIDTH 6 0
BBX 2 2 2 10
BITMAP
C0
C0
ENDCHAR
STARTCHAR ring
ENCODING 730
SWIDTH 333 0
DWIDTH 6 0
BBX 4 4 1 10
BITMAP
60
90
90
60
ENDCHAR
STARTCHAR ogonek
ENCODING 731
SWIDTH 333 0
DWIDTH 6 0
BBX 4 5 1 -4
BITMAP
40
C0
80
F0
60
ENDCHAR
STARTCHAR tilde
ENCODING 732
SWIDTH 333 0
DWIDTH 6 0
BBX 6 3 0 10
BITMAP
64
FC
98
ENDCHAR
STARTCHAR hungarumlaut
ENCODING 733
SWIDTH 333 0
DWIDTH 6 0
BBX 6 3 0 10
BITMAP
6C
48
90
ENDCHAR
STARTCHAR uni02EE
ENCODING 750
SWIDTH 444 0
DWIDTH 9 0
BBX 7 4 1 9
BITMAP
CC
EE
22
44
ENDCHAR
STARTCHAR uni0374
ENCODING 884
SWIDTH 247 0
DWIDTH 5 0
BBX 4 5 1 9
BITMAP
30
70
60
C0
80
ENDCHAR
STARTCHAR uni0375
ENCODING 885
SWIDTH 247 0
DWIDTH 5 0
BBX 4 5 1 -6
BITMAP
10
30
60
E0
C0
ENDCHAR
STARTCHAR uni037E
ENCODING 894
SWIDTH 278 0
DWIDTH 5 0
BBX 3 12 0 -3
BITMAP
60
60
00
00
00
00
00
60
60
20
60
C0
ENDCHAR
STARTCHAR tonos
ENCODING 900
SWIDTH 333 0
DWIDTH 4 0
BBX 4 3 0 10
BITMAP
30
60
80
ENDCHAR
STARTCHAR dieresistonos
ENCODING 901
SWIDTH 333 0
DWIDTH 5 0
BBX 6 6 0 10
BITMAP
0C
18
20
00
D8
D8
ENDCHAR
STARTCHAR Alphatonos
ENCODING 902
SWIDTH 722 0
DWIDTH 14 0
BBX 15 13 -2 0
BITMAP
3080
61C0
81C0
0160
0360
0260
0230
0630
07F8
0418
0C18
0C1C
1E3E
ENDCHAR
STARTCHAR anoteleia
ENCODING 903
SWIDTH 250 0
DWIDTH 4 0
BBX 2 2 1 4
BITMAP
C0
C0
ENDCHAR
STARTCHAR Epsilontonos
ENCODING 904
SWIDTH 611 0
DWIDTH 11 0
BBX 12 13 -2 0
BITMAP
3FF0
6C30
8C10
0C00
0C00
0C20
0FE0
0C20
0C00
0C00
0C10
0C30
1FF0
ENDCHAR
STARTCHAR Etatonos
ENCODING 905
SWIDTH 722 0
DWIDTH 13 0
BBX 14 13 -2 0
BITMAP
3E3C
6C18
8C18
0C18
0C18
0C18
0FF8
0C18
0C18
0C18
0C18
0C18
1E3C
ENDCHAR
STARTCHAR Iotatonos
ENCODING 906
SWIDTH 333 0
DWIDTH 6 0
BBX 8 13 -3 0
BITMAP
3F
66
86
06
06
06
06
06
06
06
06
06
0F
ENDCHAR
STARTCHAR Omicrontonos
ENCODING 908
SWIDTH 722 0
DWIDTH 13 0
BBX 14 13 -2 0
BITMAP
31C0
6630
8C18
1C1C
180C
180C
180C
180C
180C
1C1C
0C18
0630
01C0
ENDCHAR
STARTCHAR Upsilontonos
ENCODING 910
SWIDTH 690 0
DWIDTH 13 0
BBX 15 13 -3 0
BITMAP
3F1E
6E0C
8618
0318
03B0
01E0
01E0
00C0
00C0
00C0
00C0
00C0
01E0
ENDCHAR
STARTCHAR Omegatonos
ENCODING 911
SWIDTH 768 0
DWIDTH 14 0
BBX 16 13 -3 0
BITMAP
30E0
6318
860C
0E0E
0C06
0C06
0C06
0C06
060C
071C
1111
1F1F
1F1F
ENDCHAR
STARTCHAR iotadieresistonos
ENCODING 912
SWIDTH 329 0
DWIDTH 6 0
BBX 5 16 1 0
BITMAP
18
30
40
00
D8
D8
00
60
E0
60
60
60
60
60
68
70
ENDCHAR
STARTCHAR Alpha
ENCODING 913
SWIDTH 722 0
DWIDTH 14 0
BBX 12 13 1 0
BITMAP
0400
0E00
0E00
0B00
1B00
1300
1180
3180
3FC0
20C0
60C0
60E0
F1F0
ENDCHAR
STARTCHAR Beta
ENCODING 914
SWIDTH 667 0
DWIDTH 11 0
BBX 9 13 1 0
BITMAP
FC00
6600
6300
6300
6300
6600
7E00
6300
6180
6180
6180
6380
FF00
ENDCHAR
STARTCHAR Gamma
ENCODING 915
SWIDTH 603 0
DWIDTH 11 0
BBX 10 13 0 0
BITMAP
FFC0
70C0
3040
3000
3000
3000
3000
3000
3000
3000
3000
3000
7800
ENDCHAR
STARTCHAR Delta
ENCODING 916
SWIDTH 612 0
DWIDTH 11 0
BBX 11 13 0 0
BITMAP
0400
0600
0E00
0B00
1300
1300
1180
2180
21C0
40C0
40C0
8060
FFE0
ENDCHAR
STARTCHAR Epsilon
ENCODING 917
SWIDTH 611 0
DWIDTH 11 0
BBX 9 13 1 0
BITMAP
FF80
6180
6080
6000
6000
6100
7F00
6100
6000
6000
6080
6180
FF80
ENDCHAR
STARTCHAR Zeta
ENCODING 918
SWIDTH 611 0
DWIDTH 11 0
BBX 9 13 1 0
BITMAP
FF80
C380
8300
0700
0600
0E00
1C00
1800
3800
7000
6080
E180
FF80
ENDCHAR
STARTCHAR Eta
ENCODING 919
SWIDTH 722 0
DWIDTH 13 0
BBX 11 13 1 0
BITMAP
F1E0
60C0
60C0
60C0
60C0
60C0
7FC0
60C0
60C0
60C0
60C0
60C0
F1E0
ENDCHAR
STARTCHAR Theta
ENCODING 920
SWIDTH 741 0
DWIDTH 13 0
BBX 11 13 1 0
BITMAP
0E00
3180
60C0
E0E0
C060
D160
DF60
D160
C060
E0E0
60C0
3180
0E00
ENDCHAR
STARTCHAR Iota
ENCODING 921
SWIDTH 333 0
DWIDTH 6 0
BBX 4 13 1 0
BITMAP
F0
60
60
60
60
60
60
60
60
60
60
60
F0
ENDCHAR
STARTCHAR Kappa
ENCODING 922
SWIDTH 722 0
DWIDTH 14 0
BBX 11 13 1 0
BITMAP
F3C0
6180
6300
6600
6C00
7800
7800
6C00
6600
6300
6380
61C0
F1E0
ENDCHAR
STARTCHAR Lambda
ENCODING 923
SWIDTH 686 0
DWIDTH 13 0
BBX 12 13 0 0
BITMAP
0600
0600
0F00
0B00
0B00
1980
1180
1180
30C0
20C0
2060
6060
F0F0
ENDCHAR
STARTCHAR Mu
ENCODING 924
SWIDTH 889 0
DWIDTH 16 0
BBX 14 13 1 0
BITMAP
E01C
7038
7038
5878
5858
58D8
4C98
4C98
4D98
4718
4718
4318
E23C
ENDCHAR
STARTCHAR Nu
ENCODING 925
SWIDTH 722 0
DWIDTH 13 0
BBX 11 13 1 0
BITMAP
E0E0
7040
7040
5840
4C40
4C40
4640
4340
43C0
41C0
40C0
40C0
E040
ENDCHAR
STARTCHAR Xi
ENCODING 926
SWIDTH 645 0
DWIDTH 12 0
BBX 10 13 1 0
BITMAP
7F80
7F80
4080
0000
2100
3F00
3F00
2100
0000
8040
8040
FFC0
FFC0
ENDCHAR
STARTCHAR Omicron
ENCODING 927
SWIDTH 722 0
DWIDTH 13 0
BBX 11 13 1 0
BITMAP
0E00
3180
60C0
E0E0
C060
C060
C060
C060
C060
E0E0
60C0
3180
0E00
ENDCHAR
STARTCHAR Pi
ENCODING 928
SWIDTH 768 0
DWIDTH 13 0
BBX 11 13 1 0
BITMAP
FFE0
60C0
60C0
60C0
60C0
60C0
60C0
60C0
60C0
60C0
60C0
60C0
F1E0
ENDCHAR
STARTCHAR Rho
ENCODING 929
SWIDTH 556 0
DWIDTH 10 0
BBX 8 13 1 0
BITMAP
FE
67
63
63
63
67
7E
60
60
60
60
60
F0
ENDCHAR
STARTCHAR Sigma
ENCODING 931
SWIDTH 592 0
DWIDTH 11 0
BBX 10 13 0 0
BITMAP
FF80
C180
6080
3000
1800
0C00
0C00
0800
1000
2040
40C0
FF80
FF80
ENDCHAR
STARTCHAR Tau
ENCODING 932
SWIDTH 611 0
DWIDTH 12 0
BBX 10 13 1 0
BITMAP
FFC0
CCC0
8C40
0C00
0C00
0C00
0C00
0C00
0C00
0C00
0C00
0C00
1E00
ENDCHAR
STARTCHAR Upsilon
ENCODING 933
SWIDTH 690 0
DWIDTH 13 0
BBX 12 13 0 0
BITMAP
F8F0
7060
30C0
18C0
1D80
0F00
0F00
0600
0600
0600
0600
0600
0F00
ENDCHAR
STARTCHAR Phi
ENCODING 934
SWIDTH 763 0
DWIDTH 14 0
BBX 12 13 1 0
BITMAP
0F00
0600
1F80
6660
C630
C630
C630
C630
C630
6660
1F80
0600
0F00
ENDCHAR
STARTCHAR Chi
ENCODING 935
SWIDTH 722 0
DWIDTH 14 0
BBX 12 13 1 0
BITMAP
F070
7060
38C0
18C0
1D80
0F00
0600
0F00
1B80
3180
31C0
60E0
E0F0
ENDCHAR
STARTCHAR Psi
ENCODING 936
SWIDTH 795 0
DWIDTH 15 0
BBX 14 13 0 0
BITMAP
C78C
6318
6318
6318
6318
3330
1FE0
0300
0300
0300
0300
0300
0780
ENDCHAR
STARTCHAR Omega
ENCODING 937
SWIDTH 768 0
DWIDTH 14 0
BBX 13 13 0 0
BITMAP
0700
18C0
3060
7070
6030
6030
6030
6030
3060
38E0
8888
F8F8
F8F8
ENDCHAR
STARTCHAR Iotadieresis
ENCODING 938
SWIDTH 333 0
DWIDTH 6 0
BBX 5 16 1 0
BITMAP
D8
D8
00
F0
60
60
60
60
60
60
60
60
60
60
60
F0
ENDCHAR
STARTCHAR Upsilondieresis
ENCODING 939
SWIDTH 690 0
DWIDTH 13 0
BBX 12 16 0 0
BITMAP
1B00
1B00
0000
F8F0
7060
30C0
18C0
1D80
0F00
0F00
0600
0600
0600
0600
0600
0F00
ENDCHAR
STARTCHAR alphatonos
ENCODING 940
SWIDTH 631 0
DWIDTH 12 0
BBX 11 13 1 0
BITMAP
0300
0600
0800
0000
3CC0
6580
C300
C300
C300
C300
C300
6520
38C0
ENDCHAR
STARTCHAR epsilontonos
ENCODING 941
SWIDTH 439 0
DWIDTH 8 0
BBX 6 13 1 0
BITMAP
0C
18
20
00
78
EC
CC
C0
70
C0
C0
E4
78
ENDCHAR
STARTCHAR etatonos
ENCODING 942
SWIDTH 603 0
DWIDTH 11 0
BBX 9 17 1 -4
BITMAP
0300
0600
0800
0000
6700
E980
B180
3180
3180
3180
3180
3180
3180
0180
0180
0180
0180
ENDCHAR
STARTCHAR iotatonos
ENCODING 943
SWIDTH 329 0
DWIDTH 6 0
BBX 5 13 1 0
BITMAP
18
30
40
00
60
E0
60
60
60
60
60
68
70
ENDCHAR
STARTCHAR upsilondieresistonos
ENCODING 944
SWIDTH 576 0
DWIDTH 11 0
BBX 9 16 1 0
BITMAP
0300
0600
0800
0000
3600
3600
0000
6300
F180
B180
3180
3180
3180
3180
3B00
1E00
ENDCHAR
STARTCHAR alpha
ENCODING 945
SWIDTH 631 0
DWIDTH 12 0
BBX 11 9 1 0
BITMAP
3CC0
6580
C300
C300
C300
C300
C300
6520
38C0
ENDCHAR
STARTCHAR beta
ENCODING 946
SWIDTH 549 0
DWIDTH 10 0
BBX 8 18 1 -4
BITMAP
3C
46
C6
C6
C6
CC
C6
C3
C3
C3
C3
C3
E6
DC
C0
C0
C0
C0
ENDCHAR
STARTCHAR gamma
ENCODING 947
SWIDTH 411 0
DWIDTH 8 0
BBX 8 13 0 -4
BITMAP
C3
E3
A3
26
26
16
14
1C
0C
18
18
18
18
ENDCHAR
STARTCHAR delta
ENCODING 948
SWIDTH 494 0
DWIDTH 9 0
BBX 7 14 1 0
BITMAP
38
4C
40
60
30
38
6C
C6
C6
C6
C6
C6
6C
38
ENDCHAR
STARTCHAR epsilon
ENCODING 949
SWIDTH 439 0
DWIDTH 8 0
BBX 6 9 1 0
BITMAP
78
EC
CC
C0
70
C0
C0
E4
78
ENDCHAR
STARTCHAR zeta
ENCODING 950
SWIDTH 494 0
DWIDTH 9 0
BBX 7 19 1 -5
BITMAP
60
86
9E
78
60
40
80
80
80
80
80
80
C0
FC
7E
02
02
1E
1C
ENDCHAR
STARTCHAR eta
ENCODING 951
SWIDTH 603 0
DWIDTH 11 0
BBX 9 13 1 -4
BITMAP
6700
E980
B180
3180
3180
3180
3180
3180
3180
0180
0180
0180
0180
ENDCHAR
STARTCHAR theta
ENCODING 952
SWIDTH 521 0
DWIDTH 10 0
BBX 8 13 1 0
BITMAP
3C
66
C3
C3
C3
C3
FF
C3
C3
C3
C3
66
3C
ENDCHAR
STARTCHAR iota
ENCODING 953
SWIDTH 329 0
DWIDTH 6 0
BBX 5 9 1 0
BITMAP
60
E0
60
60
60
60
60
68
70
ENDCHAR
STARTCHAR kappa
ENCODING 954
SWIDTH 549 0
DWIDTH 10 0
BBX 9 9 0 0
BITMAP
6380
E580
6800
7000
7800
6C00
6600
6300
6180
ENDCHAR
STARTCHAR lambda
ENCODING 955
SWIDTH 549 0
DWIDTH 10 0
BBX 10 14 0 0
BITMAP
3000
7800
4800
0800
0800
0800
1800
1C00
3400
3400
6600
6240
C3C0
C180
ENDCHAR
STARTCHAR mu
ENCODING 956
SWIDTH 500 0
DWIDTH 9 0
BBX 9 13 -1 -4
BITMAP
E700
6300
6300
6300
6300
6300
6300
7700
7B80
4000
4000
6000
6000
ENDCHAR
STARTCHAR nu
ENCODING 957
SWIDTH 521 0
DWIDTH 10 0
BBX 8 9 1 0
BITMAP
C3
C3
61
62
32
34
1C
18
08
ENDCHAR
STARTCHAR xi
ENCODING 958
SWIDTH 493 0
DWIDTH 9 0
BBX 7 19 1 -5
BITMAP
60
8E
FC
20
40
40
7C
78
C0
80
80
80
C0
FC
7E
02
02
1E
1C
ENDCHAR
STARTCHAR omicron
ENCODING 959
SWIDTH 549 0
DWIDTH 10 0
BBX 8 9 1 0
BITMAP
3C
66
C3
C3
C3
C3
C3
66
3C
ENDCHAR
STARTCHAR pi
ENCODING 960
SWIDTH 549 0
DWIDTH 10 0
BBX 9 9 0 0
BITMAP
7F80
FF80
9200
1200
1200
1200
3280
7380
6300
ENDCHAR
STARTCHAR rho
ENCODING 961
SWIDTH 549 0
DWIDTH 10 0
BBX 8 13 1 -4
BITMAP
3C
46
C3
C3
C3
C3
C3
E6
DC
C0
C0
C0
C0
ENDCHAR
STARTCHAR sigma1
ENCODING 962
SWIDTH 439 0
DWIDTH 8 0
BBX 6 13 1 -4
BITMAP
3C
7C
C0
80
80
80
C0
78
3C
04
04
3C
38
ENDCHAR
STARTCHAR sigma
ENCODING 963
SWIDTH 603 0
DWIDTH 11 0
BBX 10 9 1 0
BITMAP
1FC0
7FC0
6600
C300
C300
C300
C300
6600
3C00
ENDCHAR
STARTCHAR tau
ENCODING 964
SWIDTH 439 0
DWIDTH 8 0
BBX 7 9 0 0
BITMAP
7E
FE
90
10
10
10
12
1E
1C
ENDCHAR
STARTCHAR upsilon
ENCODING 965
SWIDTH 576 0
DWIDTH 11 0
BBX 9 9 1 0
BITMAP
6300
F180
B180
3180
3180
3180
3180
3B00
1E00
ENDCHAR
STARTCHAR phi
ENCODING 966
SWIDTH 603 0
DWIDTH 11 0
BBX 9 13 1 -4
BITMAP
6600
CF00
C980
C980
C980
C980
4900
6B00
3E00
0800
0800
0800
0800
ENDCHAR
STARTCHAR chi
ENCODING 967
SWIDTH 549 0
DWIDTH 10 0
BBX 10 13 0 -4
BITMAP
60C0
F1C0
9180
1300
1700
0E00
0C00
1C00
1A00
3200
6240
E3C0
C180
ENDCHAR
STARTCHAR psi
ENCODING 968
SWIDTH 686 0
DWIDTH 13 0
BBX 13 13 0 -4
BITMAP
E238
7270
3260
3260
3260
3260
1AC0
1AC0
0F80
0200
0200
0200
0200
ENDCHAR
STARTCHAR omega
ENCODING 969
SWIDTH 686 0
DWIDTH 12 0
BBX 10 9 1 0
BITMAP
3300
6180
4080
CCC0
CCC0
CCC0
CCC0
6D80
7380
ENDCHAR
STARTCHAR iotadieresis
ENCODING 970
SWIDTH 329 0
DWIDTH 6 0
BBX 5 12 1 0
BITMAP
D8
D8
00
60
E0
60
60
60
60
60
68
70
ENDCHAR
STARTCHAR upsilondieresis
ENCODING 971
SWIDTH 576 0
DWIDTH 11 0
BBX 9 12 1 0
BITMAP
3600
3600
0000
6300
F180
B180
3180
3180
3180
3180
3B00
1E00
ENDCHAR
STARTCHAR omicrontonos
ENCODING 972
SWIDTH 549 0
DWIDTH 10 0
BBX 8 13 1 0
BITMAP
06
0C
10
00
3C
66
C3
C3
C3
C3
C3
66
3C
ENDCHAR
STARTCHAR upsilontonos
ENCODING 973
SWIDTH 576 0
DWIDTH 11 0
BBX 9 13 1 0
BITMAP
0600
0C00
1000
0000
6300
F180
B180
3180
3180
3180
3180
3B00
1E00
ENDCHAR
STARTCHAR omegatonos
ENCODING 974
SWIDTH 686 0
DWIDTH 12 0
BBX 10 13 1 0
BITMAP
0300
0600
0800
0000
3300
6180
4080
CCC0
CCC0
CCC0
CCC0
6D80
7380
ENDCHAR
STARTCHAR theta1
ENCODING 977
SWIDTH 631 0
DWIDTH 12 0
BBX 11 13 1 0
BITMAP
0600
0B00
0980
0580
6380
F180
B1C0
31A0
3180
3180
3180
3B00
1E00
ENDCHAR
STARTCHAR Upsilon1
ENCODING 978
SWIDTH 620 0
DWIDTH 12 0
BBX 11 13 0 0
BITMAP
E1C0
7320
3A60
1C60
0C00
0C00
0C00
0C00
0C00
0C00
0C00
0C00
1E00
ENDCHAR
STARTCHAR uni03D3
ENCODING 979
SWIDTH 620 0
DWIDTH 12 0
BBX 11 17 0 0
BITMAP
0180
0300
0400
0000
E1C0
7320
3A60
1C60
0C00
0C00
0C00
0C00
0C00
0C00
0C00
0C00
1E00
ENDCHAR
STARTCHAR uni03D4
ENCODING 980
SWIDTH 620 0
DWIDTH 12 0
BBX 11 16 0 0
BITMAP
1B00
1B00
0000
E1C0
7320
3A60
1C60
0C00
0C00
0C00
0C00
0C00
0C00
0C00
0C00
1E00
ENDCHAR
STARTCHAR phi1
ENCODING 981
SWIDTH 521 0
DWIDTH 11 0
BBX 9 16 1 -4
BITMAP
0800
0800
0800
3E00
6B00
C980
C980
C980
C980
C980
6B00
3E00
0800
0800
0800
0800
ENDCHAR
STARTCHAR omega1
ENCODING 982
SWIDTH 713 0
DWIDTH 12 0
BBX 11 11 0 0
BITMAP
3FE0
7FE0
9980
30C0
2040
6660
6660
6660
6660
36C0
39C0
ENDCHAR
STARTCHAR uni1E00
ENCODING 7680
SWIDTH 722 0
DWIDTH 14 0
BBX 13 18 1 -5
BITMAP
0200
0700
0700
0500
0D80
0980
19C0
10C0
1FC0
30E0
2060
6070
F0F8
0000
0300
0480
0480
0300
ENDCHAR
STARTCHAR uni1E01
ENCODING 7681
SWIDTH 444 0
DWIDTH 9 0
BBX 7 14 1 -5
BITMAP
78
C8
CC
1C
6C
CC
CC
FC
66
00
30
48
48
30
ENDCHAR
STARTCHAR uni1E02
ENCODING 7682
SWIDTH 667 0
DWIDTH 13 0
BBX 10 16 2 0
BITMAP
0C00
0C00
0000
FF00
6380
6180
6180
6180
6300
7F80
61C0
60C0
60C0
60C0
6180
FF00
ENDCHAR
STARTCHAR uni1E03
ENCODING 7683
SWIDTH 500 0
DWIDTH 9 0
BBX 8 16 0 0
BITMAP
30
30
00
60
E0
60
60
6E
77
63
63
63
63
63
66
5C
ENDCHAR
STARTCHAR uni1E04
ENCODING 7684
SWIDTH 667 0
DWIDTH 13 0
BBX 10 16 2 -3
BITMAP
FF00
6380
6180
6180
6180
6300
7F80
61C0
60C0
60C0
60C0
6180
FF00
0000
0C00
0C00
ENDCHAR
STARTCHAR uni1E05
ENCODING 7685
SWIDTH 500 0
DWIDTH 9 0
BBX 8 16 0 -3
BITMAP
60
E0
60
60
6E
77
63
63
63
63
63
66
5C
00
18
18
ENDCHAR
STARTCHAR uni1E06
ENCODING 7686
SWIDTH 667 0
DWIDTH 13 0
BBX 10 16 2 -3
BITMAP
FF00
6380
6180
6180
6180
6300
7F80
61C0
60C0
60C0
60C0
6180
FF00
0000
3E00
3E00
ENDCHAR
STARTCHAR uni1E07
ENCODING 7687
SWIDTH 500 0
DWIDTH 9 0
BBX 8 16 0 -3
BITMAP
60
E0
60
60
6E
77
63
63
63
63
63
66
5C
00
3E
3E
ENDCHAR
STARTCHAR uni1E08
ENCODING 7688
SWIDTH 667 0
DWIDTH 13 0
BBX 11 21 1 -4
BITMAP
0180
0300
0400
0000
0F20
30E0
6060
6020
C000
C000
C000
C000
C000
6000
6060
38C0
0F00
0400
0200
1600
0E00
ENDCHAR
STARTCHAR uni1E09
ENCODING 7689
SWIDTH 444 0
DWIDTH 8 0
BBX 7 17 0 -4
BITMAP
0C
18
20
00
3C
66
C0
C0
C0
C0
C0
66
3C
10
08
58
38
ENDCHAR
STARTCHAR uni1E0A
ENCODING 7690
SWIDTH 722 0
DWIDTH 14 0
BBX 11 16 2 0
BITMAP
0C00
0C00
0000
FF00
6380
60C0
60C0
6060
6060
6060
6060
6060
60C0
60C0
6380
FF00
ENDCHAR
STARTCHAR uni1E0B
ENCODING 7691
SWIDTH 500 0
DWIDTH 9 0
BBX 8 16 0 0
BITMAP
0C
0C
00
06
0E
06
06
3E
66
C6
C6
C6
C6
C6
66
3F
ENDCHAR
STARTCHAR uni1E0C
ENCODING 7692
SWIDTH 722 0
DWIDTH 14 0
BBX 11 16 2 -3
BITMAP
FF00
6380
60C0
60C0
6060
6060
6060
6060
6060
60C0
60C0
6380
FF00
0000
0C00
0C00
ENDCHAR
STARTCHAR uni1E0D
ENCODING 7693
SWIDTH 500 0
DWIDTH 9 0
BBX 8 16 0 -3
BITMAP
06
0E
06
06
3E
66
C6
C6
C6
C6
C6
66
3F
00
18
18
ENDCHAR
STARTCHAR uni1E0E
ENCODING 7694
SWIDTH 722 0
DWIDTH 14 0
BBX 11 16 2 -3
BITMAP
FF00
6380
60C0
60C0
6060
6060
6060
6060
6060
60C0
60C0
6380
FF00
0000
1F00
1F00
ENDCHAR
STARTCHAR uni1E0F
ENCODING 7695
SWIDTH 500 0
DWIDTH 9 0
BBX 8 16 0 -3
BITMAP
06
0E
06
06
3E
66
C6
C6
C6
C6
C6
66
3F
00
3E
3E
ENDCHAR
STARTCHAR uni1E10
ENCODING 7696
SWIDTH 722 0
DWIDTH 14 0
BBX 11 17 2 -4
BITMAP
FF00
6380
60C0
60C0
6060
6060
6060
6060
6060
60C0
60C0
6380
FF00
0400
0200
1600
0E00
ENDCHAR
STARTCHAR uni1E11
ENCODING 7697
SWIDTH 500 0
DWIDTH 9 0
BBX 8 17 0 -4
BITMAP
06
0E
06
06
3E
66
C6
C6
C6
C6
C6
66
3F
08
04
2C
1C
ENDCHAR
STARTCHAR uni1E12
ENCODING 7698
SWIDTH 722 0
DWIDTH 14 0
BBX 11 17 2 -4
BITMAP
FF00
6380
60C0
60C0
6060
6060
6060
6060
6060
60C0
60C0
6380
FF00
0000
0400
0E00
1B00
ENDCHAR
STARTCHAR uni1E13
ENCODING 7699
SWIDTH 500 0
DWIDTH 9 0
BBX 8 17 0 -4
BITMAP
06
0E
06
06
3E
66
C6
C6
C6
C6
C6
66
3F
00
08
1C
36
ENDCHAR
STARTCHAR uni1E14
ENCODING 7700
SWIDTH 611 0
DWIDTH 12 0
BBX 9 20 1 0
BITMAP
3000
1800
0400
0000
3E00
3E00
0000
FF80
6180
6080
6000
6000
6100
7F00
6100
6000
6000
6080
6180
FF80
ENDCHAR
STARTCHAR uni1E15
ENCODING 7701
SWIDTH 444 0
DWIDTH 8 0
BBX 7 16 0 0
BITMAP
60
30
08
00
7C
7C
00
3C
66
C2
FE
C0
C0
C0
66
3C
ENDCHAR
STARTCHAR uni1E16
ENCODING 7702
SWIDTH 611 0
DWIDTH 12 0
BBX 9 20 1 0
BITMAP
0300
0600
0800
0000
3E00
3E00
0000
FF80
6180
6080
6000
6000
6100
7F00
6100
6000
6000
6080
6180
FF80
ENDCHAR
STARTCHAR uni1E17
ENCODING 7703
SWIDTH 444 0
DWIDTH 8 0
BBX 7 16 0 0
BITMAP
06
0C
10
00
7C
7C
00
3C
66
C2
FE
C0
C0
C0
66
3C
ENDCHAR
STARTCHAR uni1E18
ENCODING 7704
SWIDTH 611 0
DWIDTH 12 0
BBX 9 17 1 -4
BITMAP
FF80
6180
6080
6000
6000
6100
7F00
6100
6000
6000
6080
6180
FF80
0000
0800
1C00
3600
ENDCHAR
STARTCHAR uni1E19
ENCODING 7705
SWIDTH 444 0
DWIDTH 8 0
BBX 7 13 0 -4
BITMAP
3C
66
C2
FE
C0
C0
C0
66
3C
00
10
38
6C
ENDCHAR
STARTCHAR uni1E1A
ENCODING 7706
SWIDTH 611 0
DWIDTH 12 0
BBX 9 17 1 -4
BITMAP
FF80
6180
6080
6000
6000
6100
7F00
6100
6000
6000
6080
6180
FF80
0000
3200
7E00
4C00
ENDCHAR
STARTCHAR uni1E1B
ENCODING 7707
SWIDTH 444 0
DWIDTH 8 0
BBX 7 13 0 -4
BITMAP
3C
66
C2
FE
C0
C0
C0
66
3C
00
64
FC
98
ENDCHAR
STARTCHAR uni1E1C
ENCODING 7708
SWIDTH 611 0
DWIDTH 12 0
BBX 9 21 1 -4
BITMAP
2200
3600
1C00
0000
FF80
6180
6080
6000
6000
6100
7F00
6100
6000
6000
6080
6180
FF80
0800
0400
2C00
1C00
ENDCHAR
STARTCHAR uni1E1D
ENCODING 7709
SWIDTH 444 0
DWIDTH 8 0
BBX 7 17 0 -4
BITMAP
44
6C
38
00
3C
66
C2
FE
C0
C0
C0
66
3C
10
08
58
38
ENDCHAR
STARTCHAR uni1E1E
ENCODING 7710
SWIDTH 556 0
DWIDTH 11 0
BBX 9 16 1 0
BITMAP
1800
1800
0000
FF80
6180
6080
6000
6000
6100
7F00
6100
6000
6000
6000
6000
F000
ENDCHAR
STARTCHAR uni1E1F
ENCODING 7711
SWIDTH 333 0
DWIDTH 6 0
BBX 6 16 0 0
BITMAP
30
30
00
1C
34
20
60
F8
60
60
60
60
60
60
60
F0
ENDCHAR
STARTCHAR uni1E20
ENCODING 7712
SWIDTH 722 0
DWIDTH 14 0
BBX 12 16 1 0
BITMAP
0F80
0F80
0000
0F20
30E0
6060
6020
C000
C000
C0F0
C060
C060
6060
6060
39C0
0F00
ENDCHAR
STARTCHAR uni1E21
ENCODING 7713
SWIDTH 500 0
DWIDTH 9 0
BBX 8 16 0 -4
BITMAP
7C
7C
00
3E
CC
C4
C4
CC
78
40
7C
7F
83
C1
E2
7C
ENDCHAR
STARTCHAR uni1E22
ENCODING 7714
SWIDTH 722 0
DWIDTH 14 0
BBX 12 16 1 0
BITMAP
0600
0600
0000
F0F0
6060
6060
6060
6060
6060
7FE0
6060
6060
6060
6060
6060
F0F0
ENDCHAR
STARTCHAR uni1E23
ENCODING 7715
SWIDTH 500 0
DWIDTH 10 0
BBX 9 16 0 0
BITMAP
3000
3000
0000
6000
E000
6000
6000
6600
6F00
7300
6300
6300
6300
6300
6300
F380
ENDCHAR
STARTCHAR uni1E24
ENCODING 7716
SWIDTH 722 0
DWIDTH 14 0
BBX 12 16 1 -3
BITMAP
F0F0
6060
6060
6060
6060
6060
7FE0
6060
6060
6060
6060
6060
F0F0
0000
0600
0600
ENDCHAR
STARTCHAR uni1E25
ENCODING 7717
SWIDTH 500 0
DWIDTH 10 0
BBX 9 16 0 -3
BITMAP
6000
E000
6000
6000
6600
6F00
7300
6300
6300
6300
6300
6300
F380
0000
1800
1800
ENDCHAR
STARTCHAR uni1E26
ENCODING 7718
SWIDTH 722 0
DWIDTH 14 0
BBX 12 16 1 0
BITMAP
0D80
0D80
0000
F0F0
6060
6060
6060
6060
6060
7FE0
6060
6060
6060
6060
6060
F0F0
ENDCHAR
STARTCHAR uni1E27
ENCODING 7719
SWIDTH 500 0
DWIDTH 10 0
BBX 9 16 0 0
BITMAP
D800
D800
0000
6000
E000
6000
6000
6600
6F00
7300
6300
6300
6300
6300
6300
F380
ENDCHAR
STARTCHAR uni1E28
ENCODING 7720
SWIDTH 722 0
DWIDTH 14 0
BBX 12 17 1 -4
BITMAP
F0F0
6060
6060
6060
6060
6060
7FE0
6060
6060
6060
6060
6060
F2F0
0200
0100
0B00
0700
ENDCHAR
STARTCHAR uni1E29
ENCODING 7721
SWIDTH 500 0
DWIDTH 10 0
BBX 9 17 0 -4
BITMAP
6000
E000
6000
6000
6600
6F00
7300
6300
6300
6300
6300
6300
FB80
0800
0400
2C00
1C00
ENDCHAR
STARTCHAR uni1E2A
ENCODING 7722
SWIDTH 722 0
DWIDTH 14 0
BBX 12 17 1 -4
BITMAP
F0F0
6060
6060
6060
6060
6060
7FE0
6060
6060
6060
6060
6060
F0F0
0000
0880
0D80
0700
ENDCHAR
STARTCHAR uni1E2B
ENCODING 7723
SWIDTH 500 0
DWIDTH 10 0
BBX 9 17 0 -4
BITMAP
6000
E000
6000
6000
6600
6F00
7300
6300
6300
6300
6300
6300
F380
0000
2200
3600
1C00
ENDCHAR
STARTCHAR uni1E2C
ENCODING 7724
SWIDTH 333 0
DWIDTH 6 0
BBX 6 17 0 -4
BITMAP
78
30
30
30
30
30
30
30
30
30
30
30
78
00
64
FC
98
ENDCHAR
STARTCHAR uni1E2D
ENCODING 7725
SWIDTH 278 0
DWIDTH 5 0
BBX 6 17 -1 -4
BITMAP
30
30
00
00
30
70
30
30
30
30
30
30
78
00
64
FC
98
ENDCHAR
STARTCHAR uni1E2E
ENCODING 7726
SWIDTH 333 0
DWIDTH 6 0
BBX 5 20 1 0
BITMAP
18
30
40
00
D8
D8
00
F0
60
60
60
60
60
60
60
60
60
60
60
F0
ENDCHAR
STARTCHAR uni1E2F
ENCODING 7727
SWIDTH 278 0
DWIDTH 5 0
BBX 5 16 0 0
BITMAP
18
30
40
00
D8
D8
00
60
E0
60
60
60
60
60
60
F0
ENDCHAR
STARTCHAR uni1E30
ENCODING 7728
SWIDTH 722 0
DWIDTH 14 0
BBX 12 17 1 0
BITMAP
0300
0600
0800
0000
F3E0
6180
6300
6600
6C00
7800
7800
7C00
6E00
6700
6380
61C0
F0F0
ENDCHAR
STARTCHAR uni1E31
ENCODING 7729
SWIDTH 500 0
DWIDTH 9 0
BBX 10 17 0 0
BITMAP
0C00
1800
2000
0000
6000
E000
6000
6000
6700
6200
6400
6800
7800
6C00
6E00
6700
E3C0
ENDCHAR
STARTCHAR uni1E32
ENCODING 7730
SWIDTH 722 0
DWIDTH 14 0
BBX 12 16 1 -3
BITMAP
F3E0
6180
6300
6600
6C00
7800
7800
7C00
6E00
6700
6380
61C0
F0F0
0000
0600
0600
ENDCHAR
STARTCHAR uni1E33
ENCODING 7731
SWIDTH 500 0
DWIDTH 9 0
BBX 10 16 0 -3
BITMAP
6000
E000
6000
6000
6700
6200
6400
6800
7800
6C00
6E00
6700
E3C0
0000
0C00
0C00
ENDCHAR
STARTCHAR uni1E34
ENCODING 7732
SWIDTH 722 0
DWIDTH 14 0
BBX 12 16 1 -3
BITMAP
F3E0
6180
6300
6600
6C00
7800
7800
7C00
6E00
6700
6380
61C0
F0F0
0000
1F00
1F00
ENDCHAR
STARTCHAR uni1E35
ENCODING 7733
SWIDTH 500 0
DWIDTH 9 0
BBX 10 16 0 -3
BITMAP
6000
E000
6000
6000
6700
6200
6400
6800
7800
6C00
6E00
6700
E3C0
0000
3E00
3E00
ENDCHAR
STARTCHAR uni1E36
ENCODING 7734
SWIDTH 611 0
DWIDTH 12 0
BBX 10 16 1 -3
BITMAP
F000
6000
6000
6000
6000
6000
6000
6000
6000
6000
6040
60C0
FFC0
0000
0C00
0C00
ENDCHAR
STARTCHAR uni1E37
ENCODING 7735
SWIDTH 278 0
DWIDTH 5 0
BBX 4 16 0 -3
BITMAP
60
E0
60
60
60
60
60
60
60
60
60
60
F0
00
60
60
ENDCHAR
STARTCHAR uni1E38
ENCODING 7736
SWIDTH 611 0
DWIDTH 12 0
BBX 10 19 1 -3
BITMAP
7C00
7C00
0000
F000
6000
6000
6000
6000
6000
6000
6000
6000
6000
6040
60C0
FFC0
0000
0C00
0C00
ENDCHAR
STARTCHAR uni1E39
ENCODING 7737
SWIDTH 278 0
DWIDTH 5 0
BBX 5 19 -1 -3
BITMAP
F8
F8
00
30
70
30
30
30
30
30
30
30
30
30
30
78
00
30
30
ENDCHAR
STARTCHAR uni1E3A
ENCODING 7738
SWIDTH 611 0
DWIDTH 12 0
BBX 10 16 1 -3
BITMAP
F000
6000
6000
6000
6000
6000
6000
6000
6000
6000
6040
60C0
FFC0
0000
3E00
3E00
ENDCHAR
STARTCHAR uni1E3B
ENCODING 7739
SWIDTH 278 0
DWIDTH 5 0
BBX 5 16 0 -3
BITMAP
60
E0
60
60
60
60
60
60
60
60
60
60
F0
00
F8
F8
ENDCHAR
STARTCHAR uni1E3C
ENCODING 7740
SWIDTH 611 0
DWIDTH 12 0
BBX 10 17 1 -4
BITMAP
F000
6000
6000
6000
6000
6000
6000
6000
6000
6000
6040
60C0
FFC0
0000
0800
1C00
3600
ENDCHAR
STARTCHAR uni1E3D
ENCODING 7741
SWIDTH 278 0
DWIDTH 5 0
BBX 5 17 0 -4
BITMAP
60
E0
60
60
60
60
60
60
60
60
60
60
F0
00
20
70
D8
ENDCHAR
STARTCHAR uni1E3E
ENCODING 7742
SWIDTH 889 0
DWIDTH 17 0
BBX 14 17 1 0
BITMAP
00C0
0180
0200
0000
E01C
7038
7038
7878
5858
58D8
5CD8
4C98
4D98
4718
4718
4218
E23C
ENDCHAR
STARTCHAR uni1E3F
ENCODING 7743
SWIDTH 778 0
DWIDTH 15 0
BBX 14 13 0 0
BITMAP
00C0
0180
0200
0000
6630
EF78
7398
6318
6318
6318
6318
6318
F7BC
ENDCHAR
STARTCHAR uni1E40
ENCODING 7744
SWIDTH 889 0
DWIDTH 17 0
BBX 14 16 1 0
BITMAP
0300
0300
0000
E01C
7038
7038
7878
5858
58D8
5CD8
4C98
4D98
4718
4718
4218
E23C
ENDCHAR
STARTCHAR uni1E41
ENCODING 7745
SWIDTH 778 0
DWIDTH 15 0
BBX 14 12 0 0
BITMAP
0300
0300
0000
6630
EF78
7398
6318
6318
6318
6318
6318
F7BC
ENDCHAR
STARTCHAR uni1E42
ENCODING 7746
SWIDTH 889 0
DWIDTH 17 0
BBX 14 16 1 -3
BITMAP
E01C
7038
7038
7878
5858
58D8
5CD8
4C98
4D98
4718
4718
4218
E23C
0000
0300
0300
ENDCHAR
STARTCHAR uni1E43
ENCODING 7747
SWIDTH 778 0
DWIDTH 15 0
BBX 14 12 0 -3
BITMAP
6630
EF78
7398
6318
6318
6318
6318
6318
F7BC
0000
0300
0300
ENDCHAR
STARTCHAR uni1E44
ENCODING 7748
SWIDTH 722 0
DWIDTH 14 0
BBX 12 16 1 0
BITMAP
0C00
0C00
0000
E070
6020
7020
7820
5C20
4C20
4E20
4720
43A0
41E0
40E0
4060
E020
ENDCHAR
STARTCHAR uni1E45
ENCODING 7749
SWIDTH 500 0
DWIDTH 10 0
BBX 9 12 0 0
BITMAP
1800
1800
0000
6600
EF00
7300
6300
6300
6300
6300
6300
F380
ENDCHAR
STARTCHAR uni1E46
ENCODING 7750
SWIDTH 722 0
DWIDTH 14 0
BBX 12 16 1 -3
BITMAP
E070
6020
7020
7820
5C20
4C20
4E20
4720
43A0
41E0
40E0
4060
E020
0000
0600
0600
ENDCHAR
STARTCHAR uni1E47
ENCODING 7751
SWIDTH 500 0
DWIDTH 10 0
BBX 9 12 0 -3
BITMAP
6600
EF00
7300
6300
6300
6300
6300
6300
F380
0000
1800
1800
ENDCHAR
STARTCHAR uni1E48
ENCODING 7752
SWIDTH 722 0
DWIDTH 14 0
BBX 12 16 1 -3
BITMAP
E070
6020
7020
7820
5C20
4C20
4E20
4720
43A0
41E0
40E0
4060
E020
0000
0F80
0F80
ENDCHAR
STARTCHAR uni1E49
ENCODING 7753
SWIDTH 500 0
DWIDTH 10 0
BBX 9 12 0 -3
BITMAP
6600
EF00
7300
6300
6300
6300
6300
6300
F380
0000
3E00
3E00
ENDCHAR
STARTCHAR uni1E4A
ENCODING 7754
SWIDTH 722 0
DWIDTH 14 0
BBX 12 17 1 -4
BITMAP
E070
6020
7020
7820
5C20
4C20
4E20
4720
43A0
41E0
40E0
4060
E020
0000
0200
0700
0D80
ENDCHAR
STARTCHAR uni1E4B
ENCODING 7755
SWIDTH 500 0
DWIDTH 10 0
BBX 9 13 0 -4
BITMAP
6600
EF00
7300
6300
6300
6300
6300
6300
F380
0000
0800
1C00
3600
ENDCHAR
STARTCHAR uni1E4C
ENCODING 7756
SWIDTH 722 0
DWIDTH 14 0
BBX 12 21 1 0
BITMAP
0180
0300
0400
0000
0C80
1F80
1300
0000
0F00
30C0
6060
6060
C030
C030
C030
C030
C030
6060
6060
30C0
0F00
ENDCHAR
STARTCHAR uni1E4D
ENCODING 7757
SWIDTH 500 0
DWIDTH 9 0
BBX 8 17 0 0
BITMAP
06
0C
10
00
32
7E
4C
00
3C
66
C3
C3
C3
C3
C3
66
3C
ENDCHAR
STARTCHAR uni1E4E
ENCODING 7758
SWIDTH 722 0
DWIDTH 14 0
BBX 12 20 1 0
BITMAP
0D80
0D80
0000
0C80
1F80
1300
0000
0F00
30C0
6060
6060
C030
C030
C030
C030
C030
6060
6060
30C0
0F00
ENDCHAR
STARTCHAR uni1E4F
ENCODING 7759
SWIDTH 500 0
DWIDTH 9 0
BBX 8 16 0 0
BITMAP
36
36
00
32
7E
4C
00
3C
66
C3
C3
C3
C3
C3
66
3C
ENDCHAR
STARTCHAR uni1E50
ENCODING 7760
SWIDTH 722 0
DWIDTH 14 0
BBX 12 20 1 0
BITMAP
1800
0C00
0200
0000
0F80
0F80
0000
0F00
30C0
6060
6060
C030
C030
C030
C030
C030
6060
6060
30C0
0F00
ENDCHAR
STARTCHAR uni1E51
ENCODING 7761
SWIDTH 500 0
DWIDTH 9 0
BBX 8 16 0 0
BITMAP
60
30
08
00
3E
3E
00
3C
66
C3
C3
C3
C3
C3
66
3C
ENDCHAR
STARTCHAR uni1E52
ENCODING 7762
SWIDTH 722 0
DWIDTH 14 0
BBX 12 20 1 0
BITMAP
0180
0300
0400
0000
0F80
0F80
0000
0F00
30C0
6060
6060
C030
C030
C030
C030
C030
6060
6060
30C0
0F00
ENDCHAR
STARTCHAR uni1E53
ENCODING 7763
SWIDTH 500 0
DWIDTH 9 0
BBX 8 16 0 0
BITMAP
06
0C
10
00
3E
3E
00
3C
66
C3
C3
C3
C3
C3
66
3C
ENDCHAR
STARTCHAR uni1E54
ENCODING 7764
SWIDTH 556 0
DWIDTH 11 0
BBX 9 17 1 0
BITMAP
0300
0600
0800
0000
FF00
6380
6180
6180
6180
6300
7E00
6000
6000
6000
6000
6000
F000
ENDCHAR
STARTCHAR uni1E55
ENCODING 7765
SWIDTH 500 0
DWIDTH 9 0
BBX 8 17 0 -4
BITMAP
06
0C
10
00
6E
F7
63
63
63
63
63
76
7C
60
60
60
F0
ENDCHAR
STARTCHAR uni1E56
ENCODING 7766
SWIDTH 556 0
DWIDTH 11 0
BBX 9 16 1 0
BITMAP
0C00
0C00
0000
FF00
6380
6180
6180
6180
6300
7E00
6000
6000
6000
6000
6000
F000
ENDCHAR
STARTCHAR uni1E57
ENCODING 7767
SWIDTH 500 0
DWIDTH 9 0
BBX 8 16 0 -4
BITMAP
18
18
00
6E
F7
63
63
63
63
63
76
7C
60
60
60
F0
ENDCHAR
STARTCHAR uni1E58
ENCODING 7768
SWIDTH 667 0
DWIDTH 13 0
BBX 11 16 1 0
BITMAP
0C00
0C00
0000
FF00
6380
6180
6180
6180
6300
7E00
6E00
6600
6300
6180
60C0
F0E0
ENDCHAR
STARTCHAR uni1E59
ENCODING 7769
SWIDTH 333 0
DWIDTH 7 0
BBX 6 12 0 0
BITMAP
30
30
00
6C
EC
70
60
60
60
60
60
F0
ENDCHAR
STARTCHAR uni1E5A
ENCODING 7770
SWIDTH 667 0
DWIDTH 13 0
BBX 11 16 1 -3
BITMAP
FF00
6380
6180
6180
6180
6300
7E00
6E00
6600
6300
6180
60C0
F0E0
0000
0C00
0C00
ENDCHAR
STARTCHAR uni1E5B
ENCODING 7771
SWIDTH 333 0
DWIDTH 7 0
BBX 6 12 0 -3
BITMAP
6C
EC
70
60
60
60
60
60
F0
00
60
60
ENDCHAR
STARTCHAR uni1E5C
ENCODING 7772
SWIDTH 667 0
DWIDTH 13 0
BBX 11 19 1 -3
BITMAP
3E00
3E00
0000
FF00
6380
6180
6180
6180
6300
7E00
6E00
6600
6300
6180
60C0
F0E0
0000
0C00
0C00
ENDCHAR
STARTCHAR uni1E5D
ENCODING 7773
SWIDTH 333 0
DWIDTH 7 0
BBX 6 15 0 -3
BITMAP
F8
F8
00
6C
EC
70
60
60
60
60
60
F0
00
60
60
ENDCHAR
STARTCHAR uni1E5E
ENCODING 7774
SWIDTH 667 0
DWIDTH 13 0
BBX 11 16 1 -3
BITMAP
FF00
6380
6180
6180
6180
6300
7E00
6E00
6600
6300
6180
60C0
F0E0
0000
1F00
1F00
ENDCHAR
STARTCHAR uni1E5F
ENCODING 7775
SWIDTH 333 0
DWIDTH 7 0
BBX 6 12 0 -3
BITMAP
6C
EC
70
60
60
60
60
60
F0
00
F8
F8
ENDCHAR
STARTCHAR uni1E60
ENCODING 7776
SWIDTH 556 0
DWIDTH 11 0
BBX 8 16 2 0
BITMAP
18
18
00
3A
46
C2
C0
E0
78
3C
0E
07
03
83
C6
B8
ENDCHAR
STARTCHAR uni1E61
ENCODING 7777
SWIDTH 389 0
DWIDTH 7 0
BBX 5 12 1 0
BITMAP
30
30
00
68
98
C8
E0
70
38
98
C8
B0
ENDCHAR
STARTCHAR uni1E62
ENCODING 7778
SWIDTH 556 0
DWIDTH 11 0
BBX 8 16 2 -3
BITMAP
3A
46
C2
C0
E0
78
3C
0E
07
03
83
C6
B8
00
18
18
ENDCHAR
STARTCHAR uni1E63
ENCODING 7779
SWIDTH 389 0
DWIDTH 7 0
BBX 5 12 1 -3
BITMAP
68
98
C8
E0
70
38
98
C8
B0
00
60
60
ENDCHAR
STARTCHAR uni1E64
ENCODING 7780
SWIDTH 556 0
DWIDTH 11 0
BBX 8 20 2 0
BITMAP
18
18
00
06
0C
10
00
3A
46
C2
C0
E0
78
3C
0E
07
03
83
C6
B8
ENDCHAR
STARTCHAR uni1E65
ENCODING 7781
SWIDTH 389 0
DWIDTH 7 0
BBX 6 16 1 0
BITMAP
18
18
00
0C
18
20
00
68
98
C8
E0
70
38
98
C8
B0
ENDCHAR
STARTCHAR uni1E66
ENCODING 7782
SWIDTH 556 0
DWIDTH 11 0
BBX 8 20 2 0
BITMAP
18
18
00
6C
38
10
00
3A
46
C2
C0
E0
78
3C
0E
07
03
83
C6
B8
ENDCHAR
STARTCHAR uni1E67
ENCODING 7783
SWIDTH 389 0
DWIDTH 7 0
BBX 5 16 1 0
BITMAP
30
30
00
D8
70
20
00
68
98
C8
E0
70
38
98
C8
B0
ENDCHAR
STARTCHAR uni1E68
ENCODING 7784
SWIDTH 556 0
DWIDTH 11 0
BBX 8 19 2 -3
BITMAP
30
30
00
3A
46
C2
C0
E0
78
3C
0E
07
03
83
C6
B8
00
18
18
ENDCHAR
STARTCHAR uni1E69
ENCODING 7785
SWIDTH 389 0
DWIDTH 7 0
BBX 5 15 1 -3
BITMAP
60
60
00
68
98
C8
E0
70
38
98
C8
B0
00
60
60
ENDCHAR
STARTCHAR uni1E6A
ENCODING 7786
SWIDTH 611 0
DWIDTH 12 0
BBX 10 16 1 0
BITMAP
0C00
0C00
0000
FFC0
CCC0
8C40
0C00
0C00
0C00
0C00
0C00
0C00
0C00
0C00
0C00
1E00
ENDCHAR
STARTCHAR uni1E6B
ENCODING 7787
SWIDTH 278 0
DWIDTH 6 0
BBX 6 14 0 0
BITMAP
30
30
00
20
60
F8
60
60
60
60
60
60
74
38
ENDCHAR
STARTCHAR uni1E6C
ENCODING 7788
SWIDTH 611 0
DWIDTH 12 0
BBX 10 16 1 -3
BITMAP
FFC0
CCC0
8C40
0C00
0C00
0C00
0C00
0C00
0C00
0C00
0C00
0C00
1E00
0000
0C00
0C00
ENDCHAR
STARTCHAR uni1E6D
ENCODING 7789
SWIDTH 278 0
DWIDTH 6 0
BBX 6 14 0 -3
BITMAP
20
60
F8
60
60
60
60
60
60
74
38
00
30
30
ENDCHAR
STARTCHAR uni1E6E
ENCODING 7790
SWIDTH 611 0
DWIDTH 12 0
BBX 10 16 1 -3
BITMAP
FFC0
CCC0
8C40
0C00
0C00
0C00
0C00
0C00
0C00
0C00
0C00
0C00
1E00
0000
1F00
1F00
ENDCHAR
STARTCHAR uni1E6F
ENCODING 7791
SWIDTH 278 0
DWIDTH 6 0
BBX 6 14 0 -3
BITMAP
20
60
F8
60
60
60
60
60
60
74
38
00
7C
7C
ENDCHAR
STARTCHAR uni1E70
ENCODING 7792
SWIDTH 611 0
DWIDTH 12 0
BBX 10 17 1 -4
BITMAP
FFC0
CCC0
8C40
0C00
0C00
0C00
0C00
0C00
0C00
0C00
0C00
0C00
1E00
0000
0400
0E00
1B00
ENDCHAR
STARTCHAR uni1E71
ENCODING 7793
SWIDTH 278 0
DWIDTH 6 0
BBX 6 15 0 -4
BITMAP
20
60
F8
60
60
60
60
60
60
74
38
00
10
38
6C
ENDCHAR
STARTCHAR uni1E72
ENCODING 7794
SWIDTH 722 0
DWIDTH 14 0
BBX 11 16 2 -3
BITMAP
F0E0
6040
6040
6040
6040
6040
6040
6040
6040
6040
70C0
3980
1F00
0000
1B00
1B00
ENDCHAR
STARTCHAR uni1E73
ENCODING 7795
SWIDTH 500 0
DWIDTH 10 0
BBX 9 12 0 -3
BITMAP
E700
6300
6300
6300
6300
6300
6300
7700
3B80
0000
3600
3600
ENDCHAR
STARTCHAR uni1E74
ENCODING 7796
SWIDTH 722 0
DWIDTH 14 0
BBX 11 17 2 -4
BITMAP
F0E0
6040
6040
6040
6040
6040
6040
6040
6040
6040
70C0
3980
1F00
0000
1900
3F00
2600
ENDCHAR
STARTCHAR uni1E75
ENCODING 7797
SWIDTH 500 0
DWIDTH 10 0
BBX 9 13 0 -4
BITMAP
E700
6300
6300
6300
6300
6300
6300
7700
3B80
0000
1900
3F00
2600
ENDCHAR
STARTCHAR uni1E76
ENCODING 7798
SWIDTH 722 0
DWIDTH 14 0
BBX 11 17 2 -4
BITMAP
F0E0
6040
6040
6040
6040
6040
6040
6040
6040
6040
70C0
3980
1F00
0000
0400
0E00
1B00
ENDCHAR
STARTCHAR uni1E77
ENCODING 7799
SWIDTH 500 0
DWIDTH 10 0
BBX 9 13 0 -4
BITMAP
E700
6300
6300
6300
6300
6300
6300
7700
3B80
0000
0800
1C00
3600
ENDCHAR
STARTCHAR uni1E78
ENCODING 7800
SWIDTH 722 0
DWIDTH 14 0
BBX 11 21 2 0
BITMAP
0300
0600
0800
0000
1900
3F00
2600
0000
F0E0
6040
6040
6040
6040
6040
6040
6040
6040
6040
70C0
3980
1F00
ENDCHAR
STARTCHAR uni1E79
ENCODING 7801
SWIDTH 500 0
DWIDTH 10 0
BBX 9 17 0 0
BITMAP
0600
0C00
1000
0000
3200
7E00
4C00
0000
E700
6300
6300
6300
6300
6300
6300
7700
3B80
ENDCHAR
STARTCHAR uni1E7A
ENCODING 7802
SWIDTH 722 0
DWIDTH 14 0
BBX 11 19 2 0
BITMAP
1B00
1B00
0000
1F00
1F00
0000
F0E0
6040
6040
6040
6040
6040
6040
6040
6040
6040
70C0
3980
1F00
ENDCHAR
STARTCHAR uni1E7B
ENCODING 7803
SWIDTH 500 0
DWIDTH 10 0
BBX 9 15 0 0
BITMAP
3600
3600
0000
3E00
3E00
0000
E700
6300
6300
6300
6300
6300
6300
7700
3B80
ENDCHAR
STARTCHAR uni1E7C
ENCODING 7804
SWIDTH 722 0
DWIDTH 14 0
BBX 13 17 0 0
BITMAP
0C80
1F80
1300
0000
F878
7030
3020
3820
1860
1840
1C40
0CC0
0E80
0680
0780
0300
0300
ENDCHAR
STARTCHAR uni1E7D
ENCODING 7805
SWIDTH 500 0
DWIDTH 9 0
BBX 9 13 -1 0
BITMAP
3200
7E00
4C00
0000
F380
6300
6200
3200
3600
1400
1C00
0800
0800
ENDCHAR
STARTCHAR uni1E7E
ENCODING 7806
SWIDTH 722 0
DWIDTH 14 0
BBX 13 16 0 -3
BITMAP
F878
7030
3020
3820
1860
1840
1C40
0CC0
0E80
0680
0780
0300
0300
0000
0300
0300
ENDCHAR
STARTCHAR uni1E7F
ENCODING 7807
SWIDTH 500 0
DWIDTH 9 0
BBX 9 12 -1 -3
BITMAP
F380
6300
6200
3200
3600
1400
1C00
0800
0800
0000
0C00
0C00
ENDCHAR
STARTCHAR Wgrave
ENCODING 7808
SWIDTH 944 0
DWIDTH 18 0
BBX 18 17 0 0
BITMAP
030000
018000
004000
000000
F9E3C0
70C180
30C100
38E100
186300
18E200
18E200
1DA600
0D3400
0F3C00
0E3800
061800
061800
ENDCHAR
STARTCHAR wgrave
ENCODING 7809
SWIDTH 722 0
DWIDTH 14 0
BBX 13 13 0 0
BITMAP
1800
0C00
0200
0000
E738
6630
6260
3660
3760
1D40
1DC0
0880
0880
ENDCHAR
STARTCHAR Wacute
ENCODING 7810
SWIDTH 944 0
DWIDTH 18 0
BBX 18 17 0 0
BITMAP
003000
006000
008000
000000
F9E3C0
70C180
30C100
38E100
186300
18E200
18E200
1DA600
0D3400
0F3C00
0E3800
061800
061800
ENDCHAR
STARTCHAR wacute
ENCODING 7811
SWIDTH 722 0
DWIDTH 14 0
BBX 13 13 0 0
BITMAP
0180
0300
0400
0000
E738
6630
6260
3660
3760
1D40
1DC0
0880
0880
ENDCHAR
STARTCHAR Wdieresis
ENCODING 7812
SWIDTH 944 0
DWIDTH 18 0
BBX 18 16 0 0
BITMAP
036000
036000
000000
F9E3C0
70C180
30C100
38E100
186300
18E200
18E200
1DA600
0D3400
0F3C00
0E3800
061800
061800
ENDCHAR
STARTCHAR wdieresis
ENCODING 7813
SWIDTH 722 0
DWIDTH 14 0
BBX 13 12 0 0
BITMAP
0D80
0D80
0000
E738
6630
6260
3660
3760
1D40
1DC0
0880
0880
ENDCHAR
STARTCHAR uni1E86
ENCODING 7814
SWIDTH 944 0
DWIDTH 18 0
BBX 18 16 0 0
BITMAP
00C000
00C000
000000
F9E3C0
70C180
30C100
38E100
186300
18E200
18E200
1DA600
0D3400
0F3C00
0E3800
061800
061800
ENDCHAR
STARTCHAR uni1E87
ENCODING 7815
SWIDTH 722 0
DWIDTH 14 0
BBX 13 12 0 0
BITMAP
0600
0600
0000
E738
6630
6260
3660
3760
1D40
1DC0
0880
0880
ENDCHAR
STARTCHAR uni1E88
ENCODING 7816
SWIDTH 944 0
DWIDTH 18 0
BBX 18 16 0 -3
BITMAP
F9E3C0
70C180
30C100
38E100
186300
18E200
18E200
1DA600
0D3400
0F3C00
0E3800
061800
061800
000000
00C000
00C000
ENDCHAR
STARTCHAR uni1E89
ENCODING 7817
SWIDTH 722 0
DWIDTH 14 0
BBX 13 12 0 -3
BITMAP
E738
6630
6260
3660
3760
1D40
1DC0
0880
0880
0000
0300
0300
ENDCHAR
STARTCHAR uni1E8A
ENCODING 7818
SWIDTH 722 0
DWIDTH 14 0
BBX 12 16 1 0
BITMAP
0600
0600
0000
F070
7060
38C0
1980
0D00
0E00
0600
0F00
1B00
1180
31C0
60E0
F0F0
ENDCHAR
STARTCHAR uni1E8B
ENCODING 7819
SWIDTH 500 0
DWIDTH 9 0
BBX 9 12 0 0
BITMAP
1800
1800
0000
E180
6300
3600
1C00
1C00
1C00
3600
6300
C380
ENDCHAR
STARTCHAR uni1E8C
ENCODING 7820
SWIDTH 722 0
DWIDTH 14 0
BBX 12 16 1 0
BITMAP
1B00
1B00
0000
F070
7060
38C0
1980
0D00
0E00
0600
0F00
1B00
1180
31C0
60E0
F0F0
ENDCHAR
STARTCHAR uni1E8D
ENCODING 7821
SWIDTH 500 0
DWIDTH 9 0
BBX 9 12 0 0
BITMAP
3600
3600
0000
E180
6300
3600
1C00
1C00
1C00
3600
6300
C380
ENDCHAR
STARTCHAR uni1E8E
ENCODING 7822
SWIDTH 722 0
DWIDTH 14 0
BBX 12 16 1 0
BITMAP
0600
0600
0000
F0F0
7060
30C0
1880
1900
0F00
0600
0600
0600
0600
0600
0600
0F00
ENDCHAR
STARTCHAR uni1E8F
ENCODING 7823
SWIDTH 500 0
DWIDTH 9 0
BBX 8 16 0 -4
BITMAP
18
18
00
F3
63
72
32
36
1C
1C
0C
08
18
10
F0
E0
ENDCHAR
STARTCHAR uni1E90
ENCODING 7824
SWIDTH 611 0
DWIDTH 12 0
BBX 10 17 1 0
BITMAP
0400
0E00
1B00
0000
7FC0
61C0
4180
0380
0700
0600
0E00
1C00
3800
3000
7040
E0C0
FFC0
ENDCHAR
STARTCHAR uni1E91
ENCODING 7825
SWIDTH 444 0
DWIDTH 8 0
BBX 7 13 0 0
BITMAP
10
38
6C
00
FE
CE
8C
18
30
30
62
E6
FE
ENDCHAR
STARTCHAR uni1E92
ENCODING 7826
SWIDTH 611 0
DWIDTH 12 0
BBX 10 16 1 -3
BITMAP
7FC0
61C0
4180
0380
0700
0600
0E00
1C00
3800
3000
7040
E0C0
FFC0
0000
0C00
0C00
ENDCHAR
STARTCHAR uni1E93
ENCODING 7827
SWIDTH 444 0
DWIDTH 8 0
BBX 7 12 0 -3
BITMAP
FE
CE
8C
18
30
30
62
E6
FE
00
30
30
ENDCHAR
STARTCHAR uni1E94
ENCODING 7828
SWIDTH 611 0
DWIDTH 12 0
BBX 10 16 1 -3
BITMAP
7FC0
61C0
4180
0380
0700
0600
0E00
1C00
3800
3000
7040
E0C0
FFC0
0000
3E00
3E00
ENDCHAR
STARTCHAR uni1E95
ENCODING 7829
SWIDTH 444 0
DWIDTH 8 0
BBX 7 12 0 -3
BITMAP
FE
CE
8C
18
30
30
62
E6
FE
00
7C
7C
ENDCHAR
STARTCHAR uni1E96
ENCODING 7830
SWIDTH 500 0
DWIDTH 10 0
BBX 9 16 0 -3
BITMAP
6000
E000
6000
6000
6600
6F00
7300
6300
6300
6300
6300
6300
F380
0000
3E00
3E00
ENDCHAR
STARTCHAR uni1E97
ENCODING 7831
SWIDTH 278 0
DWIDTH 6 0
BBX 6 14 0 0
BITMAP
D8
D8
00
20
60
F8
60
60
60
60
60
60
74
38
ENDCHAR
STARTCHAR uni1E98
ENCODING 7832
SWIDTH 722 0
DWIDTH 14 0
BBX 13 14 0 0
BITMAP
0600
0900
0900
0600
0000
E738
6630
6260
3660
3760
1D40
1DC0
0880
0880
ENDCHAR
STARTCHAR uni1E99
ENCODING 7833
SWIDTH 500 0
DWIDTH 9 0
BBX 8 18 0 -4
BITMAP
18
24
24
18
00
F3
63
72
32
36
1C
1C
0C
08
18
10
F0
E0
ENDCHAR
STARTCHAR uni1EA0
ENCODING 7840
SWIDTH 722 0
DWIDTH 14 0
BBX 13 16 1 -3
BITMAP
0200
0700
0700
0500
0D80
0980
19C0
10C0
1FC0
30E0
2060
6070
F0F8
0000
0300
0300
ENDCHAR
STARTCHAR uni1EA1
ENCODING 7841
SWIDTH 444 0
DWIDTH 9 0
BBX 7 12 1 -3
BITMAP
78
C8
CC
1C
6C
CC
CC
FC
66
00
30
30
ENDCHAR
STARTCHAR uni1EA4
ENCODING 7844
SWIDTH 722 0
DWIDTH 14 0
BBX 13 21 1 0
BITMAP
00C0
0180
0200
0000
0200
0700
0D80
0000
0200
0700
0700
0500
0D80
0980
19C0
10C0
1FC0
30E0
2060
6070
F0F8
ENDCHAR
STARTCHAR uni1EA5
ENCODING 7845
SWIDTH 444 0
DWIDTH 9 0
BBX 7 17 1 0
BITMAP
06
0C
10
00
10
38
6C
00
78
C8
CC
1C
6C
CC
CC
FC
66
ENDCHAR
STARTCHAR uni1EA6
ENCODING 7846
SWIDTH 722 0
DWIDTH 14 0
BBX 13 21 1 0
BITMAP
0C00
0600
0100
0000
0200
0700
0D80
0000
0200
0700
0700
0500
0D80
0980
19C0
10C0
1FC0
30E0
2060
6070
F0F8
ENDCHAR
STARTCHAR uni1EA7
ENCODING 7847
SWIDTH 444 0
DWIDTH 9 0
BBX 7 17 1 0
BITMAP
60
30
08
00
10
38
6C
00
78
C8
CC
1C
6C
CC
CC
FC
66
ENDCHAR
STARTCHAR uni1EAA
ENCODING 7850
SWIDTH 722 0
DWIDTH 14 0
BBX 13 21 1 0
BITMAP
0640
0FC0
0980
0000
0200
0700
0D80
0000
0200
0700
0700
0500
0D80
0980
19C0
10C0
1FC0
30E0
2060
6070
F0F8
ENDCHAR
STARTCHAR uni1EAB
ENCODING 7851
SWIDTH 444 0
DWIDTH 9 0
BBX 7 17 1 0
BITMAP
32
7E
4C
00
10
38
6C
00
78
C8
CC
1C
6C
CC
CC
FC
66
ENDCHAR
STARTCHAR uni1EAC
ENCODING 7852
SWIDTH 722 0
DWIDTH 14 0
BBX 13 20 1 -3
BITMAP
0200
0700
0D80
0000
0200
0700
0700
0500
0D80
0980
19C0
10C0
1FC0
30E0
2060
6070
F0F8
0000
0300
0300
ENDCHAR
STARTCHAR uni1EAD
ENCODING 7853
SWIDTH 444 0
DWIDTH 9 0
BBX 7 16 1 -3
BITMAP
10
38
6C
00
78
C8
CC
1C
6C
CC
CC
FC
66
00
30
30
ENDCHAR
STARTCHAR uni1EAE
ENCODING 7854
SWIDTH 722 0
DWIDTH 14 0
BBX 13 21 1 0
BITMAP
00C0
0180
0200
0000
0880
0D80
0700
0000
0200
0700
0700
0500
0D80
0980
19C0
10C0
1FC0
30E0
2060
6070
F0F8
ENDCHAR
STARTCHAR uni1EAF
ENCODING 7855
SWIDTH 444 0
DWIDTH 9 0
BBX 7 17 1 0
BITMAP
06
0C
10
00
44
6C
38
00
78
C8
CC
1C
6C
CC
CC
FC
66
ENDCHAR
STARTCHAR uni1EB0
ENCODING 7856
SWIDTH 722 0
DWIDTH 14 0
BBX 13 21 1 0
BITMAP
0C00
0600
0100
0000
0880
0D80
0700
0000
0200
0700
0700
0500
0D80
0980
19C0
10C0
1FC0
30E0
2060
6070
F0F8
ENDCHAR
STARTCHAR uni1EB1
ENCODING 7857
SWIDTH 444 0
DWIDTH 9 0
BBX 7 17 1 0
BITMAP
60
30
08
00
44
6C
38
00
78
C8
CC
1C
6C
CC
CC
FC
66
ENDCHAR
STARTCHAR uni1EB4
ENCODING 7860
SWIDTH 722 0
DWIDTH 14 0
BBX 13 21 1 0
BITMAP
0640
0FC0
0980
0000
0880
0D80
0700
0000
0200
0700
0700
0500
0D80
0980
19C0
10C0
1FC0
30E0
2060
6070
F0F8
ENDCHAR
STARTCHAR uni1EB5
ENCODING 7861
SWIDTH 444 0
DWIDTH 9 0
BBX 7 17 1 0
BITMAP
32
7E
4C
00
44
6C
38
00
78
C8
CC
1C
6C
CC
CC
FC
66
ENDCHAR
STARTCHAR uni1EB6
ENCODING 7862
SWIDTH 722 0
DWIDTH 14 0
BBX 13 20 1 -3
BITMAP
0880
0D80
0700
0000
0200
0700
0700
0500
0D80
0980
19C0
10C0
1FC0
30E0
2060
6070
F0F8
0000
0300
0300
ENDCHAR
STARTCHAR uni1EB7
ENCODING 7863
SWIDTH 444 0
DWIDTH 9 0
BBX 7 16 1 -3
BITMAP
44
6C
38
00
78
C8
CC
1C
6C
CC
CC
FC
66
00
30
30
ENDCHAR
STARTCHAR uni1EB8
ENCODING 7864
SWIDTH 611 0
DWIDTH 12 0
BBX 9 16 1 -3
BITMAP
FF80
6180
6080
6000
6000
6100
7F00
6100
6000
6000
6080
6180
FF80
0000
1800
1800
ENDCHAR
STARTCHAR uni1EB9
ENCODING 7865
SWIDTH 444 0
DWIDTH 8 0
BBX 7 12 0 -3
BITMAP
3C
66
C2
FE
C0
C0
C0
66
3C
00
30
30
ENDCHAR
STARTCHAR uni1EBC
ENCODING 7868
SWIDTH 611 0
DWIDTH 12 0
BBX 9 17 1 0
BITMAP
3200
7E00
4C00
0000
FF80
6180
6080
6000
6000
6100
7F00
6100
6000
6000
6080
6180
FF80
ENDCHAR
STARTCHAR uni1EBD
ENCODING 7869
SWIDTH 444 0
DWIDTH 8 0
BBX 7 13 0 0
BITMAP
32
7E
4C
00
3C
66
C2
FE
C0
C0
C0
66
3C
ENDCHAR
STARTCHAR uni1EBE
ENCODING 7870
SWIDTH 611 0
DWIDTH 12 0
BBX 9 21 1 0
BITMAP
0300
0600
0800
0000
0800
1C00
3600
0000
FF80
6180
6080
6000
6000
6100
7F00
6100
6000
6000
6080
6180
FF80
ENDCHAR
STARTCHAR uni1EBF
ENCODING 7871
SWIDTH 444 0
DWIDTH 8 0
BBX 7 17 0 0
BITMAP
06
0C
10
00
10
38
6C
00
3C
66
C2
FE
C0
C0
C0
66
3C
ENDCHAR
STARTCHAR uni1EC0
ENCODING 7872
SWIDTH 611 0
DWIDTH 12 0
BBX 9 21 1 0
BITMAP
3000
1800
0400
0000
0800
1C00
3600
0000
FF80
6180
6080
6000
6000
6100
7F00
6100
6000
6000
6080
6180
FF80
ENDCHAR
STARTCHAR uni1EC1
ENCODING 7873
SWIDTH 444 0
DWIDTH 8 0
BBX 7 17 0 0
BITMAP
60
30
08
00
10
38
6C
00
3C
66
C2
FE
C0
C0
C0
66
3C
ENDCHAR
STARTCHAR uni1EC4
ENCODING 7876
SWIDTH 611 0
DWIDTH 12 0
BBX 9 21 1 0
BITMAP
1900
3F00
2600
0000
0800
1C00
3600
0000
FF80
6180
6080
6000
6000
6100
7F00
6100
6000
6000
6080
6180
FF80
ENDCHAR
STARTCHAR uni1EC5
ENCODING 7877
SWIDTH 444 0
DWIDTH 8 0
BBX 7 17 0 0
BITMAP
32
7E
4C
00
10
38
6C
00
3C
66
C2
FE
C0
C0
C0
66
3C
ENDCHAR
STARTCHAR uni1EC6
ENCODING 7878
SWIDTH 611 0
DWIDTH 12 0
BBX 9 20 1 -3
BITMAP
0800
1C00
3600
0000
FF80
6180
6080
6000
6000
6100
7F00
6100
6000
6000
6080
6180
FF80
0000
1800
1800
ENDCHAR
STARTCHAR uni1EC7
ENCODING 7879
SWIDTH 444 0
DWIDTH 8 0
BBX 7 16 0 -3
BITMAP
10
38
6C
00
3C
66
C2
FE
C0
C0
C0
66
3C
00
30
30
ENDCHAR
STARTCHAR uni1ECA
ENCODING 7882
SWIDTH 333 0
DWIDTH 6 0
BBX 4 16 1 -3
BITMAP
F0
60
60
60
60
60
60
60
60
60
60
60
F0
00
60
60
ENDCHAR
STARTCHAR uni1ECB
ENCODING 7883
SWIDTH 278 0
DWIDTH 5 0
BBX 4 16 0 -3
BITMAP
60
60
00
00
60
E0
60
60
60
60
60
60
F0
00
60
60
ENDCHAR
STARTCHAR uni1ECC
ENCODING 7884
SWIDTH 722 0
DWIDTH 14 0
BBX 12 16 1 -3
BITMAP
0F00
30C0
6060
6060
C030
C030
C030
C030
C030
6060
6060
30C0
0F00
0000
0600
0600
ENDCHAR
STARTCHAR uni1ECD
ENCODING 7885
SWIDTH 500 0
DWIDTH 9 0
BBX 8 12 0 -3
BITMAP
3C
66
C3
C3
C3
C3
C3
66
3C
00
18
18
ENDCHAR
STARTCHAR uni1ED0
ENCODING 7888
SWIDTH 722 0
DWIDTH 14 0
BBX 12 21 1 0
BITMAP
0180
0300
0400
0000
0400
0E00
1B00
0000
0F00
30C0
6060
6060
C030
C030
C030
C030
C030
6060
6060
30C0
0F00
ENDCHAR
STARTCHAR uni1ED1
ENCODING 7889
SWIDTH 500 0
DWIDTH 9 0
BBX 8 17 0 0
BITMAP
06
0C
10
00
10
38
6C
00
3C
66
C3
C3
C3
C3
C3
66
3C
ENDCHAR
STARTCHAR uni1ED2
ENCODING 7890
SWIDTH 722 0
DWIDTH 14 0
BBX 12 21 1 0
BITMAP
1800
0C00
0200
0000
0400
0E00
1B00
0000
0F00
30C0
6060
6060
C030
C030
C030
C030
C030
6060
6060
30C0
0F00
ENDCHAR
STARTCHAR uni1ED3
ENCODING 7891
SWIDTH 500 0
DWIDTH 9 0
BBX 8 17 0 0
BITMAP
60
30
08
00
10
38
6C
00
3C
66
C3
C3
C3
C3
C3
66
3C
ENDCHAR
STARTCHAR uni1ED6
ENCODING 7894
SWIDTH 722 0
DWIDTH 14 0
BBX 12 21 1 0
BITMAP
0C80
1F80
1300
0000
0400
0E00
1B00
0000
0F00
30C0
6060
6060
C030
C030
C030
C030
C030
6060
6060
30C0
0F00
ENDCHAR
STARTCHAR uni1ED7
ENCODING 7895
SWIDTH 500 0
DWIDTH 9 0
BBX 8 17 0 0
BITMAP
32
7E
4C
00
10
38
6C
00
3C
66
C3
C3
C3
C3
C3
66
3C
ENDCHAR
STARTCHAR uni1ED8
ENCODING 7896
SWIDTH 722 0
DWIDTH 14 0
BBX 12 20 1 -3
BITMAP
0200
0700
0D80
0000
0F00
30C0
6060
6060
C030
C030
C030
C030
C030
6060
6060
30C0
0F00
0000
0600
0600
ENDCHAR
STARTCHAR uni1ED9
ENCODING 7897
SWIDTH 500 0
DWIDTH 9 0
BBX 8 16 0 -3
BITMAP
08
1C
36
00
3C
66
C3
C3
C3
C3
C3
66
3C
00
18
18
ENDCHAR
STARTCHAR uni1EDA
ENCODING 7898
SWIDTH 722 0
DWIDTH 14 0
BBX 14 17 1 0
BITMAP
0060
00C0
0100
0000
0F18
30DC
6064
6068
C030
C030
C030
C030
C030
6060
6060
30C0
0F00
ENDCHAR
STARTCHAR uni1EDB
ENCODING 7899
SWIDTH 500 0
DWIDTH 9 0
BBX 11 13 0 0
BITMAP
0180
0300
0400
0000
3CC0
66E0
C320
C340
C300
C300
C300
6600
3C00
ENDCHAR
STARTCHAR uni1EDC
ENCODING 7900
SWIDTH 722 0
DWIDTH 14 0
BBX 14 17 1 0
BITMAP
0600
0300
0080
0000
0F18
30DC
6064
6068
C030
C030
C030
C030
C030
6060
6060
30C0
0F00
ENDCHAR
STARTCHAR uni1EDD
ENCODING 7901
SWIDTH 500 0
DWIDTH 9 0
BBX 11 13 0 0
BITMAP
1800
0C00
0200
0000
3CC0
66E0
C320
C340
C300
C300
C300
6600
3C00
ENDCHAR
STARTCHAR uni1EE0
ENCODING 7904
SWIDTH 722 0
DWIDTH 14 0
BBX 14 17 1 0
BITMAP
0320
07E0
04C0
0000
0F18
30DC
6064
6068
C030
C030
C030
C030
C030
6060
6060
30C0
0F00
ENDCHAR
STARTCHAR uni1EE1
ENCODING 7905
SWIDTH 500 0
DWIDTH 9 0
BBX 11 13 0 0
BITMAP
0C80
1F80
1300
0000
3CC0
66E0
C320
C340
C300
C300
C300
6600
3C00
ENDCHAR
STARTCHAR uni1EE2
ENCODING 7906
SWIDTH 722 0
DWIDTH 14 0
BBX 14 16 1 -3
BITMAP
0F18
30DC
6064
6068
C030
C030
C030
C030
C030
6060
6060
30C0
0F00
0000
0600
0600
ENDCHAR
STARTCHAR uni1EE3
ENCODING 7907
SWIDTH 500 0
DWIDTH 9 0
BBX 11 12 0 -3
BITMAP
3CC0
66E0
C320
C340
C300
C300
C300
6600
3C00
0000
0C00
0C00
ENDCHAR
STARTCHAR uni1EE4
ENCODING 7908
SWIDTH 722 0
DWIDTH 14 0
BBX 11 16 2 -3
BITMAP
F0E0
6040
6040
6040
6040
6040
6040
6040
6040
6040
70C0
3980
1F00
0000
0C00
0C00
ENDCHAR
STARTCHAR uni1EE5
ENCODING 7909
SWIDTH 500 0
DWIDTH 10 0
BBX 9 12 0 -3
BITMAP
E700
6300
6300
6300
6300
6300
6300
7700
3B80
0000
0C00
0C00
ENDCHAR
STARTCHAR uni1EE8
ENCODING 7912
SWIDTH 722 0
DWIDTH 14 0
BBX 13 17 2 0
BITMAP
00C0
0180
0200
0000
F0F0
6078
6048
6050
6040
6040
6040
6040
6040
6040
70C0
3980
1F00
ENDCHAR
STARTCHAR uni1EE9
ENCODING 7913
SWIDTH 500 0
DWIDTH 10 0
BBX 11 13 0 0
BITMAP
0180
0300
0400
0000
E7C0
63E0
6320
6340
6300
6300
6300
7700
3B80
ENDCHAR
STARTCHAR uni1EEA
ENCODING 7914
SWIDTH 722 0
DWIDTH 14 0
BBX 13 17 2 0
BITMAP
0C00
0600
0100
0000
F0F0
6078
6048
6050
6040
6040
6040
6040
6040
6040
70C0
3980
1F00
ENDCHAR
STARTCHAR uni1EEB
ENCODING 7915
SWIDTH 500 0
DWIDTH 10 0
BBX 11 13 0 0
BITMAP
1800
0C00
0200
0000
E7C0
63E0
6320
6340
6300
6300
6300
7700
3B80
ENDCHAR
STARTCHAR uni1EEE
ENCODING 7918
SWIDTH 722 0
DWIDTH 14 0
BBX 13 17 2 0
BITMAP
0640
0FC0
0980
0000
F0F0
6078
6048
6050
6040
6040
6040
6040
6040
6040
70C0
3980
1F00
ENDCHAR
STARTCHAR uni1EEF
ENCODING 7919
SWIDTH 500 0
DWIDTH 10 0
BBX 11 13 0 0
BITMAP
0C80
1F80
1300
0000
E7C0
63E0
6320
6340
6300
6300
6300
7700
3B80
ENDCHAR
STARTCHAR uni1EF0
ENCODING 7920
SWIDTH 722 0
DWIDTH 14 0
BBX 13 16 2 -3
BITMAP
F0F0
6078
6048
6050
6040
6040
6040
6040
6040
6040
70C0
3980
1F00
0000
0600
0600
ENDCHAR
STARTCHAR uni1EF1
ENCODING 7921
SWIDTH 500 0
DWIDTH 10 0
BBX 11 12 0 -3
BITMAP
E7C0
63E0
6320
6340
6300
6300
6300
7700
3B80
0000
0C00
0C00
ENDCHAR
STARTCHAR Ygrave
ENCODING 7922
SWIDTH 722 0
DWIDTH 14 0
BBX 12 17 1 0
BITMAP
1800
0C00
0200
0000
F0F0
7060
30C0
1880
1900
0F00
0600
0600
0600
0600
0600
0600
0F00
ENDCHAR
STARTCHAR ygrave
ENCODING 7923
SWIDTH 500 0
DWIDTH 9 0
BBX 8 17 0 -4
BITMAP
60
30
08
00
F3
63
72
32
36
1C
1C
0C
08
18
10
F0
E0
ENDCHAR
STARTCHAR uni1EF4
ENCODING 7924
SWIDTH 722 0
DWIDTH 14 0
BBX 12 16 1 -3
BITMAP
F0F0
7060
30C0
1880
1900
0F00
0600
0600
0600
0600
0600
0600
0F00
0000
0600
0600
ENDCHAR
STARTCHAR uni1EF5
ENCODING 7925
SWIDTH 500 0
DWIDTH 9 0
BBX 8 16 0 -7
BITMAP
F3
63
72
32
36
1C
1C
0C
08
18
10
F0
E0
00
30
30
ENDCHAR
STARTCHAR uni1EF8
ENCODING 7928
SWIDTH 722 0
DWIDTH 14 0
BBX 12 17 1 0
BITMAP
0C80
1F80
1300
0000
F0F0
7060
30C0
1880
1900
0F00
0600
0600
0600
0600
0600
0600
0F00
ENDCHAR
STARTCHAR uni1EF9
ENCODING 7929
SWIDTH 500 0
DWIDTH 9 0
BBX 8 17 0 -4
BITMAP
32
7E
4C
00
F3
63
72
32
36
1C
1C
0C
08
18
10
F0
E0
ENDCHAR
STARTCHAR uni2000
ENCODING 8192
SWIDTH 500 0
DWIDTH 10 0
BBX 1 1 0 0
BITMAP
00
ENDCHAR
STARTCHAR uni2001
ENCODING 8193
SWIDTH 1000 0
DWIDTH 19 0
BBX 1 1 0 0
BITMAP
00
ENDCHAR
STARTCHAR uni2002
ENCODING 8194
SWIDTH 500 0
DWIDTH 10 0
BBX 1 1 0 0
BITMAP
00
ENDCHAR
STARTCHAR uni2003
ENCODING 8195
SWIDTH 1000 0
DWIDTH 19 0
BBX 1 1 0 0
BITMAP
00
ENDCHAR
STARTCHAR uni2004
ENCODING 8196
SWIDTH 333 0
DWIDTH 6 0
BBX 1 1 0 0
BITMAP
00
ENDCHAR
STARTCHAR uni2005
ENCODING 8197
SWIDTH 250 0
DWIDTH 5 0
BBX 1 1 0 0
BITMAP
00
ENDCHAR
STARTCHAR uni2006
ENCODING 8198
SWIDTH 167 0
DWIDTH 3 0
BBX 1 1 0 0
BITMAP
00
ENDCHAR
STARTCHAR uni2007
ENCODING 8199
SWIDTH 500 0
DWIDTH 9 0
BBX 1 1 0 0
BITMAP
00
ENDCHAR
STARTCHAR uni2008
ENCODING 8200
SWIDTH 250 0
DWIDTH 4 0
BBX 1 1 0 0
BITMAP
00
ENDCHAR
STARTCHAR uni2009
ENCODING 8201
SWIDTH 200 0
DWIDTH 4 0
BBX 1 1 0 0
BITMAP
00
ENDCHAR
STARTCHAR uni200A
ENCODING 8202
SWIDTH 100 0
DWIDTH 2 0
BBX 1 1 0 0
BITMAP
00
ENDCHAR
STARTCHAR uni200B
ENCODING 8203
SWIDTH 0 0
DWIDTH 0 0
BBX 1 1 0 0
BITMAP
00
ENDCHAR
STARTCHAR uni2010
ENCODING 8208
SWIDTH 333 0
DWIDTH 6 0
BBX 5 2 0 3
BITMAP
F8
F8
ENDCHAR
STARTCHAR uni2011
ENCODING 8209
SWIDTH 333 0
DWIDTH 6 0
BBX 5 2 0 3
BITMAP
F8
F8
ENDCHAR
STARTCHAR figuredash
ENCODING 8210
SWIDTH 500 0
DWIDTH 9 0
BBX 9 1 0 4
BITMAP
FF80
ENDCHAR
STARTCHAR endash
ENCODING 8211
SWIDTH 500 0
DWIDTH 9 0
BBX 9 1 0 4
BITMAP
FF80
ENDCHAR
STARTCHAR emdash
ENCODING 8212
SWIDTH 1000 0
DWIDTH 18 0
BBX 18 1 0 4
BITMAP
FFFFC0
ENDCHAR
STARTCHAR afii00208
ENCODING 8213
SWIDTH 1000 0
DWIDTH 18 0
BBX 18 1 0 4
BITMAP
FFFFC0
ENDCHAR
STARTCHAR quoteleft
ENCODING 8216
SWIDTH 333 0
DWIDTH 5 0
BBX 3 4 1 9
BITMAP
40
80
E0
60
ENDCHAR
STARTCHAR quoteright
ENCODING 8217
SWIDTH 333 0
DWIDTH 5 0
BBX 3 4 1 9
BITMAP
C0
E0
20
40
ENDCHAR
STARTCHAR quotesinglbase
ENCODING 8218
SWIDTH 333 0
DWIDTH 5 0
BBX 3 4 1 -2
BITMAP
C0
E0
20
40
ENDCHAR
STARTCHAR quotereversed
ENCODING 8219
SWIDTH 333 0
DWIDTH 5 0
BBX 3 4 1 9
BITMAP
60
E0
80
40
ENDCHAR
STARTCHAR quotedblleft
ENCODING 8220
SWIDTH 444 0
DWIDTH 9 0
BBX 7 4 1 9
BITMAP
44
88
EE
66
ENDCHAR
STARTCHAR quotedblright
ENCODING 8221
SWIDTH 444 0
DWIDTH 9 0
BBX 7 4 1 9
BITMAP
CC
EE
22
44
ENDCHAR
STARTCHAR quotedblbase
ENCODING 8222
SWIDTH 444 0
DWIDTH 9 0
BBX 7 4 1 -2
BITMAP
CC
EE
22
44
ENDCHAR
STARTCHAR uni201F
ENCODING 8223
SWIDTH 444 0
DWIDTH 9 0
BBX 7 4 1 9
BITMAP
66
EE
88
44
ENDCHAR
STARTCHAR dagger
ENCODING 8224
SWIDTH 500 0
DWIDTH 8 0
BBX 6 16 1 -2
BITMAP
30
30
30
30
FC
30
30
30
30
30
30
30
30
30
30
30
ENDCHAR
STARTCHAR daggerdbl
ENCODING 8225
SWIDTH 500 0
DWIDTH 8 0
BBX 6 16 1 -2
BITMAP
30
30
30
30
FC
30
30
30
30
30
30
FC
30
30
30
30
ENDCHAR
STARTCHAR bullet
ENCODING 8226
SWIDTH 350 0
DWIDTH 6 0
BBX 4 5 1 3
BITMAP
60
F0
F0
F0
60
ENDCHAR
STARTCHAR ellipsis
ENCODING 8230
SWIDTH 1000 0
DWIDTH 18 0
BBX 14 2 2 0
BITMAP
C30C
C30C
ENDCHAR
STARTCHAR perthousand
ENCODING 8240
SWIDTH 1000 0
DWIDTH 19 0
BBX 20 13 -1 0
BITMAP
383000
67E000
C44000
C48000
E98000
730000
020000
0670E0
0CC990
098B10
198B10
31D3A0
20E1C0
ENDCHAR
STARTCHAR minute
ENCODING 8242
SWIDTH 247 0
DWIDTH 5 0
BBX 4 5 1 9
BITMAP
30
70
60
C0
80
ENDCHAR
STARTCHAR second
ENCODING 8243
SWIDTH 411 0
DWIDTH 8 0
BBX 8 5 0 9
BITMAP
33
77
66
CC
88
ENDCHAR
STARTCHAR guilsinglleft
ENCODING 8249
SWIDTH 333 0
DWIDTH 6 0
BBX 4 7 1 1
BITMAP
10
30
60
C0
60
30
10
ENDCHAR
STARTCHAR guilsinglright
ENCODING 8250
SWIDTH 333 0
DWIDTH 6 0
BBX 4 7 1 1
BITMAP
80
C0
60
30
60
C0
80
ENDCHAR
STARTCHAR fraction
ENCODING 8260
SWIDTH 167 0
DWIDTH 6 0
BBX 8 13 -1 0
BITMAP
01
03
02
06
0C
08
18
10
30
60
40
C0
80
ENDCHAR
STARTCHAR oneinferior
ENCODING 8321
SWIDTH 300 0
DWIDTH 6 0
BBX 3 8 1 -4
BITMAP
40
C0
40
40
40
40
40
E0
ENDCHAR
STARTCHAR twoinferior
ENCODING 8322
SWIDTH 300 0
DWIDTH 6 0
BBX 5 8 0 -4
BITMAP
70
98
18
10
20
20
40
F8
ENDCHAR
STARTCHAR threeinferior
ENCODING 8323
SWIDTH 300 0
DWIDTH 6 0
BBX 5 8 0 -4
BITMAP
70
88
18
70
18
08
88
70
ENDCHAR
STARTCHAR uni20A5
ENCODING 8357
SWIDTH 778 0
DWIDTH 15 0
BBX 14 17 0 -4
BITMAP
0020
0020
0060
0040
66F0
EFF8
7398
6398
6398
6318
6318
6318
F7BC
0600
0600
0400
0C00
ENDCHAR
STARTCHAR uni20A6
ENCODING 8358
SWIDTH 722 0
DWIDTH 14 0
BBX 12 13 1 0
BITMAP
E070
6020
7020
7820
7FE0
7FE0
4E20
7FE0
7FE0
41E0
40E0
4060
E020
ENDCHAR
STARTCHAR uni20A9
ENCODING 8361
SWIDTH 944 0
DWIDTH 18 0
BBX 18 13 0 0
BITMAP
F9E3C0
70C180
30C100
38E100
1FFF00
1FFE00
18E200
1FFE00
0FFC00
0F3C00
0E3800
061800
061800
ENDCHAR
STARTCHAR Euro
ENCODING 8364
SWIDTH 667 0
DWIDTH 13 0
BBX 13 13 -1 0
BITMAP
03C8
0C38
1818
1808
FF80
FF80
3000
FF80
FF80
1800
1818
0E30
03C0
ENDCHAR
STARTCHAR uni20AD
ENCODING 8365
SWIDTH 722 0
DWIDTH 14 0
BBX 12 13 1 0
BITMAP
F3E0
6180
6300
6600
6C00
FFF0
FFF0
7C00
6E00
6700
6380
61C0
F0F0
ENDCHAR
STARTCHAR uni2103
ENCODING 8451
SWIDTH 1047 0
DWIDTH 20 0
BBX 18 13 1 0
BITMAP
701E40
8861C0
88C0C0
88C040
718000
018000
018000
018000
018000
00C000
00C0C0
007180
001E00
ENDCHAR
STARTCHAR uni2109
ENCODING 8457
SWIDTH 936 0
DWIDTH 18 0
BBX 16 13 1 0
BITMAP
71FF
88C3
88C1
88C0
70C0
00C2
00FE
00C2
00C0
00C0
00C0
00C0
01E0
ENDCHAR
STARTCHAR Ifraktur
ENCODING 8465
SWIDTH 686 0
DWIDTH 13 0
BBX 10 15 1 -1
BITMAP
1FC0
3FC0
6080
4100
4200
2200
1300
0380
01C0
00C0
00C0
70C0
F880
1F00
0E00
ENDCHAR
STARTCHAR weierstrass
ENCODING 8472
SWIDTH 987 0
DWIDTH 14 0
BBX 12 15 1 -4
BITMAP
0C00
1800
31E0
6730
CC30
D830
D630
F660
64E0
77C0
B380
9800
9800
D800
7000
ENDCHAR
STARTCHAR Rfraktur
ENCODING 8476
SWIDTH 795 0
DWIDTH 15 0
BBX 13 14 1 0
BITMAP
79C0
FEE0
8E70
8630
C660
7680
3640
2660
0660
0660
0660
0660
6C78
B830
ENDCHAR
STARTCHAR trademark
ENCODING 8482
SWIDTH 980 0
DWIDTH 17 0
BBX 15 7 1 5
BITMAP
FB8E
A98C
2154
2154
2154
2124
73AE
ENDCHAR
STARTCHAR Omega
ENCODING 8486
SWIDTH 768 0
DWIDTH 14 0
BBX 13 13 0 0
BITMAP
0700
18C0
3060
7070
6030
6030
6030
6030
3060
38E0
8888
F8F8
F8F8
ENDCHAR
STARTCHAR uni2127
ENCODING 8487
SWIDTH 768 0
DWIDTH 14 0
BBX 13 13 0 0
BITMAP
F8F8
F8F8
8888
38E0
3060
6030
6030
6030
6030
7070
3060
18C0
0700
ENDCHAR
STARTCHAR uni212A
ENCODING 8490
SWIDTH 722 0
DWIDTH 14 0
BBX 12 13 1 0
BITMAP
F3E0
6180
6300
6600
6C00
7800
7800
7C00
6E00
6700
6380
61C0
F0F0
ENDCHAR
STARTCHAR uni212B
ENCODING 8491
SWIDTH 722 0
DWIDTH 14 0
BBX 13 18 1 0
BITMAP
0600
0900
0900
0600
0000
0200
0700
0700
0500
0D80
0980
19C0
10C0
1FC0
30E0
2060
6070
F0F8
ENDCHAR
STARTCHAR uni2132
ENCODING 8498
SWIDTH 556 0
DWIDTH 11 0
BBX 9 13 1 0
BITMAP
0780
0300
0300
0300
0300
4300
7F00
4300
0300
0300
8300
C300
FF80
ENDCHAR
STARTCHAR aleph
ENCODING 8501
SWIDTH 823 0
DWIDTH 13 0
BBX 11 13 1 0
BITMAP
C200
E3C0
71E0
38E0
3980
7D00
CF00
C700
E300
7380
31C0
70C0
F040
ENDCHAR
STARTCHAR arrowleft
ENCODING 8592
SWIDTH 987 0
DWIDTH 18 0
BBX 18 8 0 1
BITMAP
180000
300000
600000
FFFFC0
FFFFC0
600000
300000
180000
ENDCHAR
STARTCHAR arrowup
ENCODING 8593
SWIDTH 603 0
DWIDTH 10 0
BBX 8 19 1 -5
BITMAP
18
3C
7E
DB
99
18
18
18
18
18
18
18
18
18
18
18
18
18
18
ENDCHAR
STARTCHAR arrowright
ENCODING 8594
SWIDTH 987 0
DWIDTH 18 0
BBX 18 8 0 1
BITMAP
000600
000300
000180
FFFFC0
FFFFC0
000180
000300
000600
ENDCHAR
STARTCHAR arrowdown
ENCODING 8595
SWIDTH 603 0
DWIDTH 10 0
BBX 8 19 1 -5
BITMAP
18
18
18
18
18
18
18
18
18
18
18
18
18
18
99
DB
7E
3C
18
ENDCHAR
STARTCHAR arrowboth
ENCODING 8596
SWIDTH 1042 0
DWIDTH 19 0
BBX 17 8 1 1
BITMAP
180C00
300600
600300
FFFF80
FFFF80
600300
300600
180C00
ENDCHAR
STARTCHAR uni219A
ENCODING 8602
SWIDTH 987 0
DWIDTH 18 0
BBX 18 17 0 -3
BITMAP
000800
000800
001800
001000
003000
183000
302000
606000
FFFFC0
FFFFC0
60C000
30C000
188000
018000
018000
010000
030000
ENDCHAR
STARTCHAR uni219B
ENCODING 8603
SWIDTH 987 0
DWIDTH 18 0
BBX 18 17 0 -3
BITMAP
000800
000800
001800
001000
003000
003600
002300
006180
FFFFC0
FFFFC0
00C180
00C300
008600
018000
018000
010000
030000
ENDCHAR
STARTCHAR uni21AE
ENCODING 8622
SWIDTH 1042 0
DWIDTH 19 0
BBX 17 17 1 -3
BITMAP
001000
001000
003000
002000
006000
186C00
304600
60C300
FFFF80
FFFF80
618300
318600
190C00
030000
030000
020000
060000
ENDCHAR
STARTCHAR carriagereturn
ENCODING 8629
SWIDTH 658 0
DWIDTH 12 0
BBX 9 12 1 0
BITMAP
0180
0180
0180
0180
0180
0180
2180
6180
FF80
FF80
6000
2000
ENDCHAR
STARTCHAR uni21CD
ENCODING 8653
SWIDTH 987 0
DWIDTH 18 0
BBX 16 17 1 -4
BITMAP
0010
0010
0030
0020
0860
1860
3FFF
7FFF
E0C0
7FFF
3FFF
1980
0900
0300
0300
0200
0600
ENDCHAR
STARTCHAR uni21CE
ENCODING 8654
SWIDTH 1042 0
DWIDTH 18 0
BBX 18 17 0 -4
BITMAP
000800
000800
001800
001000
083400
183600
3FFF00
7FFF80
E061C0
7FFF80
3FFF00
18C600
088400
018000
018000
010000
030000
ENDCHAR
STARTCHAR uni21CF
ENCODING 8655
SWIDTH 987 0
DWIDTH 18 0
BBX 16 17 1 -4
BITMAP
0010
0010
0030
0020
0070
0078
FFFC
FFFE
00C7
FFFE
FFFC
0198
0110
0300
0300
0200
0600
ENDCHAR
STARTCHAR arrowdblleft
ENCODING 8656
SWIDTH 987 0
DWIDTH 18 0
BBX 16 9 1 0
BITMAP
0800
1800
3FFF
7FFF
E000
7FFF
3FFF
1800
0800
ENDCHAR
STARTCHAR arrowdblup
ENCODING 8657
SWIDTH 603 0
DWIDTH 11 0
BBX 9 17 1 -3
BITMAP
0800
1C00
3600
7700
F780
3600
3600
3600
3600
3600
3600
3600
3600
3600
3600
3600
3600
ENDCHAR
STARTCHAR arrowdblright
ENCODING 8658
SWIDTH 987 0
DWIDTH 18 0
BBX 16 9 1 0
BITMAP
0010
0018
FFFC
FFFE
0007
FFFE
FFFC
0018
0010
ENDCHAR
STARTCHAR arrowdbldown
ENCODING 8659
SWIDTH 603 0
DWIDTH 11 0
BBX 9 17 1 -3
BITMAP
3600
3600
3600
3600
3600
3600
3600
3600
3600
3600
3600
3600
F780
7700
3600
1C00
0800
ENDCHAR
STARTCHAR arrowdblboth
ENCODING 8660
SWIDTH 1042 0
DWIDTH 18 0
BBX 18 9 0 0
BITMAP
080400
180600
3FFF00
7FFF80
E001C0
7FFF80
3FFF00
180600
080400
ENDCHAR
STARTCHAR universal
ENCODING 8704
SWIDTH 713 0
DWIDTH 13 0
BBX 13 13 0 0
BITMAP
C018
C018
6030
6030
3FE0
3060
18C0
18C0
0880
0D80
0500
0700
0200
ENDCHAR
STARTCHAR partialdiff
ENCODING 8706
SWIDTH 494 0
DWIDTH 9 0
BBX 7 14 1 0
BITMAP
78
CC
86
06
06
06
3E
66
C6
C6
C6
C4
EC
78
ENDCHAR
STARTCHAR existential
ENCODING 8707
SWIDTH 549 0
DWIDTH 10 0
BBX 8 13 1 0
BITMAP
FF
03
03
03
03
03
7F
03
03
03
03
03
FF
ENDCHAR
STARTCHAR uni2204
ENCODING 8708
SWIDTH 549 0
DWIDTH 10 0
BBX 8 17 1 -2
BITMAP
01
01
FF
03
07
07
07
0F
7F
0B
1B
1B
13
33
FF
20
60
ENDCHAR
STARTCHAR emptyset
ENCODING 8709
SWIDTH 823 0
DWIDTH 14 0
BBX 12 13 1 0
BITMAP
1FB0
39F0
6060
C0F0
C1B0
8310
8610
8C10
D830
F030
6060
F9C0
DF80
ENDCHAR
STARTCHAR Delta
ENCODING 8710
SWIDTH 612 0
DWIDTH 11 0
BBX 11 13 0 0
BITMAP
0400
0600
0E00
0B00
1300
1300
1180
2180
21C0
40C0
40C0
8060
FFE0
ENDCHAR
STARTCHAR gradient
ENCODING 8711
SWIDTH 713 0
DWIDTH 13 0
BBX 11 13 1 0
BITMAP
FFE0
E020
6060
6040
70C0
3080
3080
3980
1900
1B00
0E00
0E00
0400
ENDCHAR
STARTCHAR element
ENCODING 8712
SWIDTH 713 0
DWIDTH 12 0
BBX 9 9 1 0
BITMAP
1F80
7F80
E000
C000
FF80
C000
E000
7F80
1F80
ENDCHAR
STARTCHAR notelement
ENCODING 8713
SWIDTH 713 0
DWIDTH 12 0
BBX 10 11 1 -1
BITMAP
0080
1FC0
7FC0
E200
C400
FF80
C800
F000
7FC0
3FC0
4000
ENDCHAR
STARTCHAR uni220A
ENCODING 8714
SWIDTH 439 0
DWIDTH 8 0
BBX 6 9 1 0
BITMAP
3C
70
E0
C0
F8
C0
E0
70
3C
ENDCHAR
STARTCHAR suchthat
ENCODING 8715
SWIDTH 713 0
DWIDTH 12 0
BBX 9 9 1 0
BITMAP
FC00
FF00
0380
0180
FF80
0180
0380
FF00
FC00
ENDCHAR
STARTCHAR uni220C
ENCODING 8716
SWIDTH 713 0
DWIDTH 12 0
BBX 9 17 1 -4
BITMAP
0100
0100
0300
0200
FE00
FF00
0780
0D80
FF80
0980
1B80
FF00
FC00
3000
3000
2000
6000
ENDCHAR
STARTCHAR uni220D
ENCODING 8717
SWIDTH 439 0
DWIDTH 8 0
BBX 6 9 1 0
BITMAP
F0
38
1C
0C
7C
0C
1C
38
F0
ENDCHAR
STARTCHAR product
ENCODING 8719
SWIDTH 823 0
DWIDTH 15 0
BBX 14 16 0 -2
BITMAP
FFFC
7878
3030
3030
3030
3030
3030
3030
3030
3030
3030
3030
3030
3030
7878
FCFC
ENDCHAR
STARTCHAR summation
ENCODING 8721
SWIDTH 713 0
DWIDTH 13 0
BBX 12 16 0 -2
BITMAP
FFE0
E060
7020
3800
1C00
0E00
0700
0300
0600
0C00
1800
3000
6010
C030
FFF0
FFF0
ENDCHAR
STARTCHAR minus
ENCODING 8722
SWIDTH 564 0
DWIDTH 11 0
BBX 9 2 1 4
BITMAP
FF80
FF80
ENDCHAR
STARTCHAR fraction
ENCODING 8725
SWIDTH 167 0
DWIDTH 6 0
BBX 8 13 -1 0
BITMAP
01
03
02
06
0C
08
18
10
30
60
40
C0
80
ENDCHAR
STARTCHAR asteriskmath
ENCODING 8727
SWIDTH 500 0
DWIDTH 9 0
BBX 7 7 1 3
BITMAP
10
D6
7C
38
7C
D6
10
ENDCHAR
STARTCHAR periodcentered
ENCODING 8729
SWIDTH 250 0
DWIDTH 4 0
BBX 2 2 1 4
BITMAP
C0
C0
ENDCHAR
STARTCHAR radical
ENCODING 8730
SWIDTH 549 0
DWIDTH 10 0
BBX 9 14 0 0
BITMAP
0080
0080
0080
0080
3080
7100
D900
1900
1900
0D00
0E00
0600
0600
0600
ENDCHAR
STARTCHAR proportional
ENCODING 8733
SWIDTH 713 0
DWIDTH 12 0
BBX 11 5 0 3
BITMAP
79E0
CF00
8600
CF00
79E0
ENDCHAR
STARTCHAR infinity
ENCODING 8734
SWIDTH 713 0
DWIDTH 13 0
BBX 12 5 0 3
BITMAP
79E0
CF30
8610
CF30
79E0
ENDCHAR
STARTCHAR angle
ENCODING 8736
SWIDTH 768 0
DWIDTH 14 0
BBX 13 13 0 0
BITMAP
0018
0030
0060
00C0
0180
0300
0600
0C00
1800
3000
6000
C000
FFF8
ENDCHAR
STARTCHAR logicaland
ENCODING 8743
SWIDTH 603 0
DWIDTH 11 0
BBX 10 9 0 0
BITMAP
0C00
0C00
1E00
3300
3300
6180
6180
C0C0
C0C0
ENDCHAR
STARTCHAR logicalor
ENCODING 8744
SWIDTH 603 0
DWIDTH 11 0
BBX 10 9 0 0
BITMAP
C0C0
C0C0
6180
6180
3300
3300
1E00
0C00
0C00
ENDCHAR
STARTCHAR intersection
ENCODING 8745
SWIDTH 768 0
DWIDTH 14 0
BBX 12 9 1 0
BITMAP
1F80
39C0
6060
E070
C030
C030
C030
C030
C030
ENDCHAR
STARTCHAR union
ENCODING 8746
SWIDTH 768 0
DWIDTH 14 0
BBX 12 9 1 0
BITMAP
C030
C030
C030
C030
C030
E070
6060
39C0
1F80
ENDCHAR
STARTCHAR integral
ENCODING 8747
SWIDTH 274 0
DWIDTH 6 0
BBX 6 19 0 -5
BITMAP
1C
1C
30
30
30
30
30
30
30
30
30
30
30
30
30
30
30
E0
E0
ENDCHAR
STARTCHAR therefore
ENCODING 8756
SWIDTH 863 0
DWIDTH 14 0
BBX 10 9 2 0
BITMAP
0C00
0C00
0000
0000
0000
0000
0000
C0C0
C0C0
ENDCHAR
STARTCHAR uni2235
ENCODING 8757
SWIDTH 863 0
DWIDTH 14 0
BBX 10 9 2 0
BITMAP
C0C0
C0C0
0000
0000
0000
0000
0000
0C00
0C00
ENDCHAR
STARTCHAR uni2236
ENCODING 8758
SWIDTH 278 0
DWIDTH 5 0
BBX 2 9 1 0
BITMAP
C0
C0
00
00
00
00
00
C0
C0
ENDCHAR
STARTCHAR similar
ENCODING 8764
SWIDTH 549 0
DWIDTH 10 0
BBX 8 3 1 4
BITMAP
73
FF
CE
ENDCHAR
STARTCHAR uni2241
ENCODING 8769
SWIDTH 549 0
DWIDTH 10 0
BBX 8 17 1 -3
BITMAP
01
01
03
02
06
06
04
7F
FF
CE
18
18
10
30
30
20
60
ENDCHAR
STARTCHAR congruent
ENCODING 8773
SWIDTH 549 0
DWIDTH 10 0
BBX 8 9 1 0
BITMAP
73
FF
CE
00
FF
FF
00
FF
FF
ENDCHAR
STARTCHAR uni2247
ENCODING 8775
SWIDTH 549 0
DWIDTH 10 0
BBX 8 17 1 -4
BITMAP
01
01
03
02
77
FF
CE
0C
FF
FF
18
FF
FF
30
30
20
60
ENDCHAR
STARTCHAR approxequal
ENCODING 8776
SWIDTH 549 0
DWIDTH 10 0
BBX 8 7 1 2
BITMAP
73
FF
CE
00
73
FF
CE
ENDCHAR
STARTCHAR uni2249
ENCODING 8777
SWIDTH 549 0
DWIDTH 10 0
BBX 8 17 1 -3
BITMAP
01
01
03
02
06
77
FF
CE
0C
7B
FF
DE
10
30
30
20
60
ENDCHAR
STARTCHAR uni2259
ENCODING 8793
SWIDTH 564 0
DWIDTH 11 0
BBX 9 9 1 2
BITMAP
0800
1C00
3600
0000
FF80
FF80
0000
FF80
FF80
ENDCHAR
STARTCHAR uni225A
ENCODING 8794
SWIDTH 564 0
DWIDTH 11 0
BBX 9 9 1 2
BITMAP
3600
1C00
0800
0000
FF80
FF80
0000
FF80
FF80
ENDCHAR
STARTCHAR notequal
ENCODING 8800
SWIDTH 549 0
DWIDTH 10 0
BBX 8 9 1 0
BITMAP
0C
0C
FF
FF
18
FF
FF
30
30
ENDCHAR
STARTCHAR equivalence
ENCODING 8801
SWIDTH 549 0
DWIDTH 10 0
BBX 8 8 1 1
BITMAP
FF
FF
00
FF
FF
00
FF
FF
ENDCHAR
STARTCHAR uni2262
ENCODING 8802
SWIDTH 549 0
DWIDTH 10 0
BBX 8 17 1 -3
BITMAP
01
01
03
02
06
FF
FF
0C
FF
FF
18
FF
FF
30
30
20
60
ENDCHAR
STARTCHAR lessequal
ENCODING 8804
SWIDTH 549 0
DWIDTH 10 0
BBX 9 12 0 0
BITMAP
0380
0F00
3C00
F000
C000
F000
3C00
0F00
0380
0000
FF80
FF80
ENDCHAR
STARTCHAR greaterequal
ENCODING 8805
SWIDTH 549 0
DWIDTH 10 0
BBX 9 12 0 0
BITMAP
E000
7800
1E00
0780
0180
0780
1E00
7800
E000
0000
FF80
FF80
ENDCHAR
STARTCHAR uni226E
ENCODING 8814
SWIDTH 564 0
DWIDTH 11 0
BBX 9 17 1 -4
BITMAP
0100
0100
0300
0200
0780
0700
1C00
7C00
CC00
7800
1C00
1F00
1180
3000
3000
2000
6000
ENDCHAR
STARTCHAR uni226F
ENCODING 8815
SWIDTH 564 0
DWIDTH 11 0
BBX 9 17 1 -4
BITMAP
0100
0100
0300
0200
C600
7600
1C00
0F00
0D80
0F00
1C00
7800
D000
3000
3000
2000
6000
ENDCHAR
STARTCHAR uni2270
ENCODING 8816
SWIDTH 549 0
DWIDTH 10 0
BBX 9 17 0 -2
BITMAP
0100
0100
0300
0380
0F00
3E00
F400
CC00
FC00
3C00
1F00
1B80
1000
FF80
FF80
2000
6000
ENDCHAR
STARTCHAR uni2271
ENCODING 8817
SWIDTH 549 0
DWIDTH 10 0
BBX 9 17 0 -2
BITMAP
0100
0100
0300
E200
7E00
1E00
0780
0D80
0F80
1E00
7800
F800
1000
FF80
FF80
2000
6000
ENDCHAR
STARTCHAR propersubset
ENCODING 8834
SWIDTH 713 0
DWIDTH 13 0
BBX 12 9 0 0
BITMAP
1FF0
7FF0
6000
C000
C000
C000
6000
7FF0
1FF0
ENDCHAR
STARTCHAR propersuperset
ENCODING 8835
SWIDTH 713 0
DWIDTH 13 0
BBX 12 9 1 0
BITMAP
FF80
FFE0
0060
0030
0030
0030
0060
FFE0
FF80
ENDCHAR
STARTCHAR notsubset
ENCODING 8836
SWIDTH 713 0
DWIDTH 13 0
BBX 12 13 0 -2
BITMAP
0060
00C0
1FF0
7FF0
6180
C300
C300
C600
6600
7FF0
1FF0
1800
3000
ENDCHAR
STARTCHAR uni2285
ENCODING 8837
SWIDTH 713 0
DWIDTH 13 0
BBX 12 17 1 -4
BITMAP
0040
0040
00C0
0080
FF80
FFE0
0160
0330
0330
0230
0660
FFE0
FF80
0C00
0C00
0800
1800
ENDCHAR
STARTCHAR reflexsubset
ENCODING 8838
SWIDTH 713 0
DWIDTH 13 0
BBX 12 12 0 -3
BITMAP
1FF0
7FF0
6000
C000
C000
C000
6000
7FF0
1FF0
0000
FFF0
FFF0
ENDCHAR
STARTCHAR reflexsuperset
ENCODING 8839
SWIDTH 713 0
DWIDTH 13 0
BBX 12 12 0 -3
BITMAP
FF80
FFE0
0060
0030
0030
0030
0060
FFE0
FF80
0000
FFF0
FFF0
ENDCHAR
STARTCHAR uni2288
ENCODING 8840
SWIDTH 713 0
DWIDTH 13 0
BBX 12 17 0 -5
BITMAP
0040
0040
00C0
1FF0
7FF0
6180
C100
C300
C300
6200
7FF0
1FF0
0400
FFF0
FFF0
0800
1800
ENDCHAR
STARTCHAR uni2289
ENCODING 8841
SWIDTH 713 0
DWIDTH 13 0
BBX 12 17 0 -5
BITMAP
0040
0040
00C0
FF80
FFE0
01E0
0130
0330
0330
0260
FFE0
FF80
0400
FFF0
FFF0
0800
1800
ENDCHAR
STARTCHAR circleplus
ENCODING 8853
SWIDTH 768 0
DWIDTH 14 0
BBX 12 13 1 0
BITMAP
1F80
39C0
6660
C630
C630
BFD0
BFD0
8610
C630
C630
6060
39C0
1F80
ENDCHAR
STARTCHAR circlemultiply
ENCODING 8855
SWIDTH 768 0
DWIDTH 14 0
BBX 12 13 1 0
BITMAP
1F80
39C0
6060
D9B0
DDB0
8F10
8610
8F10
DBB0
D9B0
6060
39C0
1F80
ENDCHAR
STARTCHAR uni22A4
ENCODING 8868
SWIDTH 658 0
DWIDTH 12 0
BBX 10 13 1 0
BITMAP
FFC0
FFC0
0C00
0C00
0C00
0C00
0C00
0C00
0C00
0C00
0C00
0C00
0C00
ENDCHAR
STARTCHAR perpendicular
ENCODING 8869
SWIDTH 658 0
DWIDTH 12 0
BBX 10 13 1 0
BITMAP
0C00
0C00
0C00
0C00
0C00
0C00
0C00
0C00
0C00
0C00
0C00
FFC0
FFC0
ENDCHAR
STARTCHAR dotmath
ENCODING 8901
SWIDTH 250 0
DWIDTH 4 0
BBX 2 2 1 4
BITMAP
C0
C0
ENDCHAR
STARTCHAR integraltp
ENCODING 8992
SWIDTH 686 0
DWIDTH 13 0
BBX 7 19 5 -5
BITMAP
1C
7E
66
C0
C0
C0
C0
C0
C0
C0
C0
C0
C0
C0
C0
C0
C0
C0
C0
ENDCHAR
STARTCHAR integralbt
ENCODING 8993
SWIDTH 686 0
DWIDTH 13 0
BBX 7 19 0 -5
BITMAP
06
06
06
06
06
06
06
06
06
06
06
06
06
06
06
06
CC
FC
70
ENDCHAR
STARTCHAR angleleft
ENCODING 9001
SWIDTH 329 0
DWIDTH 6 0
BBX 5 17 0 -3
BITMAP
18
18
30
30
60
60
C0
C0
80
C0
C0
60
60
30
30
18
18
ENDCHAR
STARTCHAR angleright
ENCODING 9002
SWIDTH 329 0
DWIDTH 6 0
BBX 5 17 0 -3
BITMAP
C0
C0
60
60
30
30
18
18
08
18
18
30
30
60
60
C0
C0
ENDCHAR
STARTCHAR lozenge
ENCODING 9674
SWIDTH 494 0
DWIDTH 9 0
BBX 9 14 0 0
BITMAP
1C00
1C00
3600
3600
6300
6300
C180
C180
6300
6300
3600
3600
1C00
1C00
ENDCHAR
STARTCHAR spade
ENCODING 9824
SWIDTH 753 0
DWIDTH 14 0
BBX 10 9 2 0
BITMAP
0C00
1E00
3F00
7F80
FFC0
FFC0
6D80
0C00
0C00
ENDCHAR
STARTCHAR club
ENCODING 9827
SWIDTH 753 0
DWIDTH 14 0
BBX 10 9 2 0
BITMAP
0C00
1E00
1E00
1E00
6D80
FFC0
FFC0
6D80
0C00
ENDCHAR
STARTCHAR heart
ENCODING 9829
SWIDTH 753 0
DWIDTH 13 0
BBX 9 9 2 0
BITMAP
6300
F780
FF80
FF80
7F00
7F00
3E00
1C00
0800
ENDCHAR
STARTCHAR diamond
ENCODING 9830
SWIDTH 753 0
DWIDTH 13 0
BBX 9 9 2 0
BITMAP
0800
1C00
3E00
7F00
FF80
7F00
3E00
1C00
0800
ENDCHAR
STARTCHAR fi
ENCODING -1
SWIDTH 556 0
DWIDTH 9 0
BBX 8 13 0 0
BITMAP
1E
36
20
60
FE
66
66
66
66
66
66
66
FF
ENDCHAR
STARTCHAR fl
ENCODING -1
SWIDTH 556 0
DWIDTH 9 0
BBX 8 13 0 0
BITMAP
1E
36
26
66
FE
66
66
66
66
66
66
66
FF
ENDCHAR
ENDFONT
